ISO-10303-21;
HEADER;
/* Generated by software containing ST-Developer
 * from STEP Tools, Inc. (www.steptools.com) 
 */

FILE_DESCRIPTION(
/* description */ (''),
/* implementation_level */ '2;1');

FILE_NAME(
/* name */ '6a9afd92-3a2d-4668-89d9-b521d94ffb4c.stp',
/* time_stamp */ '2026-04-24T18:38:10Z',
/* author */ (''),
/* organization */ (''),
/* preprocessor_version */ 'ST-DEVELOPER v20.1',
/* originating_system */ 'Autodesk Translation Framework v15.8.0.0',
/* authorisation */ '');

FILE_SCHEMA (('AUTOMOTIVE_DESIGN { 1 0 10303 214 3 1 1 }'));
ENDSEC;

DATA;
#10=MECHANICAL_DESIGN_GEOMETRIC_PRESENTATION_REPRESENTATION('',(#18,#19,
#20,#21,#22,#23,#24,#25),#958);
#11=ITEM_DEFINED_TRANSFORMATION($,$,#578,#631);
#12=(
REPRESENTATION_RELATIONSHIP($,$,#969,#968)
REPRESENTATION_RELATIONSHIP_WITH_TRANSFORMATION(#11)
SHAPE_REPRESENTATION_RELATIONSHIP()
);
#13=CONTEXT_DEPENDENT_SHAPE_REPRESENTATION(#12,#967);
#14=NEXT_ASSEMBLY_USAGE_OCCURRENCE('DC motor:1','DC motor:1',
'DC motor:1',#971,#972,'DC motor:1');
#15=SHAPE_REPRESENTATION_RELATIONSHIP('SRR','None',#969,#16);
#16=ADVANCED_BREP_SHAPE_REPRESENTATION('',(#17),#957);
#17=MANIFOLD_SOLID_BREP('Body1',#564);
#18=STYLED_ITEM('',(#983),#551);
#19=STYLED_ITEM('',(#983),#552);
#20=STYLED_ITEM('',(#983),#553);
#21=STYLED_ITEM('',(#983),#554);
#22=STYLED_ITEM('',(#983),#555);
#23=STYLED_ITEM('',(#983),#556);
#24=STYLED_ITEM('',(#983),#563);
#25=STYLED_ITEM('',(#982),#17);
#26=FACE_BOUND('',#95,.T.);
#27=FACE_BOUND('',#111,.T.);
#28=FACE_BOUND('',#112,.T.);
#29=FACE_BOUND('',#113,.T.);
#30=FACE_BOUND('',#118,.T.);
#31=FACE_BOUND('',#123,.T.);
#32=CYLINDRICAL_SURFACE('',#585,2.5);
#33=CYLINDRICAL_SURFACE('',#589,0.5);
#34=CYLINDRICAL_SURFACE('',#602,6.);
#35=CYLINDRICAL_SURFACE('',#606,6.);
#36=CYLINDRICAL_SURFACE('',#622,2.);
#37=CYLINDRICAL_SURFACE('',#623,1.5);
#38=CIRCLE('',#581,2.3);
#39=CIRCLE('',#582,0.2);
#40=CIRCLE('',#583,2.5);
#41=CIRCLE('',#584,2.5);
#42=CIRCLE('',#586,2.5);
#43=CIRCLE('',#588,0.5);
#44=CIRCLE('',#590,0.5);
#45=CIRCLE('',#603,6.);
#46=CIRCLE('',#604,6.);
#47=CIRCLE('',#605,6.);
#48=CIRCLE('',#607,6.);
#49=CIRCLE('',#608,6.);
#50=CIRCLE('',#609,6.);
#51=CIRCLE('',#615,2.);
#52=CIRCLE('',#620,2.);
#53=CIRCLE('',#621,1.5);
#54=CIRCLE('',#624,1.5);
#55=CIRCLE('',#625,1.5);
#56=CIRCLE('',#626,1.5);
#57=TOROIDAL_SURFACE('',#580,2.3,0.2);
#58=FACE_OUTER_BOUND('',#91,.T.);
#59=FACE_OUTER_BOUND('',#92,.T.);
#60=FACE_OUTER_BOUND('',#93,.T.);
#61=FACE_OUTER_BOUND('',#94,.T.);
#62=FACE_OUTER_BOUND('',#96,.T.);
#63=FACE_OUTER_BOUND('',#97,.T.);
#64=FACE_OUTER_BOUND('',#98,.T.);
#65=FACE_OUTER_BOUND('',#99,.T.);
#66=FACE_OUTER_BOUND('',#100,.T.);
#67=FACE_OUTER_BOUND('',#101,.T.);
#68=FACE_OUTER_BOUND('',#102,.T.);
#69=FACE_OUTER_BOUND('',#103,.T.);
#70=FACE_OUTER_BOUND('',#104,.T.);
#71=FACE_OUTER_BOUND('',#105,.T.);
#72=FACE_OUTER_BOUND('',#106,.T.);
#73=FACE_OUTER_BOUND('',#107,.T.);
#74=FACE_OUTER_BOUND('',#108,.T.);
#75=FACE_OUTER_BOUND('',#109,.T.);
#76=FACE_OUTER_BOUND('',#110,.T.);
#77=FACE_OUTER_BOUND('',#114,.T.);
#78=FACE_OUTER_BOUND('',#115,.T.);
#79=FACE_OUTER_BOUND('',#116,.T.);
#80=FACE_OUTER_BOUND('',#117,.T.);
#81=FACE_OUTER_BOUND('',#119,.T.);
#82=FACE_OUTER_BOUND('',#120,.T.);
#83=FACE_OUTER_BOUND('',#121,.T.);
#84=FACE_OUTER_BOUND('',#122,.T.);
#85=FACE_OUTER_BOUND('',#124,.T.);
#86=FACE_OUTER_BOUND('',#125,.T.);
#87=FACE_OUTER_BOUND('',#126,.T.);
#88=FACE_OUTER_BOUND('',#127,.T.);
#89=FACE_OUTER_BOUND('',#128,.T.);
#90=FACE_OUTER_BOUND('',#129,.T.);
#91=EDGE_LOOP('',(#359,#360,#361,#362));
#92=EDGE_LOOP('',(#363,#364,#365,#366,#367));
#93=EDGE_LOOP('',(#368,#369,#370,#371,#372));
#94=EDGE_LOOP('',(#373));
#95=EDGE_LOOP('',(#374));
#96=EDGE_LOOP('',(#375,#376,#377,#378));
#97=EDGE_LOOP('',(#379));
#98=EDGE_LOOP('',(#380,#381,#382,#383));
#99=EDGE_LOOP('',(#384,#385,#386,#387));
#100=EDGE_LOOP('',(#388,#389,#390,#391));
#101=EDGE_LOOP('',(#392,#393,#394,#395));
#102=EDGE_LOOP('',(#396,#397,#398,#399));
#103=EDGE_LOOP('',(#400,#401,#402,#403));
#104=EDGE_LOOP('',(#404,#405,#406,#407));
#105=EDGE_LOOP('',(#408,#409,#410,#411));
#106=EDGE_LOOP('',(#412,#413,#414,#415));
#107=EDGE_LOOP('',(#416,#417,#418,#419));
#108=EDGE_LOOP('',(#420,#421,#422,#423,#424));
#109=EDGE_LOOP('',(#425,#426,#427,#428,#429));
#110=EDGE_LOOP('',(#430,#431,#432,#433));
#111=EDGE_LOOP('',(#434));
#112=EDGE_LOOP('',(#435,#436,#437,#438));
#113=EDGE_LOOP('',(#439,#440,#441,#442));
#114=EDGE_LOOP('',(#443,#444,#445,#446));
#115=EDGE_LOOP('',(#447,#448,#449,#450,#451,#452));
#116=EDGE_LOOP('',(#453,#454,#455,#456,#457,#458));
#117=EDGE_LOOP('',(#459,#460,#461,#462));
#118=EDGE_LOOP('',(#463));
#119=EDGE_LOOP('',(#464,#465,#466,#467,#468));
#120=EDGE_LOOP('',(#469,#470,#471,#472));
#121=EDGE_LOOP('',(#473,#474,#475,#476,#477));
#122=EDGE_LOOP('',(#478));
#123=EDGE_LOOP('',(#479));
#124=EDGE_LOOP('',(#480,#481,#482,#483));
#125=EDGE_LOOP('',(#484,#485,#486,#487,#488,#489,#490,#491));
#126=EDGE_LOOP('',(#492,#493));
#127=EDGE_LOOP('',(#494,#495,#496));
#128=EDGE_LOOP('',(#497,#498,#499,#500));
#129=EDGE_LOOP('',(#501,#502,#503,#504));
#130=LINE('',#801,#184);
#131=LINE('',#803,#185);
#132=LINE('',#805,#186);
#133=LINE('',#806,#187);
#134=LINE('',#817,#188);
#135=LINE('',#825,#189);
#136=LINE('',#830,#190);
#137=LINE('',#832,#191);
#138=LINE('',#834,#192);
#139=LINE('',#835,#193);
#140=LINE('',#838,#194);
#141=LINE('',#840,#195);
#142=LINE('',#841,#196);
#143=LINE('',#844,#197);
#144=LINE('',#846,#198);
#145=LINE('',#847,#199);
#146=LINE('',#849,#200);
#147=LINE('',#850,#201);
#148=LINE('',#855,#202);
#149=LINE('',#857,#203);
#150=LINE('',#859,#204);
#151=LINE('',#860,#205);
#152=LINE('',#863,#206);
#153=LINE('',#865,#207);
#154=LINE('',#866,#208);
#155=LINE('',#869,#209);
#156=LINE('',#871,#210);
#157=LINE('',#872,#211);
#158=LINE('',#874,#212);
#159=LINE('',#875,#213);
#160=LINE('',#883,#214);
#161=LINE('',#890,#215);
#162=LINE('',#894,#216);
#163=LINE('',#896,#217);
#164=LINE('',#899,#218);
#165=LINE('',#901,#219);
#166=LINE('',#902,#220);
#167=LINE('',#905,#221);
#168=LINE('',#907,#222);
#169=LINE('',#908,#223);
#170=LINE('',#912,#224);
#171=LINE('',#914,#225);
#172=LINE('',#916,#226);
#173=LINE('',#917,#227);
#174=LINE('',#921,#228);
#175=LINE('',#922,#229);
#176=LINE('',#924,#230);
#177=LINE('',#926,#231);
#178=LINE('',#933,#232);
#179=LINE('',#939,#233);
#180=LINE('',#942,#234);
#181=LINE('',#945,#235);
#182=LINE('',#947,#236);
#183=LINE('',#949,#237);
#184=VECTOR('',#638,10.);
#185=VECTOR('',#639,10.);
#186=VECTOR('',#640,10.);
#187=VECTOR('',#641,10.);
#188=VECTOR('',#654,2.5);
#189=VECTOR('',#665,0.5);
#190=VECTOR('',#670,10.);
#191=VECTOR('',#671,10.);
#192=VECTOR('',#672,10.);
#193=VECTOR('',#673,10.);
#194=VECTOR('',#676,10.);
#195=VECTOR('',#677,10.);
#196=VECTOR('',#678,10.);
#197=VECTOR('',#681,10.);
#198=VECTOR('',#682,10.);
#199=VECTOR('',#683,10.);
#200=VECTOR('',#686,10.);
#201=VECTOR('',#687,10.);
#202=VECTOR('',#692,10.);
#203=VECTOR('',#693,10.);
#204=VECTOR('',#694,10.);
#205=VECTOR('',#695,10.);
#206=VECTOR('',#698,10.);
#207=VECTOR('',#699,10.);
#208=VECTOR('',#700,10.);
#209=VECTOR('',#703,10.);
#210=VECTOR('',#704,10.);
#211=VECTOR('',#705,10.);
#212=VECTOR('',#708,10.);
#213=VECTOR('',#709,10.);
#214=VECTOR('',#718,10.);
#215=VECTOR('',#725,10.);
#216=VECTOR('',#732,10.);
#217=VECTOR('',#735,10.);
#218=VECTOR('',#738,10.);
#219=VECTOR('',#739,10.);
#220=VECTOR('',#740,10.);
#221=VECTOR('',#743,10.);
#222=VECTOR('',#744,10.);
#223=VECTOR('',#745,10.);
#224=VECTOR('',#748,10.);
#225=VECTOR('',#749,10.);
#226=VECTOR('',#750,10.);
#227=VECTOR('',#751,10.);
#228=VECTOR('',#756,10.);
#229=VECTOR('',#757,10.);
#230=VECTOR('',#760,10.);
#231=VECTOR('',#763,10.);
#232=VECTOR('',#772,2.);
#233=VECTOR('',#777,10.);
#234=VECTOR('',#780,1.5);
#235=VECTOR('',#783,10.);
#236=VECTOR('',#786,10.);
#237=VECTOR('',#789,10.);
#238=VERTEX_POINT('',#799);
#239=VERTEX_POINT('',#800);
#240=VERTEX_POINT('',#802);
#241=VERTEX_POINT('',#804);
#242=VERTEX_POINT('',#808);
#243=VERTEX_POINT('',#810);
#244=VERTEX_POINT('',#812);
#245=VERTEX_POINT('',#816);
#246=VERTEX_POINT('',#820);
#247=VERTEX_POINT('',#823);
#248=VERTEX_POINT('',#828);
#249=VERTEX_POINT('',#829);
#250=VERTEX_POINT('',#831);
#251=VERTEX_POINT('',#833);
#252=VERTEX_POINT('',#837);
#253=VERTEX_POINT('',#839);
#254=VERTEX_POINT('',#843);
#255=VERTEX_POINT('',#845);
#256=VERTEX_POINT('',#853);
#257=VERTEX_POINT('',#854);
#258=VERTEX_POINT('',#856);
#259=VERTEX_POINT('',#858);
#260=VERTEX_POINT('',#862);
#261=VERTEX_POINT('',#864);
#262=VERTEX_POINT('',#868);
#263=VERTEX_POINT('',#870);
#264=VERTEX_POINT('',#878);
#265=VERTEX_POINT('',#880);
#266=VERTEX_POINT('',#882);
#267=VERTEX_POINT('',#886);
#268=VERTEX_POINT('',#887);
#269=VERTEX_POINT('',#889);
#270=VERTEX_POINT('',#898);
#271=VERTEX_POINT('',#900);
#272=VERTEX_POINT('',#904);
#273=VERTEX_POINT('',#906);
#274=VERTEX_POINT('',#910);
#275=VERTEX_POINT('',#911);
#276=VERTEX_POINT('',#913);
#277=VERTEX_POINT('',#915);
#278=VERTEX_POINT('',#918);
#279=VERTEX_POINT('',#928);
#280=VERTEX_POINT('',#930);
#281=VERTEX_POINT('',#935);
#282=VERTEX_POINT('',#936);
#283=VERTEX_POINT('',#938);
#284=VERTEX_POINT('',#940);
#285=VERTEX_POINT('',#943);
#286=EDGE_CURVE('',#238,#239,#130,.T.);
#287=EDGE_CURVE('',#238,#240,#131,.T.);
#288=EDGE_CURVE('',#241,#240,#132,.F.);
#289=EDGE_CURVE('',#239,#241,#133,.F.);
#290=EDGE_CURVE('',#242,#242,#38,.T.);
#291=EDGE_CURVE('',#242,#243,#39,.T.);
#292=EDGE_CURVE('',#243,#244,#40,.T.);
#293=EDGE_CURVE('',#244,#243,#41,.T.);
#294=EDGE_CURVE('',#244,#245,#134,.T.);
#295=EDGE_CURVE('',#245,#245,#42,.T.);
#296=EDGE_CURVE('',#246,#246,#43,.T.);
#297=EDGE_CURVE('',#247,#247,#44,.T.);
#298=EDGE_CURVE('',#247,#246,#135,.T.);
#299=EDGE_CURVE('',#248,#249,#136,.T.);
#300=EDGE_CURVE('',#248,#250,#137,.T.);
#301=EDGE_CURVE('',#251,#250,#138,.T.);
#302=EDGE_CURVE('',#249,#251,#139,.T.);
#303=EDGE_CURVE('',#249,#252,#140,.T.);
#304=EDGE_CURVE('',#253,#251,#141,.T.);
#305=EDGE_CURVE('',#252,#253,#142,.T.);
#306=EDGE_CURVE('',#252,#254,#143,.T.);
#307=EDGE_CURVE('',#255,#253,#144,.T.);
#308=EDGE_CURVE('',#254,#255,#145,.T.);
#309=EDGE_CURVE('',#254,#248,#146,.T.);
#310=EDGE_CURVE('',#250,#255,#147,.T.);
#311=EDGE_CURVE('',#256,#257,#148,.T.);
#312=EDGE_CURVE('',#256,#258,#149,.T.);
#313=EDGE_CURVE('',#259,#258,#150,.T.);
#314=EDGE_CURVE('',#257,#259,#151,.T.);
#315=EDGE_CURVE('',#257,#260,#152,.T.);
#316=EDGE_CURVE('',#261,#259,#153,.T.);
#317=EDGE_CURVE('',#260,#261,#154,.T.);
#318=EDGE_CURVE('',#260,#262,#155,.T.);
#319=EDGE_CURVE('',#263,#261,#156,.T.);
#320=EDGE_CURVE('',#262,#263,#157,.T.);
#321=EDGE_CURVE('',#262,#256,#158,.T.);
#322=EDGE_CURVE('',#258,#263,#159,.T.);
#323=EDGE_CURVE('',#239,#264,#45,.T.);
#324=EDGE_CURVE('',#265,#241,#46,.T.);
#325=EDGE_CURVE('',#266,#265,#160,.T.);
#326=EDGE_CURVE('',#264,#266,#47,.T.);
#327=EDGE_CURVE('',#267,#268,#48,.T.);
#328=EDGE_CURVE('',#267,#269,#161,.F.);
#329=EDGE_CURVE('',#240,#269,#49,.T.);
#330=EDGE_CURVE('',#268,#238,#50,.T.);
#331=EDGE_CURVE('',#269,#265,#162,.F.);
#332=EDGE_CURVE('',#266,#267,#163,.T.);
#333=EDGE_CURVE('',#264,#270,#164,.T.);
#334=EDGE_CURVE('',#270,#271,#165,.T.);
#335=EDGE_CURVE('',#271,#268,#166,.T.);
#336=EDGE_CURVE('',#268,#272,#167,.T.);
#337=EDGE_CURVE('',#272,#273,#168,.T.);
#338=EDGE_CURVE('',#273,#264,#169,.T.);
#339=EDGE_CURVE('',#274,#275,#170,.T.);
#340=EDGE_CURVE('',#276,#274,#171,.T.);
#341=EDGE_CURVE('',#277,#276,#172,.T.);
#342=EDGE_CURVE('',#275,#277,#173,.T.);
#343=EDGE_CURVE('',#278,#278,#51,.T.);
#344=EDGE_CURVE('',#277,#270,#174,.T.);
#345=EDGE_CURVE('',#275,#273,#175,.T.);
#346=EDGE_CURVE('',#276,#271,#176,.T.);
#347=EDGE_CURVE('',#274,#272,#177,.T.);
#348=EDGE_CURVE('',#279,#279,#52,.T.);
#349=EDGE_CURVE('',#280,#280,#53,.T.);
#350=EDGE_CURVE('',#279,#278,#178,.T.);
#351=EDGE_CURVE('',#281,#282,#54,.T.);
#352=EDGE_CURVE('',#281,#283,#179,.T.);
#353=EDGE_CURVE('',#284,#283,#55,.T.);
#354=EDGE_CURVE('',#284,#280,#180,.T.);
#355=EDGE_CURVE('',#285,#284,#56,.T.);
#356=EDGE_CURVE('',#282,#285,#181,.T.);
#357=EDGE_CURVE('',#282,#281,#182,.T.);
#358=EDGE_CURVE('',#283,#285,#183,.T.);
#359=ORIENTED_EDGE('',*,*,#286,.F.);
#360=ORIENTED_EDGE('',*,*,#287,.T.);
#361=ORIENTED_EDGE('',*,*,#288,.F.);
#362=ORIENTED_EDGE('',*,*,#289,.F.);
#363=ORIENTED_EDGE('',*,*,#290,.T.);
#364=ORIENTED_EDGE('',*,*,#291,.T.);
#365=ORIENTED_EDGE('',*,*,#292,.T.);
#366=ORIENTED_EDGE('',*,*,#293,.T.);
#367=ORIENTED_EDGE('',*,*,#291,.F.);
#368=ORIENTED_EDGE('',*,*,#293,.F.);
#369=ORIENTED_EDGE('',*,*,#294,.T.);
#370=ORIENTED_EDGE('',*,*,#295,.F.);
#371=ORIENTED_EDGE('',*,*,#294,.F.);
#372=ORIENTED_EDGE('',*,*,#292,.F.);
#373=ORIENTED_EDGE('',*,*,#290,.F.);
#374=ORIENTED_EDGE('',*,*,#296,.F.);
#375=ORIENTED_EDGE('',*,*,#297,.F.);
#376=ORIENTED_EDGE('',*,*,#298,.T.);
#377=ORIENTED_EDGE('',*,*,#296,.T.);
#378=ORIENTED_EDGE('',*,*,#298,.F.);
#379=ORIENTED_EDGE('',*,*,#297,.T.);
#380=ORIENTED_EDGE('',*,*,#299,.F.);
#381=ORIENTED_EDGE('',*,*,#300,.T.);
#382=ORIENTED_EDGE('',*,*,#301,.F.);
#383=ORIENTED_EDGE('',*,*,#302,.F.);
#384=ORIENTED_EDGE('',*,*,#303,.F.);
#385=ORIENTED_EDGE('',*,*,#302,.T.);
#386=ORIENTED_EDGE('',*,*,#304,.F.);
#387=ORIENTED_EDGE('',*,*,#305,.F.);
#388=ORIENTED_EDGE('',*,*,#306,.F.);
#389=ORIENTED_EDGE('',*,*,#305,.T.);
#390=ORIENTED_EDGE('',*,*,#307,.F.);
#391=ORIENTED_EDGE('',*,*,#308,.F.);
#392=ORIENTED_EDGE('',*,*,#309,.F.);
#393=ORIENTED_EDGE('',*,*,#308,.T.);
#394=ORIENTED_EDGE('',*,*,#310,.F.);
#395=ORIENTED_EDGE('',*,*,#300,.F.);
#396=ORIENTED_EDGE('',*,*,#310,.T.);
#397=ORIENTED_EDGE('',*,*,#307,.T.);
#398=ORIENTED_EDGE('',*,*,#304,.T.);
#399=ORIENTED_EDGE('',*,*,#301,.T.);
#400=ORIENTED_EDGE('',*,*,#311,.F.);
#401=ORIENTED_EDGE('',*,*,#312,.T.);
#402=ORIENTED_EDGE('',*,*,#313,.F.);
#403=ORIENTED_EDGE('',*,*,#314,.F.);
#404=ORIENTED_EDGE('',*,*,#315,.F.);
#405=ORIENTED_EDGE('',*,*,#314,.T.);
#406=ORIENTED_EDGE('',*,*,#316,.F.);
#407=ORIENTED_EDGE('',*,*,#317,.F.);
#408=ORIENTED_EDGE('',*,*,#318,.F.);
#409=ORIENTED_EDGE('',*,*,#317,.T.);
#410=ORIENTED_EDGE('',*,*,#319,.F.);
#411=ORIENTED_EDGE('',*,*,#320,.F.);
#412=ORIENTED_EDGE('',*,*,#321,.F.);
#413=ORIENTED_EDGE('',*,*,#320,.T.);
#414=ORIENTED_EDGE('',*,*,#322,.F.);
#415=ORIENTED_EDGE('',*,*,#312,.F.);
#416=ORIENTED_EDGE('',*,*,#322,.T.);
#417=ORIENTED_EDGE('',*,*,#319,.T.);
#418=ORIENTED_EDGE('',*,*,#316,.T.);
#419=ORIENTED_EDGE('',*,*,#313,.T.);
#420=ORIENTED_EDGE('',*,*,#323,.F.);
#421=ORIENTED_EDGE('',*,*,#289,.T.);
#422=ORIENTED_EDGE('',*,*,#324,.F.);
#423=ORIENTED_EDGE('',*,*,#325,.F.);
#424=ORIENTED_EDGE('',*,*,#326,.F.);
#425=ORIENTED_EDGE('',*,*,#327,.F.);
#426=ORIENTED_EDGE('',*,*,#328,.T.);
#427=ORIENTED_EDGE('',*,*,#329,.F.);
#428=ORIENTED_EDGE('',*,*,#287,.F.);
#429=ORIENTED_EDGE('',*,*,#330,.F.);
#430=ORIENTED_EDGE('',*,*,#329,.T.);
#431=ORIENTED_EDGE('',*,*,#331,.T.);
#432=ORIENTED_EDGE('',*,*,#324,.T.);
#433=ORIENTED_EDGE('',*,*,#288,.T.);
#434=ORIENTED_EDGE('',*,*,#295,.T.);
#435=ORIENTED_EDGE('',*,*,#299,.T.);
#436=ORIENTED_EDGE('',*,*,#303,.T.);
#437=ORIENTED_EDGE('',*,*,#306,.T.);
#438=ORIENTED_EDGE('',*,*,#309,.T.);
#439=ORIENTED_EDGE('',*,*,#311,.T.);
#440=ORIENTED_EDGE('',*,*,#315,.T.);
#441=ORIENTED_EDGE('',*,*,#318,.T.);
#442=ORIENTED_EDGE('',*,*,#321,.T.);
#443=ORIENTED_EDGE('',*,*,#332,.F.);
#444=ORIENTED_EDGE('',*,*,#325,.T.);
#445=ORIENTED_EDGE('',*,*,#331,.F.);
#446=ORIENTED_EDGE('',*,*,#328,.F.);
#447=ORIENTED_EDGE('',*,*,#323,.T.);
#448=ORIENTED_EDGE('',*,*,#333,.T.);
#449=ORIENTED_EDGE('',*,*,#334,.T.);
#450=ORIENTED_EDGE('',*,*,#335,.T.);
#451=ORIENTED_EDGE('',*,*,#330,.T.);
#452=ORIENTED_EDGE('',*,*,#286,.T.);
#453=ORIENTED_EDGE('',*,*,#326,.T.);
#454=ORIENTED_EDGE('',*,*,#332,.T.);
#455=ORIENTED_EDGE('',*,*,#327,.T.);
#456=ORIENTED_EDGE('',*,*,#336,.T.);
#457=ORIENTED_EDGE('',*,*,#337,.T.);
#458=ORIENTED_EDGE('',*,*,#338,.T.);
#459=ORIENTED_EDGE('',*,*,#339,.F.);
#460=ORIENTED_EDGE('',*,*,#340,.F.);
#461=ORIENTED_EDGE('',*,*,#341,.F.);
#462=ORIENTED_EDGE('',*,*,#342,.F.);
#463=ORIENTED_EDGE('',*,*,#343,.T.);
#464=ORIENTED_EDGE('',*,*,#342,.T.);
#465=ORIENTED_EDGE('',*,*,#344,.T.);
#466=ORIENTED_EDGE('',*,*,#333,.F.);
#467=ORIENTED_EDGE('',*,*,#338,.F.);
#468=ORIENTED_EDGE('',*,*,#345,.F.);
#469=ORIENTED_EDGE('',*,*,#334,.F.);
#470=ORIENTED_EDGE('',*,*,#344,.F.);
#471=ORIENTED_EDGE('',*,*,#341,.T.);
#472=ORIENTED_EDGE('',*,*,#346,.T.);
#473=ORIENTED_EDGE('',*,*,#340,.T.);
#474=ORIENTED_EDGE('',*,*,#347,.T.);
#475=ORIENTED_EDGE('',*,*,#336,.F.);
#476=ORIENTED_EDGE('',*,*,#335,.F.);
#477=ORIENTED_EDGE('',*,*,#346,.F.);
#478=ORIENTED_EDGE('',*,*,#348,.T.);
#479=ORIENTED_EDGE('',*,*,#349,.T.);
#480=ORIENTED_EDGE('',*,*,#348,.F.);
#481=ORIENTED_EDGE('',*,*,#350,.T.);
#482=ORIENTED_EDGE('',*,*,#343,.F.);
#483=ORIENTED_EDGE('',*,*,#350,.F.);
#484=ORIENTED_EDGE('',*,*,#351,.F.);
#485=ORIENTED_EDGE('',*,*,#352,.T.);
#486=ORIENTED_EDGE('',*,*,#353,.F.);
#487=ORIENTED_EDGE('',*,*,#354,.T.);
#488=ORIENTED_EDGE('',*,*,#349,.F.);
#489=ORIENTED_EDGE('',*,*,#354,.F.);
#490=ORIENTED_EDGE('',*,*,#355,.F.);
#491=ORIENTED_EDGE('',*,*,#356,.F.);
#492=ORIENTED_EDGE('',*,*,#357,.T.);
#493=ORIENTED_EDGE('',*,*,#351,.T.);
#494=ORIENTED_EDGE('',*,*,#358,.T.);
#495=ORIENTED_EDGE('',*,*,#355,.T.);
#496=ORIENTED_EDGE('',*,*,#353,.T.);
#497=ORIENTED_EDGE('',*,*,#357,.F.);
#498=ORIENTED_EDGE('',*,*,#356,.T.);
#499=ORIENTED_EDGE('',*,*,#358,.F.);
#500=ORIENTED_EDGE('',*,*,#352,.F.);
#501=ORIENTED_EDGE('',*,*,#337,.F.);
#502=ORIENTED_EDGE('',*,*,#347,.F.);
#503=ORIENTED_EDGE('',*,*,#339,.T.);
#504=ORIENTED_EDGE('',*,*,#345,.T.);
#505=PLANE('',#579);
#506=PLANE('',#587);
#507=PLANE('',#591);
#508=PLANE('',#592);
#509=PLANE('',#593);
#510=PLANE('',#594);
#511=PLANE('',#595);
#512=PLANE('',#596);
#513=PLANE('',#597);
#514=PLANE('',#598);
#515=PLANE('',#599);
#516=PLANE('',#600);
#517=PLANE('',#601);
#518=PLANE('',#610);
#519=PLANE('',#611);
#520=PLANE('',#612);
#521=PLANE('',#613);
#522=PLANE('',#614);
#523=PLANE('',#616);
#524=PLANE('',#617);
#525=PLANE('',#618);
#526=PLANE('',#619);
#527=PLANE('',#627);
#528=PLANE('',#628);
#529=PLANE('',#629);
#530=PLANE('',#630);
#531=ADVANCED_FACE('',(#58),#505,.T.);
#532=ADVANCED_FACE('',(#59),#57,.T.);
#533=ADVANCED_FACE('',(#60),#32,.T.);
#534=ADVANCED_FACE('',(#61,#26),#506,.T.);
#535=ADVANCED_FACE('',(#62),#33,.T.);
#536=ADVANCED_FACE('',(#63),#507,.T.);
#537=ADVANCED_FACE('',(#64),#508,.T.);
#538=ADVANCED_FACE('',(#65),#509,.T.);
#539=ADVANCED_FACE('',(#66),#510,.T.);
#540=ADVANCED_FACE('',(#67),#511,.T.);
#541=ADVANCED_FACE('',(#68),#512,.T.);
#542=ADVANCED_FACE('',(#69),#513,.T.);
#543=ADVANCED_FACE('',(#70),#514,.T.);
#544=ADVANCED_FACE('',(#71),#515,.T.);
#545=ADVANCED_FACE('',(#72),#516,.T.);
#546=ADVANCED_FACE('',(#73),#517,.T.);
#547=ADVANCED_FACE('',(#74),#34,.T.);
#548=ADVANCED_FACE('',(#75),#35,.T.);
#549=ADVANCED_FACE('',(#76,#27,#28,#29),#518,.T.);
#550=ADVANCED_FACE('',(#77),#519,.T.);
#551=ADVANCED_FACE('',(#78),#520,.T.);
#552=ADVANCED_FACE('',(#79),#521,.T.);
#553=ADVANCED_FACE('',(#80,#30),#522,.F.);
#554=ADVANCED_FACE('',(#81),#523,.T.);
#555=ADVANCED_FACE('',(#82),#524,.T.);
#556=ADVANCED_FACE('',(#83),#525,.T.);
#557=ADVANCED_FACE('',(#84,#31),#526,.F.);
#558=ADVANCED_FACE('',(#85),#36,.T.);
#559=ADVANCED_FACE('',(#86),#37,.T.);
#560=ADVANCED_FACE('',(#87),#527,.F.);
#561=ADVANCED_FACE('',(#88),#528,.T.);
#562=ADVANCED_FACE('',(#89),#529,.T.);
#563=ADVANCED_FACE('',(#90),#530,.T.);
#564=CLOSED_SHELL('',(#531,#532,#533,#534,#535,#536,#537,#538,#539,#540,
#541,#542,#543,#544,#545,#546,#547,#548,#549,#550,#551,#552,#553,#554,#555,
#556,#557,#558,#559,#560,#561,#562,#563));
#565=DERIVED_UNIT_ELEMENT(#567,1.);
#566=DERIVED_UNIT_ELEMENT(#960,-3.);
#567=(
MASS_UNIT()
NAMED_UNIT(*)
SI_UNIT(.KILO.,.GRAM.)
);
#568=DERIVED_UNIT((#565,#566));
#569=MEASURE_REPRESENTATION_ITEM('density measure',
POSITIVE_RATIO_MEASURE(4000.),#568);
#570=PROPERTY_DEFINITION_REPRESENTATION(#575,#572);
#571=PROPERTY_DEFINITION_REPRESENTATION(#576,#573);
#572=REPRESENTATION('material name',(#574),#957);
#573=REPRESENTATION('density',(#569),#957);
#574=DESCRIPTIVE_REPRESENTATION_ITEM('Steel','Steel');
#575=PROPERTY_DEFINITION('material property','material name',#972);
#576=PROPERTY_DEFINITION('material property','density of part',#972);
#577=AXIS2_PLACEMENT_3D('',#796,#632,#633);
#578=AXIS2_PLACEMENT_3D('',#797,#634,#635);
#579=AXIS2_PLACEMENT_3D('',#798,#636,#637);
#580=AXIS2_PLACEMENT_3D('',#807,#642,#643);
#581=AXIS2_PLACEMENT_3D('',#809,#644,#645);
#582=AXIS2_PLACEMENT_3D('',#811,#646,#647);
#583=AXIS2_PLACEMENT_3D('',#813,#648,#649);
#584=AXIS2_PLACEMENT_3D('',#814,#650,#651);
#585=AXIS2_PLACEMENT_3D('',#815,#652,#653);
#586=AXIS2_PLACEMENT_3D('',#818,#655,#656);
#587=AXIS2_PLACEMENT_3D('',#819,#657,#658);
#588=AXIS2_PLACEMENT_3D('',#821,#659,#660);
#589=AXIS2_PLACEMENT_3D('',#822,#661,#662);
#590=AXIS2_PLACEMENT_3D('',#824,#663,#664);
#591=AXIS2_PLACEMENT_3D('',#826,#666,#667);
#592=AXIS2_PLACEMENT_3D('',#827,#668,#669);
#593=AXIS2_PLACEMENT_3D('',#836,#674,#675);
#594=AXIS2_PLACEMENT_3D('',#842,#679,#680);
#595=AXIS2_PLACEMENT_3D('',#848,#684,#685);
#596=AXIS2_PLACEMENT_3D('',#851,#688,#689);
#597=AXIS2_PLACEMENT_3D('',#852,#690,#691);
#598=AXIS2_PLACEMENT_3D('',#861,#696,#697);
#599=AXIS2_PLACEMENT_3D('',#867,#701,#702);
#600=AXIS2_PLACEMENT_3D('',#873,#706,#707);
#601=AXIS2_PLACEMENT_3D('',#876,#710,#711);
#602=AXIS2_PLACEMENT_3D('',#877,#712,#713);
#603=AXIS2_PLACEMENT_3D('',#879,#714,#715);
#604=AXIS2_PLACEMENT_3D('',#881,#716,#717);
#605=AXIS2_PLACEMENT_3D('',#884,#719,#720);
#606=AXIS2_PLACEMENT_3D('',#885,#721,#722);
#607=AXIS2_PLACEMENT_3D('',#888,#723,#724);
#608=AXIS2_PLACEMENT_3D('',#891,#726,#727);
#609=AXIS2_PLACEMENT_3D('',#892,#728,#729);
#610=AXIS2_PLACEMENT_3D('',#893,#730,#731);
#611=AXIS2_PLACEMENT_3D('',#895,#733,#734);
#612=AXIS2_PLACEMENT_3D('',#897,#736,#737);
#613=AXIS2_PLACEMENT_3D('',#903,#741,#742);
#614=AXIS2_PLACEMENT_3D('',#909,#746,#747);
#615=AXIS2_PLACEMENT_3D('',#919,#752,#753);
#616=AXIS2_PLACEMENT_3D('',#920,#754,#755);
#617=AXIS2_PLACEMENT_3D('',#923,#758,#759);
#618=AXIS2_PLACEMENT_3D('',#925,#761,#762);
#619=AXIS2_PLACEMENT_3D('',#927,#764,#765);
#620=AXIS2_PLACEMENT_3D('',#929,#766,#767);
#621=AXIS2_PLACEMENT_3D('',#931,#768,#769);
#622=AXIS2_PLACEMENT_3D('',#932,#770,#771);
#623=AXIS2_PLACEMENT_3D('',#934,#773,#774);
#624=AXIS2_PLACEMENT_3D('',#937,#775,#776);
#625=AXIS2_PLACEMENT_3D('',#941,#778,#779);
#626=AXIS2_PLACEMENT_3D('',#944,#781,#782);
#627=AXIS2_PLACEMENT_3D('',#946,#784,#785);
#628=AXIS2_PLACEMENT_3D('',#948,#787,#788);
#629=AXIS2_PLACEMENT_3D('',#950,#790,#791);
#630=AXIS2_PLACEMENT_3D('',#951,#792,#793);
#631=AXIS2_PLACEMENT_3D('',#952,#794,#795);
#632=DIRECTION('axis',(0.,0.,1.));
#633=DIRECTION('refdir',(1.,0.,0.));
#634=DIRECTION('axis',(0.,0.,1.));
#635=DIRECTION('refdir',(1.,0.,0.));
#636=DIRECTION('center_axis',(1.,0.,0.));
#637=DIRECTION('ref_axis',(0.,1.,0.));
#638=DIRECTION('',(0.,-1.,0.));
#639=DIRECTION('',(0.,0.,1.));
#640=DIRECTION('',(0.,-1.,0.));
#641=DIRECTION('',(0.,0.,-1.));
#642=DIRECTION('center_axis',(0.,0.,1.));
#643=DIRECTION('ref_axis',(1.,0.,0.));
#644=DIRECTION('center_axis',(0.,0.,-1.));
#645=DIRECTION('ref_axis',(-1.,0.,0.));
#646=DIRECTION('center_axis',(0.,-1.,0.));
#647=DIRECTION('ref_axis',(-1.,0.,0.));
#648=DIRECTION('center_axis',(0.,0.,1.));
#649=DIRECTION('ref_axis',(-1.,0.,0.));
#650=DIRECTION('center_axis',(0.,0.,1.));
#651=DIRECTION('ref_axis',(-1.,0.,0.));
#652=DIRECTION('center_axis',(0.,0.,1.));
#653=DIRECTION('ref_axis',(-1.,0.,0.));
#654=DIRECTION('',(0.,0.,-1.));
#655=DIRECTION('center_axis',(0.,0.,-1.));
#656=DIRECTION('ref_axis',(-1.,0.,0.));
#657=DIRECTION('center_axis',(0.,0.,1.));
#658=DIRECTION('ref_axis',(-1.,0.,0.));
#659=DIRECTION('center_axis',(0.,0.,1.));
#660=DIRECTION('ref_axis',(-1.,0.,0.));
#661=DIRECTION('center_axis',(0.,0.,1.));
#662=DIRECTION('ref_axis',(-1.,0.,0.));
#663=DIRECTION('center_axis',(0.,0.,1.));
#664=DIRECTION('ref_axis',(-1.,0.,0.));
#665=DIRECTION('',(0.,0.,-1.));
#666=DIRECTION('center_axis',(0.,0.,1.));
#667=DIRECTION('ref_axis',(-1.,0.,0.));
#668=DIRECTION('center_axis',(1.,0.,0.));
#669=DIRECTION('ref_axis',(0.,1.,0.));
#670=DIRECTION('',(0.,-1.,0.));
#671=DIRECTION('',(0.,0.,1.));
#672=DIRECTION('',(0.,1.,0.));
#673=DIRECTION('',(0.,0.,1.));
#674=DIRECTION('center_axis',(0.,-1.,0.));
#675=DIRECTION('ref_axis',(1.,0.,0.));
#676=DIRECTION('',(-1.,0.,0.));
#677=DIRECTION('',(1.,0.,0.));
#678=DIRECTION('',(0.,0.,1.));
#679=DIRECTION('center_axis',(-1.,0.,0.));
#680=DIRECTION('ref_axis',(0.,-1.,0.));
#681=DIRECTION('',(0.,1.,0.));
#682=DIRECTION('',(0.,-1.,0.));
#683=DIRECTION('',(0.,0.,1.));
#684=DIRECTION('center_axis',(0.,1.,0.));
#685=DIRECTION('ref_axis',(-1.,0.,0.));
#686=DIRECTION('',(1.,0.,0.));
#687=DIRECTION('',(-1.,0.,0.));
#688=DIRECTION('center_axis',(0.,0.,1.));
#689=DIRECTION('ref_axis',(1.,0.,0.));
#690=DIRECTION('center_axis',(1.,0.,0.));
#691=DIRECTION('ref_axis',(0.,1.,0.));
#692=DIRECTION('',(0.,-1.,0.));
#693=DIRECTION('',(0.,0.,1.));
#694=DIRECTION('',(0.,1.,0.));
#695=DIRECTION('',(0.,0.,1.));
#696=DIRECTION('center_axis',(0.,-1.,0.));
#697=DIRECTION('ref_axis',(1.,0.,0.));
#698=DIRECTION('',(-1.,0.,0.));
#699=DIRECTION('',(1.,0.,0.));
#700=DIRECTION('',(0.,0.,1.));
#701=DIRECTION('center_axis',(-1.,0.,0.));
#702=DIRECTION('ref_axis',(0.,-1.,0.));
#703=DIRECTION('',(0.,1.,0.));
#704=DIRECTION('',(0.,-1.,0.));
#705=DIRECTION('',(0.,0.,1.));
#706=DIRECTION('center_axis',(0.,1.,0.));
#707=DIRECTION('ref_axis',(-1.,0.,0.));
#708=DIRECTION('',(1.,0.,0.));
#709=DIRECTION('',(-1.,0.,0.));
#710=DIRECTION('center_axis',(0.,0.,1.));
#711=DIRECTION('ref_axis',(1.,0.,0.));
#712=DIRECTION('center_axis',(0.,0.,1.));
#713=DIRECTION('ref_axis',(-0.833333345750967,-0.552770779672279,0.));
#714=DIRECTION('center_axis',(0.,0.,-1.));
#715=DIRECTION('ref_axis',(-0.833333345750967,-0.552770779672279,0.));
#716=DIRECTION('center_axis',(0.,0.,1.));
#717=DIRECTION('ref_axis',(-0.833333345750967,-0.552770779672279,0.));
#718=DIRECTION('',(0.,0.,1.));
#719=DIRECTION('center_axis',(0.,0.,-1.));
#720=DIRECTION('ref_axis',(-0.833333345750967,-0.552770779672279,0.));
#721=DIRECTION('center_axis',(0.,0.,1.));
#722=DIRECTION('ref_axis',(0.833333320915698,0.552770817112855,0.));
#723=DIRECTION('center_axis',(0.,0.,-1.));
#724=DIRECTION('ref_axis',(0.833333320915698,0.552770817112855,0.));
#725=DIRECTION('',(0.,0.,-1.));
#726=DIRECTION('center_axis',(0.,0.,1.));
#727=DIRECTION('ref_axis',(0.833333320915698,0.552770817112855,0.));
#728=DIRECTION('center_axis',(0.,0.,-1.));
#729=DIRECTION('ref_axis',(0.833333320915698,0.552770817112855,0.));
#730=DIRECTION('center_axis',(0.,0.,1.));
#731=DIRECTION('ref_axis',(1.,0.,0.));
#732=DIRECTION('',(0.,1.,0.));
#733=DIRECTION('center_axis',(-1.,0.,0.));
#734=DIRECTION('ref_axis',(0.,-1.,0.));
#735=DIRECTION('',(0.,1.,0.));
#736=DIRECTION('center_axis',(0.,0.,1.));
#737=DIRECTION('ref_axis',(1.,0.,0.));
#738=DIRECTION('',(1.,0.,0.));
#739=DIRECTION('',(0.,1.,0.));
#740=DIRECTION('',(-1.,0.,0.));
#741=DIRECTION('center_axis',(0.,0.,1.));
#742=DIRECTION('ref_axis',(1.,0.,0.));
#743=DIRECTION('',(-1.,0.,0.));
#744=DIRECTION('',(0.,-1.,0.));
#745=DIRECTION('',(1.,0.,0.));
#746=DIRECTION('center_axis',(0.,0.,1.));
#747=DIRECTION('ref_axis',(1.,0.,0.));
#748=DIRECTION('',(0.,-1.,0.));
#749=DIRECTION('',(-1.,0.,0.));
#750=DIRECTION('',(0.,1.,0.));
#751=DIRECTION('',(1.,0.,0.));
#752=DIRECTION('center_axis',(0.,0.,1.));
#753=DIRECTION('ref_axis',(1.,0.,0.));
#754=DIRECTION('center_axis',(0.,-1.,0.));
#755=DIRECTION('ref_axis',(1.,0.,0.));
#756=DIRECTION('',(0.,0.,1.));
#757=DIRECTION('',(0.,0.,1.));
#758=DIRECTION('center_axis',(1.,0.,0.));
#759=DIRECTION('ref_axis',(0.,1.,0.));
#760=DIRECTION('',(0.,0.,1.));
#761=DIRECTION('center_axis',(0.,1.,0.));
#762=DIRECTION('ref_axis',(-1.,0.,0.));
#763=DIRECTION('',(0.,0.,1.));
#764=DIRECTION('center_axis',(0.,0.,1.));
#765=DIRECTION('ref_axis',(1.,0.,0.));
#766=DIRECTION('center_axis',(0.,0.,-1.));
#767=DIRECTION('ref_axis',(1.,0.,0.));
#768=DIRECTION('center_axis',(0.,0.,1.));
#769=DIRECTION('ref_axis',(1.,0.,0.));
#770=DIRECTION('center_axis',(0.,0.,-1.));
#771=DIRECTION('ref_axis',(1.,0.,0.));
#772=DIRECTION('',(0.,0.,1.));
#773=DIRECTION('center_axis',(0.,0.,-1.));
#774=DIRECTION('ref_axis',(1.,0.,0.));
#775=DIRECTION('center_axis',(0.,0.,-1.));
#776=DIRECTION('ref_axis',(1.,0.,0.));
#777=DIRECTION('',(0.,0.,-1.));
#778=DIRECTION('center_axis',(0.,0.,-1.));
#779=DIRECTION('ref_axis',(1.,0.,0.));
#780=DIRECTION('',(0.,0.,1.));
#781=DIRECTION('center_axis',(0.,0.,-1.));
#782=DIRECTION('ref_axis',(1.,0.,0.));
#783=DIRECTION('',(0.,0.,-1.));
#784=DIRECTION('center_axis',(0.,0.,1.));
#785=DIRECTION('ref_axis',(1.,0.,0.));
#786=DIRECTION('',(1.,0.,0.));
#787=DIRECTION('center_axis',(0.,0.,-1.));
#788=DIRECTION('ref_axis',(-1.,0.,0.));
#789=DIRECTION('',(-1.,0.,0.));
#790=DIRECTION('center_axis',(0.,-1.,0.));
#791=DIRECTION('ref_axis',(-1.,0.,0.));
#792=DIRECTION('center_axis',(-1.,0.,0.));
#793=DIRECTION('ref_axis',(0.,-1.,0.));
#794=DIRECTION('',(0.,0.,1.));
#795=DIRECTION('',(1.,0.,0.));
#796=CARTESIAN_POINT('',(0.,0.,0.));
#797=CARTESIAN_POINT('',(0.,0.,0.));
#798=CARTESIAN_POINT('Origin',(9.9,0.,0.));
#799=CARTESIAN_POINT('',(9.89999999999989,9.46265813347653,9.));
#800=CARTESIAN_POINT('',(9.89999999999989,2.5373420453374,9.));
#801=CARTESIAN_POINT('',(9.9,3.,9.));
#802=CARTESIAN_POINT('',(9.89999999999989,9.46265813347653,24.));
#803=CARTESIAN_POINT('',(9.9,9.46265813347614,9.));
#804=CARTESIAN_POINT('',(9.89999999999989,2.5373420453374,24.));
#805=CARTESIAN_POINT('',(9.9,3.00000004470348,24.));
#806=CARTESIAN_POINT('',(9.9,2.5373420453378,9.));
#807=CARTESIAN_POINT('Origin',(5.00000007450581,6.00000008940697,24.8));
#808=CARTESIAN_POINT('',(2.70000007450581,6.00000008940697,25.));
#809=CARTESIAN_POINT('Origin',(5.00000007450581,6.00000008940697,25.));
#810=CARTESIAN_POINT('',(2.50000007450581,6.00000008940697,24.8));
#811=CARTESIAN_POINT('Origin',(2.70000007450581,6.00000008940697,24.8));
#812=CARTESIAN_POINT('',(7.50000007450581,6.00000008940697,24.8));
#813=CARTESIAN_POINT('Origin',(5.00000007450581,6.00000008940697,24.8));
#814=CARTESIAN_POINT('Origin',(5.00000007450581,6.00000008940697,24.8));
#815=CARTESIAN_POINT('Origin',(5.00000007450581,6.00000008940697,24.));
#816=CARTESIAN_POINT('',(7.50000007450581,6.00000008940697,24.));
#817=CARTESIAN_POINT('',(7.50000007450581,6.00000008940697,24.));
#818=CARTESIAN_POINT('Origin',(5.00000007450581,6.00000008940697,24.));
#819=CARTESIAN_POINT('Origin',(5.00000007450581,6.00000008940697,25.));
#820=CARTESIAN_POINT('',(5.50000007450581,6.00000008940697,25.));
#821=CARTESIAN_POINT('Origin',(5.00000007450581,6.00000008940697,25.));
#822=CARTESIAN_POINT('Origin',(5.00000007450581,6.00000008940697,24.));
#823=CARTESIAN_POINT('',(5.50000007450581,6.00000008940697,29.2));
#824=CARTESIAN_POINT('Origin',(5.00000007450581,6.00000008940697,29.2));
#825=CARTESIAN_POINT('',(5.50000007450581,6.00000008940697,24.));
#826=CARTESIAN_POINT('Origin',(5.00000007450581,6.00000008940697,29.2));
#827=CARTESIAN_POINT('Origin',(5.50000007450581,2.11250008940697,24.));
#828=CARTESIAN_POINT('',(5.50000007450581,2.28750008940697,24.));
#829=CARTESIAN_POINT('',(5.50000007450581,2.11250008940697,24.));
#830=CARTESIAN_POINT('',(5.50000007450581,4.05625008940697,24.));
#831=CARTESIAN_POINT('',(5.50000007450581,2.28750008940697,25.8));
#832=CARTESIAN_POINT('',(5.50000007450581,2.28750008940697,24.));
#833=CARTESIAN_POINT('',(5.50000007450581,2.11250008940697,25.8));
#834=CARTESIAN_POINT('',(5.50000007450581,2.28750008940697,25.8));
#835=CARTESIAN_POINT('',(5.50000007450581,2.11250008940697,24.));
#836=CARTESIAN_POINT('Origin',(4.50000007450581,2.11250008940697,24.));
#837=CARTESIAN_POINT('',(4.50000007450581,2.11250008940697,24.));
#838=CARTESIAN_POINT('',(4.7500000372529,2.11250008940697,24.));
#839=CARTESIAN_POINT('',(4.50000007450581,2.11250008940697,25.8));
#840=CARTESIAN_POINT('',(5.50000007450581,2.11250008940697,25.8));
#841=CARTESIAN_POINT('',(4.50000007450581,2.11250008940697,24.));
#842=CARTESIAN_POINT('Origin',(4.50000007450581,2.28750008940697,24.));
#843=CARTESIAN_POINT('',(4.50000007450581,2.28750008940697,24.));
#844=CARTESIAN_POINT('',(4.50000007450581,4.14375008940697,24.));
#845=CARTESIAN_POINT('',(4.50000007450581,2.28750008940697,25.8));
#846=CARTESIAN_POINT('',(4.50000007450581,2.11250008940697,25.8));
#847=CARTESIAN_POINT('',(4.50000007450581,2.28750008940697,24.));
#848=CARTESIAN_POINT('Origin',(5.50000007450581,2.28750008940697,24.));
#849=CARTESIAN_POINT('',(5.2500000372529,2.28750008940697,24.));
#850=CARTESIAN_POINT('',(4.50000007450581,2.28750008940697,25.8));
#851=CARTESIAN_POINT('Origin',(5.00000007450581,2.20000008940697,25.8));
#852=CARTESIAN_POINT('Origin',(5.50000007450581,9.71250008940697,24.));
#853=CARTESIAN_POINT('',(5.50000007450581,9.88750008940697,24.));
#854=CARTESIAN_POINT('',(5.50000007450581,9.71250008940697,24.));
#855=CARTESIAN_POINT('',(5.50000007450581,7.85625008940697,24.));
#856=CARTESIAN_POINT('',(5.50000007450581,9.88750008940697,25.8));
#857=CARTESIAN_POINT('',(5.50000007450581,9.88750008940697,24.));
#858=CARTESIAN_POINT('',(5.50000007450581,9.71250008940697,25.8));
#859=CARTESIAN_POINT('',(5.50000007450581,9.88750008940697,25.8));
#860=CARTESIAN_POINT('',(5.50000007450581,9.71250008940697,24.));
#861=CARTESIAN_POINT('Origin',(4.50000007450581,9.71250008940697,24.));
#862=CARTESIAN_POINT('',(4.50000007450581,9.71250008940697,24.));
#863=CARTESIAN_POINT('',(4.7500000372529,9.71250008940697,24.));
#864=CARTESIAN_POINT('',(4.50000007450581,9.71250008940697,25.8));
#865=CARTESIAN_POINT('',(5.50000007450581,9.71250008940697,25.8));
#866=CARTESIAN_POINT('',(4.50000007450581,9.71250008940697,24.));
#867=CARTESIAN_POINT('Origin',(4.50000007450581,9.88750008940697,24.));
#868=CARTESIAN_POINT('',(4.50000007450581,9.88750008940697,24.));
#869=CARTESIAN_POINT('',(4.50000007450581,7.94375008940697,24.));
#870=CARTESIAN_POINT('',(4.50000007450581,9.88750008940697,25.8));
#871=CARTESIAN_POINT('',(4.50000007450581,9.71250008940697,25.8));
#872=CARTESIAN_POINT('',(4.50000007450581,9.88750008940697,24.));
#873=CARTESIAN_POINT('Origin',(5.50000007450581,9.88750008940697,24.));
#874=CARTESIAN_POINT('',(5.2500000372529,9.88750008940697,24.));
#875=CARTESIAN_POINT('',(4.50000007450581,9.88750008940697,25.8));
#876=CARTESIAN_POINT('Origin',(5.00000007450581,9.80000008940697,25.8));
#877=CARTESIAN_POINT('Origin',(5.00000007450581,6.00000008940697,9.));
#878=CARTESIAN_POINT('',(5.00000007450581,0.,9.));
#879=CARTESIAN_POINT('Origin',(5.00000007450581,6.00000008940697,9.));
#880=CARTESIAN_POINT('',(0.10000000000011,2.53734225620343,24.));
#881=CARTESIAN_POINT('Origin',(5.00000007450581,6.00000008940697,24.));
#882=CARTESIAN_POINT('',(0.100000000000111,2.53734225620343,9.));
#883=CARTESIAN_POINT('',(0.1,2.53734225620382,9.));
#884=CARTESIAN_POINT('Origin',(5.00000007450581,6.00000008940697,9.));
#885=CARTESIAN_POINT('Origin',(5.00000007450581,6.00000008940697,9.));
#886=CARTESIAN_POINT('',(0.100000000000111,9.46265792261051,9.));
#887=CARTESIAN_POINT('',(5.00000007450581,12.,9.));
#888=CARTESIAN_POINT('Origin',(5.00000007450581,6.00000008940697,9.));
#889=CARTESIAN_POINT('',(0.100000000000111,9.46265792261051,24.));
#890=CARTESIAN_POINT('',(0.1,9.46265792261012,9.));
#891=CARTESIAN_POINT('Origin',(5.00000007450581,6.00000008940697,24.));
#892=CARTESIAN_POINT('Origin',(5.00000007450581,6.00000008940697,9.));
#893=CARTESIAN_POINT('Origin',(5.,6.00000008940697,24.));
#894=CARTESIAN_POINT('',(0.1,9.00000004470348,24.));
#895=CARTESIAN_POINT('Origin',(0.1,12.,0.));
#896=CARTESIAN_POINT('',(0.0999999999999998,9.,9.));
#897=CARTESIAN_POINT('Origin',(5.,6.,9.));
#898=CARTESIAN_POINT('',(10.,0.,9.));
#899=CARTESIAN_POINT('',(0.,0.,9.));
#900=CARTESIAN_POINT('',(10.,12.,9.));
#901=CARTESIAN_POINT('',(10.,3.00000002235174,9.));
#902=CARTESIAN_POINT('',(10.,12.,9.));
#903=CARTESIAN_POINT('Origin',(5.,6.,9.));
#904=CARTESIAN_POINT('',(0.,12.,9.));
#905=CARTESIAN_POINT('',(10.,12.,9.));
#906=CARTESIAN_POINT('',(0.,0.,9.));
#907=CARTESIAN_POINT('',(0.,12.,9.));
#908=CARTESIAN_POINT('',(0.,0.,9.));
#909=CARTESIAN_POINT('Origin',(5.,6.,0.));
#910=CARTESIAN_POINT('',(0.,12.,0.));
#911=CARTESIAN_POINT('',(0.,0.,0.));
#912=CARTESIAN_POINT('',(0.,12.,0.));
#913=CARTESIAN_POINT('',(10.,12.,0.));
#914=CARTESIAN_POINT('',(10.,12.,0.));
#915=CARTESIAN_POINT('',(10.,0.,0.));
#916=CARTESIAN_POINT('',(10.,0.,0.));
#917=CARTESIAN_POINT('',(0.,0.,0.));
#918=CARTESIAN_POINT('',(3.00000007450581,6.00000008940697,0.));
#919=CARTESIAN_POINT('Origin',(5.00000007450581,6.00000008940697,0.));
#920=CARTESIAN_POINT('Origin',(0.,0.,0.));
#921=CARTESIAN_POINT('',(10.,0.,0.));
#922=CARTESIAN_POINT('',(0.,0.,0.));
#923=CARTESIAN_POINT('Origin',(10.,0.,0.));
#924=CARTESIAN_POINT('',(10.,12.,0.));
#925=CARTESIAN_POINT('Origin',(10.,12.,0.));
#926=CARTESIAN_POINT('',(0.,12.,0.));
#927=CARTESIAN_POINT('Origin',(5.00000007450581,6.00000008940697,-0.7));
#928=CARTESIAN_POINT('',(3.00000007450581,6.00000008940697,-0.7));
#929=CARTESIAN_POINT('Origin',(5.00000007450581,6.00000008940697,-0.7));
#930=CARTESIAN_POINT('',(3.50000007450581,6.00000008940697,-0.7));
#931=CARTESIAN_POINT('Origin',(5.00000007450581,6.00000008940697,-0.7));
#932=CARTESIAN_POINT('Origin',(5.00000007450581,6.00000008940697,0.));
#933=CARTESIAN_POINT('',(3.00000007450581,6.00000008940697,0.));
#934=CARTESIAN_POINT('Origin',(5.00000007450581,6.00000008940697,-0.7));
#935=CARTESIAN_POINT('',(6.1180340632557,5.00000008940697,-1.8));
#936=CARTESIAN_POINT('',(3.88196608575591,5.00000008940697,-1.8));
#937=CARTESIAN_POINT('Origin',(5.00000007450581,6.00000008940697,-1.8));
#938=CARTESIAN_POINT('',(6.1180340632557,5.00000008940697,-12.8));
#939=CARTESIAN_POINT('',(6.1180340632557,5.00000008940697,-1.8));
#940=CARTESIAN_POINT('',(3.50000007450581,6.00000008940697,-12.8));
#941=CARTESIAN_POINT('Origin',(5.00000007450581,6.00000008940697,-12.8));
#942=CARTESIAN_POINT('',(3.50000007450581,6.00000008940697,-0.7));
#943=CARTESIAN_POINT('',(3.88196608575591,5.00000008940697,-12.8));
#944=CARTESIAN_POINT('Origin',(5.00000007450581,6.00000008940697,-12.8));
#945=CARTESIAN_POINT('',(3.88196608575591,5.00000008940697,-1.8));
#946=CARTESIAN_POINT('Origin',(5.00000007450581,6.00000008940697,-1.8));
#947=CARTESIAN_POINT('',(5.55901706888075,5.00000008940697,-1.8));
#948=CARTESIAN_POINT('Origin',(5.00000007450581,6.25000008940697,-12.8));
#949=CARTESIAN_POINT('',(5.55901706888075,5.00000008940697,-12.8));
#950=CARTESIAN_POINT('Origin',(6.1180340632557,5.00000008940697,-1.8));
#951=CARTESIAN_POINT('Origin',(0.,12.,0.));
#952=CARTESIAN_POINT('',(0.,0.,0.));
#953=UNCERTAINTY_MEASURE_WITH_UNIT(LENGTH_MEASURE(0.01),#959,
'DISTANCE_ACCURACY_VALUE',
'Maximum model space distance between geometric entities at asserted c
onnectivities');
#954=UNCERTAINTY_MEASURE_WITH_UNIT(LENGTH_MEASURE(0.01),#959,
'DISTANCE_ACCURACY_VALUE',
'Maximum model space distance between geometric entities at asserted c
onnectivities');
#955=UNCERTAINTY_MEASURE_WITH_UNIT(LENGTH_MEASURE(0.01),#959,
'DISTANCE_ACCURACY_VALUE',
'Maximum model space distance between geometric entities at asserted c
onnectivities');
#956=(
GEOMETRIC_REPRESENTATION_CONTEXT(3)
GLOBAL_UNCERTAINTY_ASSIGNED_CONTEXT((#953))
GLOBAL_UNIT_ASSIGNED_CONTEXT((#959,#961,#962))
REPRESENTATION_CONTEXT('','3D')
);
#957=(
GEOMETRIC_REPRESENTATION_CONTEXT(3)
GLOBAL_UNCERTAINTY_ASSIGNED_CONTEXT((#954))
GLOBAL_UNIT_ASSIGNED_CONTEXT((#959,#961,#962))
REPRESENTATION_CONTEXT('','3D')
);
#958=(
GEOMETRIC_REPRESENTATION_CONTEXT(3)
GLOBAL_UNCERTAINTY_ASSIGNED_CONTEXT((#955))
GLOBAL_UNIT_ASSIGNED_CONTEXT((#959,#961,#962))
REPRESENTATION_CONTEXT('','3D')
);
#959=(
LENGTH_UNIT()
NAMED_UNIT(*)
SI_UNIT(.MILLI.,.METRE.)
);
#960=(
LENGTH_UNIT()
NAMED_UNIT(*)
SI_UNIT($,.METRE.)
);
#961=(
NAMED_UNIT(*)
PLANE_ANGLE_UNIT()
SI_UNIT($,.RADIAN.)
);
#962=(
NAMED_UNIT(*)
SI_UNIT($,.STERADIAN.)
SOLID_ANGLE_UNIT()
);
#963=SHAPE_DEFINITION_REPRESENTATION(#965,#968);
#964=SHAPE_DEFINITION_REPRESENTATION(#966,#969);
#965=PRODUCT_DEFINITION_SHAPE('',$,#971);
#966=PRODUCT_DEFINITION_SHAPE('',$,#972);
#967=PRODUCT_DEFINITION_SHAPE($,$,#14);
#968=SHAPE_REPRESENTATION('',(#577,#631),#956);
#969=SHAPE_REPRESENTATION('',(#578),#957);
#970=PRODUCT_DEFINITION_CONTEXT('part definition',#978,'design');
#971=PRODUCT_DEFINITION('DC motor','DC motor v5',#973,#970);
#972=PRODUCT_DEFINITION('DC motor_1','DC motor',#974,#970);
#973=PRODUCT_DEFINITION_FORMATION('',$,#980);
#974=PRODUCT_DEFINITION_FORMATION('',$,#981);
#975=PRODUCT_RELATED_PRODUCT_CATEGORY('DC motor v5','DC motor v5',(#980));
#976=PRODUCT_RELATED_PRODUCT_CATEGORY('DC motor','DC motor',(#981));
#977=APPLICATION_PROTOCOL_DEFINITION('international standard',
'automotive_design',2009,#978);
#978=APPLICATION_CONTEXT(
'Core Data for Automotive Mechanical Design Process');
#979=PRODUCT_CONTEXT('part definition',#978,'mechanical');
#980=PRODUCT('DC motor','DC motor v5',$,(#979));
#981=PRODUCT('DC motor_1','DC motor',$,(#979));
#982=PRESENTATION_STYLE_ASSIGNMENT((#984));
#983=PRESENTATION_STYLE_ASSIGNMENT((#985));
#984=SURFACE_STYLE_USAGE(.BOTH.,#986);
#985=SURFACE_STYLE_USAGE(.BOTH.,#987);
#986=SURFACE_SIDE_STYLE('',(#988));
#987=SURFACE_SIDE_STYLE('',(#989));
#988=SURFACE_STYLE_FILL_AREA(#990);
#989=SURFACE_STYLE_FILL_AREA(#991);
#990=FILL_AREA_STYLE('Steel - Satin',(#992));
#991=FILL_AREA_STYLE('Brass - Matte',(#993));
#992=FILL_AREA_STYLE_COLOUR('Steel - Satin',#994);
#993=FILL_AREA_STYLE_COLOUR('Brass - Matte',#995);
#994=COLOUR_RGB('Steel - Satin',0.627450980392157,0.627450980392157,0.627450980392157);
#995=COLOUR_RGB('Brass - Matte',0.952941176470588,0.796078431372549,0.486274509803922);
ENDSEC;
END-ISO-10303-21;
