ISO-10303-21;
HEADER;
/* Generated by software containing ST-Developer
 * from STEP Tools, Inc. (www.steptools.com) 
 */

FILE_DESCRIPTION(
/* description */ (''),
/* implementation_level */ '2;1');

FILE_NAME(
/* name */ 'f7d9794a-1195-49d4-adee-e6ec35a1d2ef.stp',
/* time_stamp */ '2026-04-24T18:33:34Z',
/* author */ (''),
/* organization */ (''),
/* preprocessor_version */ 'ST-DEVELOPER v20.1',
/* originating_system */ 'Autodesk Translation Framework v15.8.0.0',
/* authorisation */ '');

FILE_SCHEMA (('AUTOMOTIVE_DESIGN { 1 0 10303 214 3 1 1 }'));
ENDSEC;

DATA;
#10=MECHANICAL_DESIGN_GEOMETRIC_PRESENTATION_REPRESENTATION('',(#20,#21),
#409);
#11=CONTEXT_DEPENDENT_OVER_RIDING_STYLED_ITEM('',(#434),#420,#21,(#15));
#12=MAPPED_ITEM('',#13,#273);
#13=REPRESENTATION_MAP(#273,#419);
#14=ITEM_DEFINED_TRANSFORMATION($,$,#257,#272);
#15=(
REPRESENTATION_RELATIONSHIP($,$,#420,#419)
REPRESENTATION_RELATIONSHIP_WITH_TRANSFORMATION(#14)
SHAPE_REPRESENTATION_RELATIONSHIP()
);
#16=CONTEXT_DEPENDENT_SHAPE_REPRESENTATION(#15,#418);
#17=NEXT_ASSEMBLY_USAGE_OCCURRENCE('IMU:1','IMU:1','IMU:1',#422,#423,
'IMU:1');
#18=SHAPE_REPRESENTATION_RELATIONSHIP('SRR','None',#420,#19);
#19=ADVANCED_BREP_SHAPE_REPRESENTATION('',(#22),#408);
#20=STYLED_ITEM('',(#434),#22);
#21=STYLED_ITEM('',(#435),#12);
#22=MANIFOLD_SOLID_BREP('Body1',#243);
#23=FACE_BOUND('',#59,.T.);
#24=FACE_BOUND('',#61,.T.);
#25=PLANE('',#261);
#26=PLANE('',#262);
#27=PLANE('',#263);
#28=PLANE('',#264);
#29=PLANE('',#265);
#30=PLANE('',#266);
#31=PLANE('',#267);
#32=PLANE('',#268);
#33=PLANE('',#269);
#34=PLANE('',#270);
#35=PLANE('',#271);
#36=FACE_OUTER_BOUND('',#48,.T.);
#37=FACE_OUTER_BOUND('',#49,.T.);
#38=FACE_OUTER_BOUND('',#50,.T.);
#39=FACE_OUTER_BOUND('',#51,.T.);
#40=FACE_OUTER_BOUND('',#52,.T.);
#41=FACE_OUTER_BOUND('',#53,.T.);
#42=FACE_OUTER_BOUND('',#54,.T.);
#43=FACE_OUTER_BOUND('',#55,.T.);
#44=FACE_OUTER_BOUND('',#56,.T.);
#45=FACE_OUTER_BOUND('',#57,.T.);
#46=FACE_OUTER_BOUND('',#58,.T.);
#47=FACE_OUTER_BOUND('',#60,.T.);
#48=EDGE_LOOP('',(#170,#171,#172,#173));
#49=EDGE_LOOP('',(#174,#175,#176,#177));
#50=EDGE_LOOP('',(#178,#179,#180,#181));
#51=EDGE_LOOP('',(#182,#183,#184,#185,#186));
#52=EDGE_LOOP('',(#187,#188,#189,#190));
#53=EDGE_LOOP('',(#191,#192,#193,#194,#195));
#54=EDGE_LOOP('',(#196,#197,#198,#199));
#55=EDGE_LOOP('',(#200,#201,#202,#203,#204,#205,#206,#207));
#56=EDGE_LOOP('',(#208,#209,#210,#211));
#57=EDGE_LOOP('',(#212,#213,#214,#215));
#58=EDGE_LOOP('',(#216,#217,#218,#219,#220,#221,#222,#223));
#59=EDGE_LOOP('',(#224));
#60=EDGE_LOOP('',(#225,#226,#227,#228));
#61=EDGE_LOOP('',(#229));
#62=LINE('',#344,#90);
#63=LINE('',#349,#91);
#64=LINE('',#351,#92);
#65=LINE('',#353,#93);
#66=LINE('',#354,#94);
#67=LINE('',#357,#95);
#68=LINE('',#359,#96);
#69=LINE('',#360,#97);
#70=LINE('',#363,#98);
#71=LINE('',#365,#99);
#72=LINE('',#366,#100);
#73=LINE('',#369,#101);
#74=LINE('',#370,#102);
#75=LINE('',#373,#103);
#76=LINE('',#374,#104);
#77=LINE('',#378,#105);
#78=LINE('',#380,#106);
#79=LINE('',#382,#107);
#80=LINE('',#383,#108);
#81=LINE('',#385,#109);
#82=LINE('',#387,#110);
#83=LINE('',#389,#111);
#84=LINE('',#390,#112);
#85=LINE('',#393,#113);
#86=LINE('',#395,#114);
#87=LINE('',#396,#115);
#88=LINE('',#398,#116);
#89=LINE('',#399,#117);
#90=VECTOR('',#282,1.5);
#91=VECTOR('',#287,10.);
#92=VECTOR('',#288,10.);
#93=VECTOR('',#289,10.);
#94=VECTOR('',#290,10.);
#95=VECTOR('',#293,10.);
#96=VECTOR('',#294,10.);
#97=VECTOR('',#295,10.);
#98=VECTOR('',#298,10.);
#99=VECTOR('',#299,10.);
#100=VECTOR('',#300,10.);
#101=VECTOR('',#303,10.);
#102=VECTOR('',#304,10.);
#103=VECTOR('',#307,10.);
#104=VECTOR('',#308,10.);
#105=VECTOR('',#311,10.);
#106=VECTOR('',#312,10.);
#107=VECTOR('',#313,10.);
#108=VECTOR('',#314,10.);
#109=VECTOR('',#317,10.);
#110=VECTOR('',#318,10.);
#111=VECTOR('',#319,10.);
#112=VECTOR('',#320,10.);
#113=VECTOR('',#323,10.);
#114=VECTOR('',#324,10.);
#115=VECTOR('',#325,10.);
#116=VECTOR('',#328,10.);
#117=VECTOR('',#329,10.);
#118=CIRCLE('',#259,1.5);
#119=CIRCLE('',#260,1.5);
#120=VERTEX_POINT('',#341);
#121=VERTEX_POINT('',#343);
#122=VERTEX_POINT('',#347);
#123=VERTEX_POINT('',#348);
#124=VERTEX_POINT('',#350);
#125=VERTEX_POINT('',#352);
#126=VERTEX_POINT('',#356);
#127=VERTEX_POINT('',#358);
#128=VERTEX_POINT('',#362);
#129=VERTEX_POINT('',#364);
#130=VERTEX_POINT('',#368);
#131=VERTEX_POINT('',#372);
#132=VERTEX_POINT('',#376);
#133=VERTEX_POINT('',#377);
#134=VERTEX_POINT('',#379);
#135=VERTEX_POINT('',#381);
#136=VERTEX_POINT('',#386);
#137=VERTEX_POINT('',#388);
#138=VERTEX_POINT('',#392);
#139=VERTEX_POINT('',#394);
#140=EDGE_CURVE('',#120,#120,#118,.T.);
#141=EDGE_CURVE('',#120,#121,#62,.T.);
#142=EDGE_CURVE('',#121,#121,#119,.T.);
#143=EDGE_CURVE('',#122,#123,#63,.T.);
#144=EDGE_CURVE('',#123,#124,#64,.T.);
#145=EDGE_CURVE('',#124,#125,#65,.T.);
#146=EDGE_CURVE('',#125,#122,#66,.T.);
#147=EDGE_CURVE('',#126,#125,#67,.T.);
#148=EDGE_CURVE('',#126,#127,#68,.T.);
#149=EDGE_CURVE('',#127,#122,#69,.F.);
#150=EDGE_CURVE('',#128,#124,#70,.T.);
#151=EDGE_CURVE('',#129,#128,#71,.T.);
#152=EDGE_CURVE('',#126,#129,#72,.T.);
#153=EDGE_CURVE('',#123,#130,#73,.T.);
#154=EDGE_CURVE('',#128,#130,#74,.T.);
#155=EDGE_CURVE('',#131,#127,#75,.T.);
#156=EDGE_CURVE('',#130,#131,#76,.T.);
#157=EDGE_CURVE('',#132,#133,#77,.T.);
#158=EDGE_CURVE('',#134,#132,#78,.T.);
#159=EDGE_CURVE('',#135,#134,#79,.T.);
#160=EDGE_CURVE('',#135,#133,#80,.T.);
#161=EDGE_CURVE('',#129,#133,#81,.T.);
#162=EDGE_CURVE('',#136,#135,#82,.T.);
#163=EDGE_CURVE('',#136,#137,#83,.T.);
#164=EDGE_CURVE('',#137,#131,#84,.T.);
#165=EDGE_CURVE('',#134,#138,#85,.T.);
#166=EDGE_CURVE('',#139,#132,#86,.T.);
#167=EDGE_CURVE('',#138,#139,#87,.T.);
#168=EDGE_CURVE('',#137,#139,#88,.T.);
#169=EDGE_CURVE('',#138,#136,#89,.T.);
#170=ORIENTED_EDGE('',*,*,#140,.F.);
#171=ORIENTED_EDGE('',*,*,#141,.T.);
#172=ORIENTED_EDGE('',*,*,#142,.F.);
#173=ORIENTED_EDGE('',*,*,#141,.F.);
#174=ORIENTED_EDGE('',*,*,#143,.T.);
#175=ORIENTED_EDGE('',*,*,#144,.T.);
#176=ORIENTED_EDGE('',*,*,#145,.T.);
#177=ORIENTED_EDGE('',*,*,#146,.T.);
#178=ORIENTED_EDGE('',*,*,#146,.F.);
#179=ORIENTED_EDGE('',*,*,#147,.F.);
#180=ORIENTED_EDGE('',*,*,#148,.T.);
#181=ORIENTED_EDGE('',*,*,#149,.T.);
#182=ORIENTED_EDGE('',*,*,#145,.F.);
#183=ORIENTED_EDGE('',*,*,#150,.F.);
#184=ORIENTED_EDGE('',*,*,#151,.F.);
#185=ORIENTED_EDGE('',*,*,#152,.F.);
#186=ORIENTED_EDGE('',*,*,#147,.T.);
#187=ORIENTED_EDGE('',*,*,#144,.F.);
#188=ORIENTED_EDGE('',*,*,#153,.T.);
#189=ORIENTED_EDGE('',*,*,#154,.F.);
#190=ORIENTED_EDGE('',*,*,#150,.T.);
#191=ORIENTED_EDGE('',*,*,#143,.F.);
#192=ORIENTED_EDGE('',*,*,#149,.F.);
#193=ORIENTED_EDGE('',*,*,#155,.F.);
#194=ORIENTED_EDGE('',*,*,#156,.F.);
#195=ORIENTED_EDGE('',*,*,#153,.F.);
#196=ORIENTED_EDGE('',*,*,#157,.F.);
#197=ORIENTED_EDGE('',*,*,#158,.F.);
#198=ORIENTED_EDGE('',*,*,#159,.F.);
#199=ORIENTED_EDGE('',*,*,#160,.T.);
#200=ORIENTED_EDGE('',*,*,#152,.T.);
#201=ORIENTED_EDGE('',*,*,#161,.T.);
#202=ORIENTED_EDGE('',*,*,#160,.F.);
#203=ORIENTED_EDGE('',*,*,#162,.F.);
#204=ORIENTED_EDGE('',*,*,#163,.T.);
#205=ORIENTED_EDGE('',*,*,#164,.T.);
#206=ORIENTED_EDGE('',*,*,#155,.T.);
#207=ORIENTED_EDGE('',*,*,#148,.F.);
#208=ORIENTED_EDGE('',*,*,#165,.F.);
#209=ORIENTED_EDGE('',*,*,#158,.T.);
#210=ORIENTED_EDGE('',*,*,#166,.F.);
#211=ORIENTED_EDGE('',*,*,#167,.F.);
#212=ORIENTED_EDGE('',*,*,#168,.F.);
#213=ORIENTED_EDGE('',*,*,#163,.F.);
#214=ORIENTED_EDGE('',*,*,#169,.F.);
#215=ORIENTED_EDGE('',*,*,#167,.T.);
#216=ORIENTED_EDGE('',*,*,#156,.T.);
#217=ORIENTED_EDGE('',*,*,#164,.F.);
#218=ORIENTED_EDGE('',*,*,#168,.T.);
#219=ORIENTED_EDGE('',*,*,#166,.T.);
#220=ORIENTED_EDGE('',*,*,#157,.T.);
#221=ORIENTED_EDGE('',*,*,#161,.F.);
#222=ORIENTED_EDGE('',*,*,#151,.T.);
#223=ORIENTED_EDGE('',*,*,#154,.T.);
#224=ORIENTED_EDGE('',*,*,#140,.T.);
#225=ORIENTED_EDGE('',*,*,#162,.T.);
#226=ORIENTED_EDGE('',*,*,#159,.T.);
#227=ORIENTED_EDGE('',*,*,#165,.T.);
#228=ORIENTED_EDGE('',*,*,#169,.T.);
#229=ORIENTED_EDGE('',*,*,#142,.T.);
#230=CYLINDRICAL_SURFACE('',#258,1.5);
#231=ADVANCED_FACE('',(#36),#230,.F.);
#232=ADVANCED_FACE('',(#37),#25,.T.);
#233=ADVANCED_FACE('',(#38),#26,.T.);
#234=ADVANCED_FACE('',(#39),#27,.F.);
#235=ADVANCED_FACE('',(#40),#28,.T.);
#236=ADVANCED_FACE('',(#41),#29,.F.);
#237=ADVANCED_FACE('',(#42),#30,.T.);
#238=ADVANCED_FACE('',(#43),#31,.T.);
#239=ADVANCED_FACE('',(#44),#32,.T.);
#240=ADVANCED_FACE('',(#45),#33,.T.);
#241=ADVANCED_FACE('',(#46,#23),#34,.T.);
#242=ADVANCED_FACE('',(#47,#24),#35,.F.);
#243=CLOSED_SHELL('',(#231,#232,#233,#234,#235,#236,#237,#238,#239,#240,
#241,#242));
#244=DERIVED_UNIT_ELEMENT(#246,1.);
#245=DERIVED_UNIT_ELEMENT(#411,-3.);
#246=(
MASS_UNIT()
NAMED_UNIT(*)
SI_UNIT(.KILO.,.GRAM.)
);
#247=DERIVED_UNIT((#244,#245));
#248=MEASURE_REPRESENTATION_ITEM('density measure',
POSITIVE_RATIO_MEASURE(7850.),#247);
#249=PROPERTY_DEFINITION_REPRESENTATION(#254,#251);
#250=PROPERTY_DEFINITION_REPRESENTATION(#255,#252);
#251=REPRESENTATION('material name',(#253),#408);
#252=REPRESENTATION('density',(#248),#408);
#253=DESCRIPTIVE_REPRESENTATION_ITEM('Steel','Steel');
#254=PROPERTY_DEFINITION('material property','material name',#423);
#255=PROPERTY_DEFINITION('material property','density of part',#423);
#256=AXIS2_PLACEMENT_3D('',#338,#274,#275);
#257=AXIS2_PLACEMENT_3D('',#339,#276,#277);
#258=AXIS2_PLACEMENT_3D('',#340,#278,#279);
#259=AXIS2_PLACEMENT_3D('',#342,#280,#281);
#260=AXIS2_PLACEMENT_3D('',#345,#283,#284);
#261=AXIS2_PLACEMENT_3D('',#346,#285,#286);
#262=AXIS2_PLACEMENT_3D('',#355,#291,#292);
#263=AXIS2_PLACEMENT_3D('',#361,#296,#297);
#264=AXIS2_PLACEMENT_3D('',#367,#301,#302);
#265=AXIS2_PLACEMENT_3D('',#371,#305,#306);
#266=AXIS2_PLACEMENT_3D('',#375,#309,#310);
#267=AXIS2_PLACEMENT_3D('',#384,#315,#316);
#268=AXIS2_PLACEMENT_3D('',#391,#321,#322);
#269=AXIS2_PLACEMENT_3D('',#397,#326,#327);
#270=AXIS2_PLACEMENT_3D('',#400,#330,#331);
#271=AXIS2_PLACEMENT_3D('',#401,#332,#333);
#272=AXIS2_PLACEMENT_3D('',#402,#334,#335);
#273=AXIS2_PLACEMENT_3D('',#403,#336,#337);
#274=DIRECTION('axis',(0.,0.,1.));
#275=DIRECTION('refdir',(1.,0.,0.));
#276=DIRECTION('axis',(0.,0.,1.));
#277=DIRECTION('refdir',(1.,0.,0.));
#278=DIRECTION('center_axis',(0.,0.,-1.));
#279=DIRECTION('ref_axis',(-1.,0.,0.));
#280=DIRECTION('center_axis',(0.,0.,-1.));
#281=DIRECTION('ref_axis',(-1.,0.,0.));
#282=DIRECTION('',(0.,0.,-1.));
#283=DIRECTION('center_axis',(0.,0.,1.));
#284=DIRECTION('ref_axis',(-1.,0.,0.));
#285=DIRECTION('center_axis',(0.,0.707106781186548,0.707106781186548));
#286=DIRECTION('ref_axis',(1.,0.,0.));
#287=DIRECTION('',(0.,0.707106781186548,-0.707106781186548));
#288=DIRECTION('',(-1.,0.,0.));
#289=DIRECTION('',(0.,-0.707106781186548,0.707106781186548));
#290=DIRECTION('',(1.,0.,0.));
#291=DIRECTION('center_axis',(0.,0.,1.));
#292=DIRECTION('ref_axis',(1.,0.,0.));
#293=DIRECTION('',(0.,1.,0.));
#294=DIRECTION('',(1.,0.,0.));
#295=DIRECTION('',(0.,-1.,0.));
#296=DIRECTION('center_axis',(1.,0.,0.));
#297=DIRECTION('ref_axis',(0.,1.,0.));
#298=DIRECTION('',(0.,0.,1.));
#299=DIRECTION('',(0.,1.,0.));
#300=DIRECTION('',(0.,0.,-1.));
#301=DIRECTION('center_axis',(0.,1.,0.));
#302=DIRECTION('ref_axis',(0.,0.,1.));
#303=DIRECTION('',(0.,0.,-1.));
#304=DIRECTION('',(1.,0.,0.));
#305=DIRECTION('center_axis',(-1.,0.,0.));
#306=DIRECTION('ref_axis',(0.,-1.,0.));
#307=DIRECTION('',(0.,0.,1.));
#308=DIRECTION('',(0.,-1.,0.));
#309=DIRECTION('center_axis',(-1.,0.,0.));
#310=DIRECTION('ref_axis',(0.,-1.,0.));
#311=DIRECTION('',(0.,-1.,0.));
#312=DIRECTION('',(0.,0.,1.));
#313=DIRECTION('',(0.,1.,0.));
#314=DIRECTION('',(0.,0.,1.));
#315=DIRECTION('center_axis',(0.,-1.,0.));
#316=DIRECTION('ref_axis',(1.,0.,0.));
#317=DIRECTION('',(-1.,0.,0.));
#318=DIRECTION('',(-1.,0.,0.));
#319=DIRECTION('',(0.,0.,1.));
#320=DIRECTION('',(-1.,0.,0.));
#321=DIRECTION('center_axis',(0.,1.,0.));
#322=DIRECTION('ref_axis',(-1.,0.,0.));
#323=DIRECTION('',(1.,0.,0.));
#324=DIRECTION('',(-1.,0.,0.));
#325=DIRECTION('',(0.,0.,1.));
#326=DIRECTION('center_axis',(1.,0.,0.));
#327=DIRECTION('ref_axis',(0.,1.,0.));
#328=DIRECTION('',(0.,1.,0.));
#329=DIRECTION('',(0.,-1.,0.));
#330=DIRECTION('center_axis',(0.,0.,1.));
#331=DIRECTION('ref_axis',(1.,0.,0.));
#332=DIRECTION('center_axis',(0.,0.,1.));
#333=DIRECTION('ref_axis',(1.,0.,0.));
#334=DIRECTION('',(0.,0.,1.));
#335=DIRECTION('',(1.,0.,0.));
#336=DIRECTION('center_axis',(0.,0.,1.));
#337=DIRECTION('ref_axis',(1.,0.,0.));
#338=CARTESIAN_POINT('',(0.,0.,0.));
#339=CARTESIAN_POINT('',(0.,0.,0.));
#340=CARTESIAN_POINT('Origin',(0.0356573765073663,6.5854229227494,2.));
#341=CARTESIAN_POINT('',(1.53565737650737,6.5854229227494,2.));
#342=CARTESIAN_POINT('Origin',(0.0356573765073663,6.5854229227494,2.));
#343=CARTESIAN_POINT('',(1.53565737650737,6.5854229227494,0.));
#344=CARTESIAN_POINT('',(1.53565737650737,6.5854229227494,2.));
#345=CARTESIAN_POINT('Origin',(0.0356573765073663,6.5854229227494,0.));
#346=CARTESIAN_POINT('Origin',(1.9125,-5.7151359418806,4.25));
#347=CARTESIAN_POINT('',(3.00651925687945,-6.46513594188059,5.));
#348=CARTESIAN_POINT('',(3.00651925687945,-4.96513594188059,3.5));
#349=CARTESIAN_POINT('',(3.00651925687945,-5.21513594188059,3.75));
#350=CARTESIAN_POINT('',(-3.00651925687945,-4.96513594188059,3.5));
#351=CARTESIAN_POINT('',(1.9125,-4.96513594188059,3.5));
#352=CARTESIAN_POINT('',(-3.00651925687945,-6.46513594188059,5.));
#353=CARTESIAN_POINT('',(-3.00651925687945,-6.09885195641044,4.63371601452985));
#354=CARTESIAN_POINT('',(1.9125,-6.46513594188059,5.));
#355=CARTESIAN_POINT('Origin',(0.,-7.7325679709403,5.));
#356=CARTESIAN_POINT('',(-3.00651925687945,-9.5,5.));
#357=CARTESIAN_POINT('',(-3.00651925687945,-8.61628398547015,5.));
#358=CARTESIAN_POINT('',(3.00651925687945,-9.5,5.));
#359=CARTESIAN_POINT('',(-1.9125,-9.5,5.));
#360=CARTESIAN_POINT('',(3.00651925687945,-6.84885195641045,5.));
#361=CARTESIAN_POINT('Origin',(-3.00651925687945,-9.5,2.));
#362=CARTESIAN_POINT('',(-3.00651925687945,-4.96513594188059,2.));
#363=CARTESIAN_POINT('',(-3.00651925687945,-4.96513594188059,2.));
#364=CARTESIAN_POINT('',(-3.00651925687945,-9.5,2.));
#365=CARTESIAN_POINT('',(-3.00651925687945,-2.9825679709403,2.));
#366=CARTESIAN_POINT('',(-3.00651925687945,-9.5,1.));
#367=CARTESIAN_POINT('Origin',(3.825,-4.96513594188059,2.));
#368=CARTESIAN_POINT('',(3.00651925687945,-4.96513594188059,2.));
#369=CARTESIAN_POINT('',(3.00651925687945,-4.96513594188059,2.));
#370=CARTESIAN_POINT('',(1.9125,-4.96513594188059,2.));
#371=CARTESIAN_POINT('Origin',(3.00651925687945,-5.96513594188059,2.));
#372=CARTESIAN_POINT('',(3.00651925687945,-9.5,2.));
#373=CARTESIAN_POINT('',(3.00651925687945,-9.5,1.));
#374=CARTESIAN_POINT('',(3.00651925687945,-5.96513594188059,2.));
#375=CARTESIAN_POINT('Origin',(-3.825,9.5,0.));
#376=CARTESIAN_POINT('',(-3.825,9.5,2.));
#377=CARTESIAN_POINT('',(-3.825,-9.5,2.));
#378=CARTESIAN_POINT('',(-3.825,-9.5,2.));
#379=CARTESIAN_POINT('',(-3.825,9.5,0.));
#380=CARTESIAN_POINT('',(-3.825,9.5,0.));
#381=CARTESIAN_POINT('',(-3.825,-9.5,0.));
#382=CARTESIAN_POINT('',(-3.825,-9.5,0.));
#383=CARTESIAN_POINT('',(-3.825,-9.5,0.));
#384=CARTESIAN_POINT('Origin',(-3.825,-9.5,0.));
#385=CARTESIAN_POINT('',(-3.62037981421986,-9.5,2.));
#386=CARTESIAN_POINT('',(3.825,-9.5,0.));
#387=CARTESIAN_POINT('',(3.825,-9.5,0.));
#388=CARTESIAN_POINT('',(3.825,-9.5,2.));
#389=CARTESIAN_POINT('',(3.825,-9.5,0.));
#390=CARTESIAN_POINT('',(-0.204620185780137,-9.5,2.));
#391=CARTESIAN_POINT('Origin',(3.825,9.5,0.));
#392=CARTESIAN_POINT('',(3.825,9.5,0.));
#393=CARTESIAN_POINT('',(-3.825,9.5,0.));
#394=CARTESIAN_POINT('',(3.825,9.5,2.));
#395=CARTESIAN_POINT('',(-3.825,9.5,2.));
#396=CARTESIAN_POINT('',(3.825,9.5,0.));
#397=CARTESIAN_POINT('Origin',(3.825,-9.5,0.));
#398=CARTESIAN_POINT('',(3.825,9.5,2.));
#399=CARTESIAN_POINT('',(3.825,9.5,0.));
#400=CARTESIAN_POINT('Origin',(0.,0.,2.));
#401=CARTESIAN_POINT('Origin',(0.,0.,0.));
#402=CARTESIAN_POINT('',(0.,0.,0.));
#403=CARTESIAN_POINT('Origin',(0.,0.,0.));
#404=UNCERTAINTY_MEASURE_WITH_UNIT(LENGTH_MEASURE(0.01),#410,
'DISTANCE_ACCURACY_VALUE',
'Maximum model space distance between geometric entities at asserted c
onnectivities');
#405=UNCERTAINTY_MEASURE_WITH_UNIT(LENGTH_MEASURE(0.01),#410,
'DISTANCE_ACCURACY_VALUE',
'Maximum model space distance between geometric entities at asserted c
onnectivities');
#406=UNCERTAINTY_MEASURE_WITH_UNIT(LENGTH_MEASURE(0.01),#410,
'DISTANCE_ACCURACY_VALUE',
'Maximum model space distance between geometric entities at asserted c
onnectivities');
#407=(
GEOMETRIC_REPRESENTATION_CONTEXT(3)
GLOBAL_UNCERTAINTY_ASSIGNED_CONTEXT((#404))
GLOBAL_UNIT_ASSIGNED_CONTEXT((#410,#412,#413))
REPRESENTATION_CONTEXT('','3D')
);
#408=(
GEOMETRIC_REPRESENTATION_CONTEXT(3)
GLOBAL_UNCERTAINTY_ASSIGNED_CONTEXT((#405))
GLOBAL_UNIT_ASSIGNED_CONTEXT((#410,#412,#413))
REPRESENTATION_CONTEXT('','3D')
);
#409=(
GEOMETRIC_REPRESENTATION_CONTEXT(3)
GLOBAL_UNCERTAINTY_ASSIGNED_CONTEXT((#406))
GLOBAL_UNIT_ASSIGNED_CONTEXT((#410,#412,#413))
REPRESENTATION_CONTEXT('','3D')
);
#410=(
LENGTH_UNIT()
NAMED_UNIT(*)
SI_UNIT(.MILLI.,.METRE.)
);
#411=(
LENGTH_UNIT()
NAMED_UNIT(*)
SI_UNIT($,.METRE.)
);
#412=(
NAMED_UNIT(*)
PLANE_ANGLE_UNIT()
SI_UNIT($,.RADIAN.)
);
#413=(
NAMED_UNIT(*)
SI_UNIT($,.STERADIAN.)
SOLID_ANGLE_UNIT()
);
#414=SHAPE_DEFINITION_REPRESENTATION(#416,#419);
#415=SHAPE_DEFINITION_REPRESENTATION(#417,#420);
#416=PRODUCT_DEFINITION_SHAPE('',$,#422);
#417=PRODUCT_DEFINITION_SHAPE('',$,#423);
#418=PRODUCT_DEFINITION_SHAPE($,$,#17);
#419=SHAPE_REPRESENTATION('',(#256,#272),#407);
#420=SHAPE_REPRESENTATION('',(#257),#408);
#421=PRODUCT_DEFINITION_CONTEXT('part definition',#429,'design');
#422=PRODUCT_DEFINITION('IMU','IMU v2',#424,#421);
#423=PRODUCT_DEFINITION('IMU_1','IMU',#425,#421);
#424=PRODUCT_DEFINITION_FORMATION('',$,#431);
#425=PRODUCT_DEFINITION_FORMATION('',$,#432);
#426=PRODUCT_RELATED_PRODUCT_CATEGORY('IMU v2','IMU v2',(#431));
#427=PRODUCT_RELATED_PRODUCT_CATEGORY('IMU','IMU',(#432));
#428=APPLICATION_PROTOCOL_DEFINITION('international standard',
'automotive_design',2009,#429);
#429=APPLICATION_CONTEXT(
'Core Data for Automotive Mechanical Design Process');
#430=PRODUCT_CONTEXT('part definition',#429,'mechanical');
#431=PRODUCT('IMU','IMU v2',$,(#430));
#432=PRODUCT('IMU_1','IMU',$,(#430));
#433=PRESENTATION_STYLE_ASSIGNMENT((#436));
#434=PRESENTATION_STYLE_ASSIGNMENT((#437));
#435=PRESENTATION_STYLE_ASSIGNMENT((NULL_STYLE(.NULL.)));
#436=SURFACE_STYLE_USAGE(.BOTH.,#438);
#437=SURFACE_STYLE_USAGE(.BOTH.,#439);
#438=SURFACE_SIDE_STYLE('',(#440));
#439=SURFACE_SIDE_STYLE('',(#441));
#440=SURFACE_STYLE_FILL_AREA(#442);
#441=SURFACE_STYLE_FILL_AREA(#443);
#442=FILL_AREA_STYLE('Steel - Satin',(#444));
#443=FILL_AREA_STYLE('Paint - Metallic (Dark Grey)',(#445));
#444=FILL_AREA_STYLE_COLOUR('Steel - Satin',#446);
#445=FILL_AREA_STYLE_COLOUR('Paint - Metallic (Dark Grey)',#447);
#446=COLOUR_RGB('Steel - Satin',0.627450980392157,0.627450980392157,0.627450980392157);
#447=COLOUR_RGB('Paint - Metallic (Dark Grey)',0.349019607843137,0.349019607843137,
0.349019607843137);
ENDSEC;
END-ISO-10303-21;
