ISO-10303-21;
HEADER;
/* Generated by software containing ST-Developer
 * from STEP Tools, Inc. (www.steptools.com) 
 */

FILE_DESCRIPTION(
/* description */ (''),
/* implementation_level */ '2;1');

FILE_NAME(
/* name */ 'f48848c2-96f8-4456-bfeb-05bf0e7b8491.stp',
/* time_stamp */ '2026-04-24T18:33:29Z',
/* author */ (''),
/* organization */ (''),
/* preprocessor_version */ 'ST-DEVELOPER v20.1',
/* originating_system */ 'Autodesk Translation Framework v15.8.0.0',
/* authorisation */ '');

FILE_SCHEMA (('AUTOMOTIVE_DESIGN { 1 0 10303 214 3 1 1 }'));
ENDSEC;

DATA;
#10=MECHANICAL_DESIGN_GEOMETRIC_PRESENTATION_REPRESENTATION('',(#13),#1296);
#11=SHAPE_REPRESENTATION_RELATIONSHIP('SRR','None',#1303,#12);
#12=ADVANCED_BREP_SHAPE_REPRESENTATION('',(#14),#1295);
#13=STYLED_ITEM('',(#1314),#14);
#14=MANIFOLD_SOLID_BREP('Foot (1)',#570);
#15=CONICAL_SURFACE('',#643,7.79289332312158,0.785398163397448);
#16=B_SPLINE_SURFACE_WITH_KNOTS('',3,3,((#1028,#1029,#1030,#1031,#1032,
#1033,#1034,#1035,#1036,#1037,#1038,#1039,#1040,#1041,#1042,#1043,#1044),
(#1045,#1046,#1047,#1048,#1049,#1050,#1051,#1052,#1053,#1054,#1055,#1056,
#1057,#1058,#1059,#1060,#1061),(#1062,#1063,#1064,#1065,#1066,#1067,#1068,
#1069,#1070,#1071,#1072,#1073,#1074,#1075,#1076,#1077,#1078),(#1079,#1080,
#1081,#1082,#1083,#1084,#1085,#1086,#1087,#1088,#1089,#1090,#1091,#1092,
#1093,#1094,#1095),(#1096,#1097,#1098,#1099,#1100,#1101,#1102,#1103,#1104,
#1105,#1106,#1107,#1108,#1109,#1110,#1111,#1112),(#1113,#1114,#1115,#1116,
#1117,#1118,#1119,#1120,#1121,#1122,#1123,#1124,#1125,#1126,#1127,#1128,
#1129),(#1130,#1131,#1132,#1133,#1134,#1135,#1136,#1137,#1138,#1139,#1140,
#1141,#1142,#1143,#1144,#1145,#1146),(#1147,#1148,#1149,#1150,#1151,#1152,
#1153,#1154,#1155,#1156,#1157,#1158,#1159,#1160,#1161,#1162,#1163),(#1164,
#1165,#1166,#1167,#1168,#1169,#1170,#1171,#1172,#1173,#1174,#1175,#1176,
#1177,#1178,#1179,#1180),(#1181,#1182,#1183,#1184,#1185,#1186,#1187,#1188,
#1189,#1190,#1191,#1192,#1193,#1194,#1195,#1196,#1197)),.UNSPECIFIED.,.T.,
 .F.,.F.,(4,1,1,1,1,1,1,4),(4,1,1,1,1,1,1,1,1,1,1,1,1,1,4),(-3.14159265359254,
-2.24399475256649,-1.34639685154044,-0.448798950514394,0.448798950511655,
1.3463968515377,2.24399475256376,3.14159265358981),(1.99791565844853,2.4891617477265,
2.98040783700447,3.47165392628244,3.96290001556041,4.45414610483838,4.94539219411635,
5.60038697982031,5.92788437267229,6.25538176552427,6.91037655122823,7.4016226405062,
7.89286872978417,8.38411481906214,8.87536090834011),.UNSPECIFIED.);
#17=B_SPLINE_CURVE_WITH_KNOTS('',3,(#966,#967,#968,#969,#970,#971,#972,
#973,#974,#975,#976,#977,#978,#979,#980,#981,#982,#983,#984,#985,#986,#987,
#988,#989),.UNSPECIFIED.,.F.,.F.,(4,2,2,2,2,2,2,2,2,2,2,4),(0.114004413506246,
0.407951475288653,0.55706260973402,0.585432615584717,0.601864776123,0.613507507110434,
0.624770220274299,0.640195585875069,0.670489547483392,0.756786251384299,
1.03629576079835,1.43178012129566),.UNSPECIFIED.);
#18=B_SPLINE_CURVE_WITH_KNOTS('',3,(#993,#994,#995,#996,#997,#998,#999,
#1000,#1001,#1002,#1003,#1004,#1005,#1006,#1007,#1008,#1009,#1010,#1011,
#1012,#1013,#1014,#1015,#1016,#1017,#1018,#1019,#1020),.UNSPECIFIED.,.F.,
 .F.,(4,2,2,2,2,2,2,2,2,2,2,2,2,4),(0.11813900386375,0.159671996015157,
0.214910547502915,0.260685259388364,0.296226762314301,0.32646475078262,
0.356080201551649,0.390651747232285,0.435260163356551,0.490235346483687,
0.544912816384395,0.590117579001872,0.627312149992682,0.648952142316774),
 .UNSPECIFIED.);
#19=B_SPLINE_CURVE_WITH_KNOTS('',3,(#1021,#1022,#1023,#1024,#1025,#1026,
#1027),.UNSPECIFIED.,.F.,.F.,(4,3,4),(0.648952142316774,0.651154024928001,
0.65788909042622),.UNSPECIFIED.);
#20=B_SPLINE_CURVE_WITH_KNOTS('',3,(#1199,#1200,#1201,#1202,#1203,#1204,
#1205,#1206,#1207,#1208,#1209,#1210),.UNSPECIFIED.,.F.,.F.,(4,1,1,1,1,1,
1,1,1,4),(4.69961087705905,4.94539219411635,5.60038697982031,5.92788437267229,
6.25538176552427,6.91037655122823,7.4016226405062,7.89286872978417,8.38411481906214,
8.87535740279479),.UNSPECIFIED.);
#21=B_SPLINE_CURVE_WITH_KNOTS('',3,(#1211,#1212,#1213,#1214,#1215,#1216,
#1217,#1218,#1219,#1220,#1221,#1222,#1223,#1224,#1225,#1226,#1227,#1228,
#1229,#1230,#1231,#1232,#1233,#1234,#1235,#1236,#1237,#1238,#1239,#1240,
#1241,#1242,#1243,#1244,#1245,#1246,#1247,#1248,#1249,#1250,#1251,#1252,
#1253,#1254,#1255,#1256,#1257,#1258,#1259,#1260,#1261,#1262,#1263,#1264,
#1265,#1266,#1267,#1268,#1269,#1270,#1271,#1272,#1273,#1274,#1275,#1276,
#1277,#1278,#1279,#1280,#1281,#1282,#1283),.UNSPECIFIED.,.T.,.F.,(4,2,2,
2,2,2,2,2,2,2,2,2,2,2,2,2,2,2,2,2,2,2,2,2,2,2,2,2,2,2,3,2,2,2,2,4),(1.52145579422711,
1.7121262437282,2.04543363544157,2.10346785592003,2.11410381116993,2.12028515460701,
2.12503501342734,2.12991641292911,2.13723058109488,2.15224814778498,2.19489743785317,
2.39778100933044,2.6276706423858,2.87064496577252,3.10124026815094,3.32125870857677,
3.53331261428425,3.73773097453698,3.95809088846008,4.03222007145602,4.0497835375131,
4.05962789923026,4.0664565162605,4.07293088554381,4.08158525102631,4.09812719745744,
4.14710042483914,4.3234883688466,4.65371395441202,4.91092763514656,5.18838667610262,
5.53535625734384,5.88315436945745,6.22844233820789,6.56539983740678,6.70984247032973),
 .UNSPECIFIED.);
#22=SPHERICAL_SURFACE('',#634,13.0035745895642);
#23=CYLINDRICAL_SURFACE('',#588,6.3);
#24=CYLINDRICAL_SURFACE('',#594,6.3);
#25=CYLINDRICAL_SURFACE('',#599,6.3);
#26=CYLINDRICAL_SURFACE('',#614,10.0000001490116);
#27=CYLINDRICAL_SURFACE('',#621,10.0000001490116);
#28=CYLINDRICAL_SURFACE('',#641,1.50000002235174);
#29=CYLINDRICAL_SURFACE('',#642,3.50000005215406);
#30=LINE('',#820,#71);
#31=LINE('',#822,#72);
#32=LINE('',#824,#73);
#33=LINE('',#825,#74);
#34=LINE('',#831,#75);
#35=LINE('',#834,#76);
#36=LINE('',#841,#77);
#37=LINE('',#843,#78);
#38=LINE('',#844,#79);
#39=LINE('',#852,#80);
#40=LINE('',#854,#81);
#41=LINE('',#856,#82);
#42=LINE('',#857,#83);
#43=LINE('',#860,#84);
#44=LINE('',#862,#85);
#45=LINE('',#863,#86);
#46=LINE('',#868,#87);
#47=LINE('',#876,#88);
#48=LINE('',#878,#89);
#49=LINE('',#879,#90);
#50=LINE('',#881,#91);
#51=LINE('',#882,#92);
#52=LINE('',#887,#93);
#53=LINE('',#895,#94);
#54=LINE('',#897,#95);
#55=LINE('',#898,#96);
#56=LINE('',#900,#97);
#57=LINE('',#901,#98);
#58=LINE('',#907,#99);
#59=LINE('',#908,#100);
#60=LINE('',#923,#101);
#61=LINE('',#927,#102);
#62=LINE('',#931,#103);
#63=LINE('',#935,#104);
#64=LINE('',#940,#105);
#65=LINE('',#944,#106);
#66=LINE('',#949,#107);
#67=LINE('',#953,#108);
#68=LINE('',#1288,#109);
#69=LINE('',#1290,#110);
#70=LINE('',#1292,#111);
#71=VECTOR('',#654,10.);
#72=VECTOR('',#655,10.);
#73=VECTOR('',#656,10.);
#74=VECTOR('',#657,10.);
#75=VECTOR('',#662,10.);
#76=VECTOR('',#665,10.);
#77=VECTOR('',#668,10.);
#78=VECTOR('',#669,10.);
#79=VECTOR('',#670,10.);
#80=VECTOR('',#673,10.);
#81=VECTOR('',#674,10.);
#82=VECTOR('',#675,10.);
#83=VECTOR('',#676,10.);
#84=VECTOR('',#679,10.);
#85=VECTOR('',#680,10.);
#86=VECTOR('',#681,10.);
#87=VECTOR('',#686,10.);
#88=VECTOR('',#691,10.);
#89=VECTOR('',#692,10.);
#90=VECTOR('',#693,10.);
#91=VECTOR('',#696,10.);
#92=VECTOR('',#697,10.);
#93=VECTOR('',#702,10.);
#94=VECTOR('',#707,10.);
#95=VECTOR('',#708,10.);
#96=VECTOR('',#709,10.);
#97=VECTOR('',#712,10.);
#98=VECTOR('',#713,10.);
#99=VECTOR('',#716,10.);
#100=VECTOR('',#717,10.);
#101=VECTOR('',#738,10.);
#102=VECTOR('',#741,10.);
#103=VECTOR('',#746,10.);
#104=VECTOR('',#751,10.);
#105=VECTOR('',#756,10.);
#106=VECTOR('',#759,10.);
#107=VECTOR('',#766,10.);
#108=VECTOR('',#771,10.);
#109=VECTOR('',#800,1.50000002235174);
#110=VECTOR('',#803,3.50000005215406);
#111=VECTOR('',#806,8.50000010430813);
#112=(
BOUNDED_CURVE()
B_SPLINE_CURVE(2,(#816,#817,#818),.UNSPECIFIED.,.F.,.F.)
B_SPLINE_CURVE_WITH_KNOTS((3,3),(0.0383404233847099,0.142684272931013),
 .UNSPECIFIED.)
CURVE()
GEOMETRIC_REPRESENTATION_ITEM()
RATIONAL_B_SPLINE_CURVE((1.0013812491562,1.00257016634391,1.))
REPRESENTATION_ITEM('')
);
#113=(
BOUNDED_CURVE()
B_SPLINE_CURVE(2,(#837,#838,#839),.UNSPECIFIED.,.F.,.F.)
B_SPLINE_CURVE_WITH_KNOTS((3,3),(0.0964806937933504,0.112603085327368),
 .UNSPECIFIED.)
CURVE()
GEOMETRIC_REPRESENTATION_ITEM()
RATIONAL_B_SPLINE_CURVE((3.95487151503587,4.19840712679478,4.44082278053963))
REPRESENTATION_ITEM('')
);
#114=(
BOUNDED_CURVE()
B_SPLINE_CURVE(2,(#848,#849,#850),.UNSPECIFIED.,.F.,.F.)
B_SPLINE_CURVE_WITH_KNOTS((3,3),(0.0964806937933484,0.112603085327365),
 .UNSPECIFIED.)
CURVE()
GEOMETRIC_REPRESENTATION_ITEM()
RATIONAL_B_SPLINE_CURVE((3.95487151503606,4.19840712679498,4.44082278053984))
REPRESENTATION_ITEM('')
);
#115=(
BOUNDED_CURVE()
B_SPLINE_CURVE(2,(#872,#873,#874),.UNSPECIFIED.,.F.,.F.)
B_SPLINE_CURVE_WITH_KNOTS((3,3),(7.09200773192551,7.10813012345958),
 .UNSPECIFIED.)
CURVE()
GEOMETRIC_REPRESENTATION_ITEM()
RATIONAL_B_SPLINE_CURVE((4.44082278054164,4.19840712679601,3.95487151503632))
REPRESENTATION_ITEM('')
);
#116=(
BOUNDED_CURVE()
B_SPLINE_CURVE(2,(#891,#892,#893),.UNSPECIFIED.,.F.,.F.)
B_SPLINE_CURVE_WITH_KNOTS((3,3),(7.0920077319252,7.10813012345927),
 .UNSPECIFIED.)
CURVE()
GEOMETRIC_REPRESENTATION_ITEM()
RATIONAL_B_SPLINE_CURVE((4.44082278054148,4.19840712679583,3.95487151503612))
REPRESENTATION_ITEM('')
);
#117=(
BOUNDED_CURVE()
B_SPLINE_CURVE(2,(#904,#905,#906),.UNSPECIFIED.,.F.,.F.)
B_SPLINE_CURVE_WITH_KNOTS((3,3),(0.,0.104140785347983),.UNSPECIFIED.)
CURVE()
GEOMETRIC_REPRESENTATION_ITEM()
RATIONAL_B_SPLINE_CURVE((1.,1.00255162017165,1.00137187273369))
REPRESENTATION_ITEM('')
);
#118=FACE_BOUND('',#156,.T.);
#119=FACE_BOUND('',#170,.T.);
#120=FACE_BOUND('',#183,.T.);
#121=FACE_BOUND('',#187,.T.);
#122=FACE_BOUND('',#191,.T.);
#123=FACE_OUTER_BOUND('',#155,.T.);
#124=FACE_OUTER_BOUND('',#157,.T.);
#125=FACE_OUTER_BOUND('',#158,.T.);
#126=FACE_OUTER_BOUND('',#159,.T.);
#127=FACE_OUTER_BOUND('',#160,.T.);
#128=FACE_OUTER_BOUND('',#161,.T.);
#129=FACE_OUTER_BOUND('',#162,.T.);
#130=FACE_OUTER_BOUND('',#163,.T.);
#131=FACE_OUTER_BOUND('',#164,.T.);
#132=FACE_OUTER_BOUND('',#165,.T.);
#133=FACE_OUTER_BOUND('',#166,.T.);
#134=FACE_OUTER_BOUND('',#167,.T.);
#135=FACE_OUTER_BOUND('',#168,.T.);
#136=FACE_OUTER_BOUND('',#169,.T.);
#137=FACE_OUTER_BOUND('',#171,.T.);
#138=FACE_OUTER_BOUND('',#172,.T.);
#139=FACE_OUTER_BOUND('',#173,.T.);
#140=FACE_OUTER_BOUND('',#174,.T.);
#141=FACE_OUTER_BOUND('',#175,.T.);
#142=FACE_OUTER_BOUND('',#176,.T.);
#143=FACE_OUTER_BOUND('',#177,.T.);
#144=FACE_OUTER_BOUND('',#178,.T.);
#145=FACE_OUTER_BOUND('',#179,.T.);
#146=FACE_OUTER_BOUND('',#180,.T.);
#147=FACE_OUTER_BOUND('',#181,.T.);
#148=FACE_OUTER_BOUND('',#182,.T.);
#149=FACE_OUTER_BOUND('',#184,.T.);
#150=FACE_OUTER_BOUND('',#185,.T.);
#151=FACE_OUTER_BOUND('',#186,.T.);
#152=FACE_OUTER_BOUND('',#188,.T.);
#153=FACE_OUTER_BOUND('',#189,.T.);
#154=FACE_OUTER_BOUND('',#190,.T.);
#155=EDGE_LOOP('',(#354));
#156=EDGE_LOOP('',(#355));
#157=EDGE_LOOP('',(#356,#357,#358,#359,#360));
#158=EDGE_LOOP('',(#361,#362,#363,#364));
#159=EDGE_LOOP('',(#365,#366,#367,#368,#369));
#160=EDGE_LOOP('',(#370,#371,#372,#373,#374));
#161=EDGE_LOOP('',(#375,#376,#377,#378));
#162=EDGE_LOOP('',(#379,#380,#381,#382));
#163=EDGE_LOOP('',(#383,#384,#385,#386,#387));
#164=EDGE_LOOP('',(#388,#389,#390,#391));
#165=EDGE_LOOP('',(#392,#393,#394,#395));
#166=EDGE_LOOP('',(#396,#397,#398,#399,#400));
#167=EDGE_LOOP('',(#401,#402,#403,#404));
#168=EDGE_LOOP('',(#405,#406,#407,#408,#409));
#169=EDGE_LOOP('',(#410,#411,#412,#413,#414,#415,#416,#417,#418,#419,#420,
#421));
#170=EDGE_LOOP('',(#422));
#171=EDGE_LOOP('',(#423,#424,#425,#426));
#172=EDGE_LOOP('',(#427,#428,#429,#430,#431));
#173=EDGE_LOOP('',(#432,#433,#434,#435));
#174=EDGE_LOOP('',(#436,#437,#438,#439));
#175=EDGE_LOOP('',(#440,#441,#442));
#176=EDGE_LOOP('',(#443,#444,#445));
#177=EDGE_LOOP('',(#446,#447,#448,#449));
#178=EDGE_LOOP('',(#450,#451,#452));
#179=EDGE_LOOP('',(#453,#454,#455));
#180=EDGE_LOOP('',(#456,#457,#458,#459));
#181=EDGE_LOOP('',(#460,#461,#462,#463));
#182=EDGE_LOOP('',(#464,#465,#466,#467,#468,#469,#470,#471,#472,#473,#474));
#183=EDGE_LOOP('',(#475,#476));
#184=EDGE_LOOP('',(#477,#478,#479));
#185=EDGE_LOOP('',(#480,#481,#482,#483,#484,#485));
#186=EDGE_LOOP('',(#486));
#187=EDGE_LOOP('',(#487));
#188=EDGE_LOOP('',(#488,#489,#490,#491));
#189=EDGE_LOOP('',(#492,#493,#494,#495));
#190=EDGE_LOOP('',(#496,#497,#498,#499,#500,#501,#502,#503,#504,#505,#506,
#507,#508,#509,#510,#511,#512,#513,#514));
#191=EDGE_LOOP('',(#515));
#192=CIRCLE('',#585,3.50000005215406);
#193=CIRCLE('',#586,1.50000002235174);
#194=CIRCLE('',#589,6.3);
#195=CIRCLE('',#590,6.3);
#196=CIRCLE('',#595,6.3);
#197=CIRCLE('',#596,6.3);
#198=CIRCLE('',#600,6.3);
#199=CIRCLE('',#601,6.3);
#200=CIRCLE('',#606,1.50000002235174);
#201=CIRCLE('',#608,5.58578654193503);
#202=CIRCLE('',#610,5.58578654193503);
#203=CIRCLE('',#611,5.58578654193503);
#204=CIRCLE('',#613,5.58578654193503);
#205=CIRCLE('',#615,10.0000001490116);
#206=CIRCLE('',#616,10.0000001490116);
#207=CIRCLE('',#618,13.0035745895642);
#208=CIRCLE('',#620,13.0035745895642);
#209=CIRCLE('',#622,10.0000001490116);
#210=CIRCLE('',#623,10.0000001490116);
#211=CIRCLE('',#625,13.0035745895642);
#212=CIRCLE('',#627,13.0035745895642);
#213=CIRCLE('',#629,10.0000001490116);
#214=CIRCLE('',#630,11.7385657042918);
#215=CIRCLE('',#632,11.7385657042918);
#216=CIRCLE('',#633,10.0000001490116);
#217=CIRCLE('',#635,6.64025263725652);
#218=CIRCLE('',#636,13.0035745895642);
#219=CIRCLE('',#637,12.0038723796265);
#220=CIRCLE('',#640,3.50000005215406);
#221=VERTEX_POINT('',#809);
#222=VERTEX_POINT('',#811);
#223=VERTEX_POINT('',#814);
#224=VERTEX_POINT('',#815);
#225=VERTEX_POINT('',#819);
#226=VERTEX_POINT('',#821);
#227=VERTEX_POINT('',#823);
#228=VERTEX_POINT('',#827);
#229=VERTEX_POINT('',#828);
#230=VERTEX_POINT('',#830);
#231=VERTEX_POINT('',#832);
#232=VERTEX_POINT('',#836);
#233=VERTEX_POINT('',#840);
#234=VERTEX_POINT('',#842);
#235=VERTEX_POINT('',#846);
#236=VERTEX_POINT('',#847);
#237=VERTEX_POINT('',#851);
#238=VERTEX_POINT('',#853);
#239=VERTEX_POINT('',#855);
#240=VERTEX_POINT('',#859);
#241=VERTEX_POINT('',#861);
#242=VERTEX_POINT('',#865);
#243=VERTEX_POINT('',#867);
#244=VERTEX_POINT('',#871);
#245=VERTEX_POINT('',#875);
#246=VERTEX_POINT('',#877);
#247=VERTEX_POINT('',#884);
#248=VERTEX_POINT('',#886);
#249=VERTEX_POINT('',#890);
#250=VERTEX_POINT('',#894);
#251=VERTEX_POINT('',#896);
#252=VERTEX_POINT('',#903);
#253=VERTEX_POINT('',#910);
#254=VERTEX_POINT('',#915);
#255=VERTEX_POINT('',#921);
#256=VERTEX_POINT('',#922);
#257=VERTEX_POINT('',#924);
#258=VERTEX_POINT('',#926);
#259=VERTEX_POINT('',#930);
#260=VERTEX_POINT('',#934);
#261=VERTEX_POINT('',#938);
#262=VERTEX_POINT('',#939);
#263=VERTEX_POINT('',#941);
#264=VERTEX_POINT('',#943);
#265=VERTEX_POINT('',#947);
#266=VERTEX_POINT('',#951);
#267=VERTEX_POINT('',#961);
#268=VERTEX_POINT('',#964);
#269=VERTEX_POINT('',#965);
#270=VERTEX_POINT('',#992);
#271=VERTEX_POINT('',#1198);
#272=VERTEX_POINT('',#1285);
#273=EDGE_CURVE('',#221,#221,#192,.T.);
#274=EDGE_CURVE('',#222,#222,#193,.T.);
#275=EDGE_CURVE('',#223,#224,#112,.T.);
#276=EDGE_CURVE('',#223,#225,#30,.T.);
#277=EDGE_CURVE('',#225,#226,#31,.T.);
#278=EDGE_CURVE('',#227,#226,#32,.T.);
#279=EDGE_CURVE('',#224,#227,#33,.T.);
#280=EDGE_CURVE('',#228,#229,#194,.T.);
#281=EDGE_CURVE('',#228,#230,#34,.T.);
#282=EDGE_CURVE('',#230,#231,#195,.T.);
#283=EDGE_CURVE('',#229,#231,#35,.F.);
#284=EDGE_CURVE('',#229,#232,#113,.T.);
#285=EDGE_CURVE('',#231,#233,#36,.T.);
#286=EDGE_CURVE('',#234,#233,#37,.F.);
#287=EDGE_CURVE('',#232,#234,#38,.F.);
#288=EDGE_CURVE('',#235,#236,#114,.T.);
#289=EDGE_CURVE('',#235,#237,#39,.F.);
#290=EDGE_CURVE('',#237,#238,#40,.T.);
#291=EDGE_CURVE('',#239,#238,#41,.F.);
#292=EDGE_CURVE('',#236,#239,#42,.F.);
#293=EDGE_CURVE('',#227,#240,#43,.T.);
#294=EDGE_CURVE('',#226,#241,#44,.T.);
#295=EDGE_CURVE('',#240,#241,#45,.T.);
#296=EDGE_CURVE('',#242,#223,#196,.T.);
#297=EDGE_CURVE('',#242,#243,#46,.T.);
#298=EDGE_CURVE('',#243,#225,#197,.T.);
#299=EDGE_CURVE('',#244,#242,#115,.T.);
#300=EDGE_CURVE('',#245,#244,#47,.F.);
#301=EDGE_CURVE('',#245,#246,#48,.F.);
#302=EDGE_CURVE('',#246,#243,#49,.T.);
#303=EDGE_CURVE('',#239,#245,#50,.F.);
#304=EDGE_CURVE('',#238,#246,#51,.T.);
#305=EDGE_CURVE('',#247,#235,#198,.T.);
#306=EDGE_CURVE('',#247,#248,#52,.T.);
#307=EDGE_CURVE('',#248,#237,#199,.T.);
#308=EDGE_CURVE('',#249,#247,#116,.T.);
#309=EDGE_CURVE('',#250,#249,#53,.F.);
#310=EDGE_CURVE('',#250,#251,#54,.F.);
#311=EDGE_CURVE('',#251,#248,#55,.T.);
#312=EDGE_CURVE('',#234,#250,#56,.F.);
#313=EDGE_CURVE('',#233,#251,#57,.T.);
#314=EDGE_CURVE('',#252,#228,#117,.T.);
#315=EDGE_CURVE('',#240,#252,#58,.T.);
#316=EDGE_CURVE('',#241,#230,#59,.T.);
#317=EDGE_CURVE('',#253,#253,#200,.T.);
#318=EDGE_CURVE('',#232,#249,#201,.F.);
#319=EDGE_CURVE('',#254,#244,#202,.F.);
#320=EDGE_CURVE('',#236,#254,#203,.F.);
#321=EDGE_CURVE('',#224,#252,#204,.F.);
#322=EDGE_CURVE('',#255,#256,#60,.T.);
#323=EDGE_CURVE('',#257,#255,#205,.T.);
#324=EDGE_CURVE('',#257,#258,#61,.T.);
#325=EDGE_CURVE('',#256,#258,#206,.T.);
#326=EDGE_CURVE('',#258,#259,#62,.T.);
#327=EDGE_CURVE('',#259,#257,#207,.T.);
#328=EDGE_CURVE('',#260,#256,#63,.T.);
#329=EDGE_CURVE('',#255,#260,#208,.T.);
#330=EDGE_CURVE('',#261,#262,#64,.T.);
#331=EDGE_CURVE('',#263,#262,#209,.T.);
#332=EDGE_CURVE('',#263,#264,#65,.T.);
#333=EDGE_CURVE('',#261,#264,#210,.T.);
#334=EDGE_CURVE('',#262,#265,#211,.T.);
#335=EDGE_CURVE('',#265,#261,#66,.T.);
#336=EDGE_CURVE('',#266,#263,#212,.T.);
#337=EDGE_CURVE('',#264,#266,#67,.T.);
#338=EDGE_CURVE('',#264,#256,#213,.T.);
#339=EDGE_CURVE('',#266,#260,#214,.T.);
#340=EDGE_CURVE('',#259,#265,#215,.T.);
#341=EDGE_CURVE('',#258,#261,#216,.T.);
#342=EDGE_CURVE('',#267,#267,#217,.T.);
#343=EDGE_CURVE('',#267,#262,#218,.T.);
#344=EDGE_CURVE('',#268,#269,#17,.T.);
#345=EDGE_CURVE('',#269,#268,#219,.T.);
#346=EDGE_CURVE('',#270,#268,#18,.F.);
#347=EDGE_CURVE('',#269,#270,#19,.F.);
#348=EDGE_CURVE('',#271,#270,#20,.T.);
#349=EDGE_CURVE('',#271,#271,#21,.T.);
#350=EDGE_CURVE('',#272,#272,#220,.T.);
#351=EDGE_CURVE('',#222,#253,#68,.T.);
#352=EDGE_CURVE('',#272,#221,#69,.T.);
#353=EDGE_CURVE('',#254,#261,#70,.T.);
#354=ORIENTED_EDGE('',*,*,#273,.F.);
#355=ORIENTED_EDGE('',*,*,#274,.T.);
#356=ORIENTED_EDGE('',*,*,#275,.F.);
#357=ORIENTED_EDGE('',*,*,#276,.T.);
#358=ORIENTED_EDGE('',*,*,#277,.T.);
#359=ORIENTED_EDGE('',*,*,#278,.F.);
#360=ORIENTED_EDGE('',*,*,#279,.F.);
#361=ORIENTED_EDGE('',*,*,#280,.F.);
#362=ORIENTED_EDGE('',*,*,#281,.T.);
#363=ORIENTED_EDGE('',*,*,#282,.T.);
#364=ORIENTED_EDGE('',*,*,#283,.F.);
#365=ORIENTED_EDGE('',*,*,#284,.F.);
#366=ORIENTED_EDGE('',*,*,#283,.T.);
#367=ORIENTED_EDGE('',*,*,#285,.T.);
#368=ORIENTED_EDGE('',*,*,#286,.F.);
#369=ORIENTED_EDGE('',*,*,#287,.F.);
#370=ORIENTED_EDGE('',*,*,#288,.F.);
#371=ORIENTED_EDGE('',*,*,#289,.T.);
#372=ORIENTED_EDGE('',*,*,#290,.T.);
#373=ORIENTED_EDGE('',*,*,#291,.F.);
#374=ORIENTED_EDGE('',*,*,#292,.F.);
#375=ORIENTED_EDGE('',*,*,#293,.F.);
#376=ORIENTED_EDGE('',*,*,#278,.T.);
#377=ORIENTED_EDGE('',*,*,#294,.T.);
#378=ORIENTED_EDGE('',*,*,#295,.F.);
#379=ORIENTED_EDGE('',*,*,#296,.F.);
#380=ORIENTED_EDGE('',*,*,#297,.T.);
#381=ORIENTED_EDGE('',*,*,#298,.T.);
#382=ORIENTED_EDGE('',*,*,#276,.F.);
#383=ORIENTED_EDGE('',*,*,#299,.F.);
#384=ORIENTED_EDGE('',*,*,#300,.F.);
#385=ORIENTED_EDGE('',*,*,#301,.T.);
#386=ORIENTED_EDGE('',*,*,#302,.T.);
#387=ORIENTED_EDGE('',*,*,#297,.F.);
#388=ORIENTED_EDGE('',*,*,#303,.F.);
#389=ORIENTED_EDGE('',*,*,#291,.T.);
#390=ORIENTED_EDGE('',*,*,#304,.T.);
#391=ORIENTED_EDGE('',*,*,#301,.F.);
#392=ORIENTED_EDGE('',*,*,#305,.F.);
#393=ORIENTED_EDGE('',*,*,#306,.T.);
#394=ORIENTED_EDGE('',*,*,#307,.T.);
#395=ORIENTED_EDGE('',*,*,#289,.F.);
#396=ORIENTED_EDGE('',*,*,#308,.F.);
#397=ORIENTED_EDGE('',*,*,#309,.F.);
#398=ORIENTED_EDGE('',*,*,#310,.T.);
#399=ORIENTED_EDGE('',*,*,#311,.T.);
#400=ORIENTED_EDGE('',*,*,#306,.F.);
#401=ORIENTED_EDGE('',*,*,#312,.F.);
#402=ORIENTED_EDGE('',*,*,#286,.T.);
#403=ORIENTED_EDGE('',*,*,#313,.T.);
#404=ORIENTED_EDGE('',*,*,#310,.F.);
#405=ORIENTED_EDGE('',*,*,#314,.F.);
#406=ORIENTED_EDGE('',*,*,#315,.F.);
#407=ORIENTED_EDGE('',*,*,#295,.T.);
#408=ORIENTED_EDGE('',*,*,#316,.T.);
#409=ORIENTED_EDGE('',*,*,#281,.F.);
#410=ORIENTED_EDGE('',*,*,#316,.F.);
#411=ORIENTED_EDGE('',*,*,#294,.F.);
#412=ORIENTED_EDGE('',*,*,#277,.F.);
#413=ORIENTED_EDGE('',*,*,#298,.F.);
#414=ORIENTED_EDGE('',*,*,#302,.F.);
#415=ORIENTED_EDGE('',*,*,#304,.F.);
#416=ORIENTED_EDGE('',*,*,#290,.F.);
#417=ORIENTED_EDGE('',*,*,#307,.F.);
#418=ORIENTED_EDGE('',*,*,#311,.F.);
#419=ORIENTED_EDGE('',*,*,#313,.F.);
#420=ORIENTED_EDGE('',*,*,#285,.F.);
#421=ORIENTED_EDGE('',*,*,#282,.F.);
#422=ORIENTED_EDGE('',*,*,#317,.F.);
#423=ORIENTED_EDGE('',*,*,#287,.T.);
#424=ORIENTED_EDGE('',*,*,#312,.T.);
#425=ORIENTED_EDGE('',*,*,#309,.T.);
#426=ORIENTED_EDGE('',*,*,#318,.F.);
#427=ORIENTED_EDGE('',*,*,#300,.T.);
#428=ORIENTED_EDGE('',*,*,#319,.F.);
#429=ORIENTED_EDGE('',*,*,#320,.F.);
#430=ORIENTED_EDGE('',*,*,#292,.T.);
#431=ORIENTED_EDGE('',*,*,#303,.T.);
#432=ORIENTED_EDGE('',*,*,#279,.T.);
#433=ORIENTED_EDGE('',*,*,#293,.T.);
#434=ORIENTED_EDGE('',*,*,#315,.T.);
#435=ORIENTED_EDGE('',*,*,#321,.F.);
#436=ORIENTED_EDGE('',*,*,#322,.F.);
#437=ORIENTED_EDGE('',*,*,#323,.F.);
#438=ORIENTED_EDGE('',*,*,#324,.T.);
#439=ORIENTED_EDGE('',*,*,#325,.F.);
#440=ORIENTED_EDGE('',*,*,#326,.F.);
#441=ORIENTED_EDGE('',*,*,#324,.F.);
#442=ORIENTED_EDGE('',*,*,#327,.F.);
#443=ORIENTED_EDGE('',*,*,#328,.F.);
#444=ORIENTED_EDGE('',*,*,#329,.F.);
#445=ORIENTED_EDGE('',*,*,#322,.T.);
#446=ORIENTED_EDGE('',*,*,#330,.T.);
#447=ORIENTED_EDGE('',*,*,#331,.F.);
#448=ORIENTED_EDGE('',*,*,#332,.T.);
#449=ORIENTED_EDGE('',*,*,#333,.F.);
#450=ORIENTED_EDGE('',*,*,#334,.F.);
#451=ORIENTED_EDGE('',*,*,#330,.F.);
#452=ORIENTED_EDGE('',*,*,#335,.F.);
#453=ORIENTED_EDGE('',*,*,#336,.F.);
#454=ORIENTED_EDGE('',*,*,#337,.F.);
#455=ORIENTED_EDGE('',*,*,#332,.F.);
#456=ORIENTED_EDGE('',*,*,#328,.T.);
#457=ORIENTED_EDGE('',*,*,#338,.F.);
#458=ORIENTED_EDGE('',*,*,#337,.T.);
#459=ORIENTED_EDGE('',*,*,#339,.T.);
#460=ORIENTED_EDGE('',*,*,#326,.T.);
#461=ORIENTED_EDGE('',*,*,#340,.T.);
#462=ORIENTED_EDGE('',*,*,#335,.T.);
#463=ORIENTED_EDGE('',*,*,#341,.F.);
#464=ORIENTED_EDGE('',*,*,#342,.F.);
#465=ORIENTED_EDGE('',*,*,#343,.T.);
#466=ORIENTED_EDGE('',*,*,#334,.T.);
#467=ORIENTED_EDGE('',*,*,#340,.F.);
#468=ORIENTED_EDGE('',*,*,#327,.T.);
#469=ORIENTED_EDGE('',*,*,#323,.T.);
#470=ORIENTED_EDGE('',*,*,#329,.T.);
#471=ORIENTED_EDGE('',*,*,#339,.F.);
#472=ORIENTED_EDGE('',*,*,#336,.T.);
#473=ORIENTED_EDGE('',*,*,#331,.T.);
#474=ORIENTED_EDGE('',*,*,#343,.F.);
#475=ORIENTED_EDGE('',*,*,#344,.F.);
#476=ORIENTED_EDGE('',*,*,#345,.F.);
#477=ORIENTED_EDGE('',*,*,#345,.T.);
#478=ORIENTED_EDGE('',*,*,#346,.F.);
#479=ORIENTED_EDGE('',*,*,#347,.F.);
#480=ORIENTED_EDGE('',*,*,#347,.T.);
#481=ORIENTED_EDGE('',*,*,#348,.F.);
#482=ORIENTED_EDGE('',*,*,#349,.F.);
#483=ORIENTED_EDGE('',*,*,#348,.T.);
#484=ORIENTED_EDGE('',*,*,#346,.T.);
#485=ORIENTED_EDGE('',*,*,#344,.T.);
#486=ORIENTED_EDGE('',*,*,#342,.T.);
#487=ORIENTED_EDGE('',*,*,#350,.T.);
#488=ORIENTED_EDGE('',*,*,#274,.F.);
#489=ORIENTED_EDGE('',*,*,#351,.T.);
#490=ORIENTED_EDGE('',*,*,#317,.T.);
#491=ORIENTED_EDGE('',*,*,#351,.F.);
#492=ORIENTED_EDGE('',*,*,#350,.F.);
#493=ORIENTED_EDGE('',*,*,#352,.T.);
#494=ORIENTED_EDGE('',*,*,#273,.T.);
#495=ORIENTED_EDGE('',*,*,#352,.F.);
#496=ORIENTED_EDGE('',*,*,#275,.T.);
#497=ORIENTED_EDGE('',*,*,#321,.T.);
#498=ORIENTED_EDGE('',*,*,#314,.T.);
#499=ORIENTED_EDGE('',*,*,#280,.T.);
#500=ORIENTED_EDGE('',*,*,#284,.T.);
#501=ORIENTED_EDGE('',*,*,#318,.T.);
#502=ORIENTED_EDGE('',*,*,#308,.T.);
#503=ORIENTED_EDGE('',*,*,#305,.T.);
#504=ORIENTED_EDGE('',*,*,#288,.T.);
#505=ORIENTED_EDGE('',*,*,#320,.T.);
#506=ORIENTED_EDGE('',*,*,#353,.T.);
#507=ORIENTED_EDGE('',*,*,#333,.T.);
#508=ORIENTED_EDGE('',*,*,#338,.T.);
#509=ORIENTED_EDGE('',*,*,#325,.T.);
#510=ORIENTED_EDGE('',*,*,#341,.T.);
#511=ORIENTED_EDGE('',*,*,#353,.F.);
#512=ORIENTED_EDGE('',*,*,#319,.T.);
#513=ORIENTED_EDGE('',*,*,#299,.T.);
#514=ORIENTED_EDGE('',*,*,#296,.T.);
#515=ORIENTED_EDGE('',*,*,#349,.T.);
#516=PLANE('',#584);
#517=PLANE('',#587);
#518=PLANE('',#591);
#519=PLANE('',#592);
#520=PLANE('',#593);
#521=PLANE('',#597);
#522=PLANE('',#598);
#523=PLANE('',#602);
#524=PLANE('',#603);
#525=PLANE('',#604);
#526=PLANE('',#605);
#527=PLANE('',#607);
#528=PLANE('',#609);
#529=PLANE('',#612);
#530=PLANE('',#617);
#531=PLANE('',#619);
#532=PLANE('',#624);
#533=PLANE('',#626);
#534=PLANE('',#628);
#535=PLANE('',#631);
#536=PLANE('',#638);
#537=PLANE('',#639);
#538=ADVANCED_FACE('',(#123,#118),#516,.T.);
#539=ADVANCED_FACE('',(#124),#517,.F.);
#540=ADVANCED_FACE('',(#125),#23,.F.);
#541=ADVANCED_FACE('',(#126),#518,.F.);
#542=ADVANCED_FACE('',(#127),#519,.F.);
#543=ADVANCED_FACE('',(#128),#520,.F.);
#544=ADVANCED_FACE('',(#129),#24,.F.);
#545=ADVANCED_FACE('',(#130),#521,.F.);
#546=ADVANCED_FACE('',(#131),#522,.F.);
#547=ADVANCED_FACE('',(#132),#25,.F.);
#548=ADVANCED_FACE('',(#133),#523,.F.);
#549=ADVANCED_FACE('',(#134),#524,.F.);
#550=ADVANCED_FACE('',(#135),#525,.F.);
#551=ADVANCED_FACE('',(#136,#119),#526,.T.);
#552=ADVANCED_FACE('',(#137),#527,.F.);
#553=ADVANCED_FACE('',(#138),#528,.F.);
#554=ADVANCED_FACE('',(#139),#529,.F.);
#555=ADVANCED_FACE('',(#140),#26,.T.);
#556=ADVANCED_FACE('',(#141),#530,.F.);
#557=ADVANCED_FACE('',(#142),#531,.T.);
#558=ADVANCED_FACE('',(#143),#27,.T.);
#559=ADVANCED_FACE('',(#144),#532,.F.);
#560=ADVANCED_FACE('',(#145),#533,.T.);
#561=ADVANCED_FACE('',(#146),#534,.T.);
#562=ADVANCED_FACE('',(#147),#535,.T.);
#563=ADVANCED_FACE('',(#148,#120),#22,.T.);
#564=ADVANCED_FACE('',(#149),#536,.F.);
#565=ADVANCED_FACE('',(#150),#16,.F.);
#566=ADVANCED_FACE('',(#151,#121),#537,.F.);
#567=ADVANCED_FACE('',(#152),#28,.F.);
#568=ADVANCED_FACE('',(#153),#29,.F.);
#569=ADVANCED_FACE('',(#154,#122),#15,.T.);
#570=CLOSED_SHELL('',(#538,#539,#540,#541,#542,#543,#544,#545,#546,#547,
#548,#549,#550,#551,#552,#553,#554,#555,#556,#557,#558,#559,#560,#561,#562,
#563,#564,#565,#566,#567,#568,#569));
#571=DERIVED_UNIT_ELEMENT(#573,1.);
#572=DERIVED_UNIT_ELEMENT(#1298,-3.);
#573=(
MASS_UNIT()
NAMED_UNIT(*)
SI_UNIT(.KILO.,.GRAM.)
);
#574=DERIVED_UNIT((#571,#572));
#575=MEASURE_REPRESENTATION_ITEM('density measure',
POSITIVE_RATIO_MEASURE(7850.),#574);
#576=PROPERTY_DEFINITION_REPRESENTATION(#581,#578);
#577=PROPERTY_DEFINITION_REPRESENTATION(#582,#579);
#578=REPRESENTATION('material name',(#580),#1295);
#579=REPRESENTATION('density',(#575),#1295);
#580=DESCRIPTIVE_REPRESENTATION_ITEM('Steel','Steel');
#581=PROPERTY_DEFINITION('material property','material name',#1305);
#582=PROPERTY_DEFINITION('material property','density of part',#1305);
#583=AXIS2_PLACEMENT_3D('',#807,#644,#645);
#584=AXIS2_PLACEMENT_3D('',#808,#646,#647);
#585=AXIS2_PLACEMENT_3D('',#810,#648,#649);
#586=AXIS2_PLACEMENT_3D('',#812,#650,#651);
#587=AXIS2_PLACEMENT_3D('',#813,#652,#653);
#588=AXIS2_PLACEMENT_3D('',#826,#658,#659);
#589=AXIS2_PLACEMENT_3D('',#829,#660,#661);
#590=AXIS2_PLACEMENT_3D('',#833,#663,#664);
#591=AXIS2_PLACEMENT_3D('',#835,#666,#667);
#592=AXIS2_PLACEMENT_3D('',#845,#671,#672);
#593=AXIS2_PLACEMENT_3D('',#858,#677,#678);
#594=AXIS2_PLACEMENT_3D('',#864,#682,#683);
#595=AXIS2_PLACEMENT_3D('',#866,#684,#685);
#596=AXIS2_PLACEMENT_3D('',#869,#687,#688);
#597=AXIS2_PLACEMENT_3D('',#870,#689,#690);
#598=AXIS2_PLACEMENT_3D('',#880,#694,#695);
#599=AXIS2_PLACEMENT_3D('',#883,#698,#699);
#600=AXIS2_PLACEMENT_3D('',#885,#700,#701);
#601=AXIS2_PLACEMENT_3D('',#888,#703,#704);
#602=AXIS2_PLACEMENT_3D('',#889,#705,#706);
#603=AXIS2_PLACEMENT_3D('',#899,#710,#711);
#604=AXIS2_PLACEMENT_3D('',#902,#714,#715);
#605=AXIS2_PLACEMENT_3D('',#909,#718,#719);
#606=AXIS2_PLACEMENT_3D('',#911,#720,#721);
#607=AXIS2_PLACEMENT_3D('',#912,#722,#723);
#608=AXIS2_PLACEMENT_3D('',#913,#724,#725);
#609=AXIS2_PLACEMENT_3D('',#914,#726,#727);
#610=AXIS2_PLACEMENT_3D('',#916,#728,#729);
#611=AXIS2_PLACEMENT_3D('',#917,#730,#731);
#612=AXIS2_PLACEMENT_3D('',#918,#732,#733);
#613=AXIS2_PLACEMENT_3D('',#919,#734,#735);
#614=AXIS2_PLACEMENT_3D('',#920,#736,#737);
#615=AXIS2_PLACEMENT_3D('',#925,#739,#740);
#616=AXIS2_PLACEMENT_3D('',#928,#742,#743);
#617=AXIS2_PLACEMENT_3D('',#929,#744,#745);
#618=AXIS2_PLACEMENT_3D('',#932,#747,#748);
#619=AXIS2_PLACEMENT_3D('',#933,#749,#750);
#620=AXIS2_PLACEMENT_3D('',#936,#752,#753);
#621=AXIS2_PLACEMENT_3D('',#937,#754,#755);
#622=AXIS2_PLACEMENT_3D('',#942,#757,#758);
#623=AXIS2_PLACEMENT_3D('',#945,#760,#761);
#624=AXIS2_PLACEMENT_3D('',#946,#762,#763);
#625=AXIS2_PLACEMENT_3D('',#948,#764,#765);
#626=AXIS2_PLACEMENT_3D('',#950,#767,#768);
#627=AXIS2_PLACEMENT_3D('',#952,#769,#770);
#628=AXIS2_PLACEMENT_3D('',#954,#772,#773);
#629=AXIS2_PLACEMENT_3D('',#955,#774,#775);
#630=AXIS2_PLACEMENT_3D('',#956,#776,#777);
#631=AXIS2_PLACEMENT_3D('',#957,#778,#779);
#632=AXIS2_PLACEMENT_3D('',#958,#780,#781);
#633=AXIS2_PLACEMENT_3D('',#959,#782,#783);
#634=AXIS2_PLACEMENT_3D('',#960,#784,#785);
#635=AXIS2_PLACEMENT_3D('',#962,#786,#787);
#636=AXIS2_PLACEMENT_3D('',#963,#788,#789);
#637=AXIS2_PLACEMENT_3D('',#990,#790,#791);
#638=AXIS2_PLACEMENT_3D('',#991,#792,#793);
#639=AXIS2_PLACEMENT_3D('',#1284,#794,#795);
#640=AXIS2_PLACEMENT_3D('',#1286,#796,#797);
#641=AXIS2_PLACEMENT_3D('',#1287,#798,#799);
#642=AXIS2_PLACEMENT_3D('',#1289,#801,#802);
#643=AXIS2_PLACEMENT_3D('',#1291,#804,#805);
#644=DIRECTION('axis',(0.,0.,1.));
#645=DIRECTION('refdir',(1.,0.,0.));
#646=DIRECTION('center_axis',(0.,-1.,-2.22044604925031E-16));
#647=DIRECTION('ref_axis',(1.,0.,0.));
#648=DIRECTION('center_axis',(0.,1.,2.22044604925031E-16));
#649=DIRECTION('ref_axis',(1.,0.,0.));
#650=DIRECTION('center_axis',(0.,1.,2.22044604925031E-16));
#651=DIRECTION('ref_axis',(1.,0.,0.));
#652=DIRECTION('center_axis',(1.,-2.7755575615629E-16,-6.16297582203918E-32));
#653=DIRECTION('ref_axis',(0.,-2.22044604925031E-16,1.));
#654=DIRECTION('',(-2.7755575615629E-16,-1.,-2.22044604925031E-16));
#655=DIRECTION('',(0.,-2.22044604925031E-16,1.));
#656=DIRECTION('',(-2.7755575615629E-16,-1.,-2.22044604925031E-16));
#657=DIRECTION('',(0.,-2.22044604925031E-16,1.));
#658=DIRECTION('center_axis',(-2.7755575615629E-16,-1.,-2.22044604925031E-16));
#659=DIRECTION('ref_axis',(0.,-2.22044604925031E-16,1.));
#660=DIRECTION('center_axis',(-2.7755575615629E-16,-1.,-2.22044604925031E-16));
#661=DIRECTION('ref_axis',(0.,-2.22044604925031E-16,1.));
#662=DIRECTION('',(-2.7755575615629E-16,-1.,-2.22044604925031E-16));
#663=DIRECTION('center_axis',(-2.22044604925031E-16,-1.,-2.22044604925031E-16));
#664=DIRECTION('ref_axis',(0.,-2.22044604925031E-16,1.));
#665=DIRECTION('',(2.7755575615629E-16,1.,2.22044604925031E-16));
#666=DIRECTION('center_axis',(0.707106781186547,-3.5327080320385E-16,0.707106781186548));
#667=DIRECTION('ref_axis',(-0.707106781186548,2.46519032881566E-32,0.707106781186547));
#668=DIRECTION('',(-0.707106781186548,2.46519032881566E-32,0.707106781186547));
#669=DIRECTION('',(2.7755575615629E-16,1.,2.22044604925031E-16));
#670=DIRECTION('',(0.707106781186548,1.57009245868377E-16,-0.707106781186547));
#671=DIRECTION('center_axis',(-0.707106781186547,3.5327080320385E-16,-0.707106781186548));
#672=DIRECTION('ref_axis',(0.707106781186548,3.14018491736755E-16,-0.707106781186547));
#673=DIRECTION('',(2.7755575615629E-16,1.,2.22044604925031E-16));
#674=DIRECTION('',(0.707106781186548,-2.46519032881566E-32,-0.707106781186547));
#675=DIRECTION('',(2.7755575615629E-16,1.,2.22044604925031E-16));
#676=DIRECTION('',(-0.707106781186548,-1.57009245868377E-16,0.707106781186547));
#677=DIRECTION('center_axis',(0.,2.22044604925031E-16,-1.));
#678=DIRECTION('ref_axis',(1.,-2.22044604925031E-16,-4.93038065763132E-32));
#679=DIRECTION('',(1.,0.,0.));
#680=DIRECTION('',(1.,-2.22044604925031E-16,-4.93038065763132E-32));
#681=DIRECTION('',(-2.7755575615629E-16,-1.,-2.22044604925031E-16));
#682=DIRECTION('center_axis',(-2.7755575615629E-16,-1.,-2.22044604925031E-16));
#683=DIRECTION('ref_axis',(0.,-2.22044604925031E-16,1.));
#684=DIRECTION('center_axis',(-2.7755575615629E-16,-1.,-2.22044604925031E-16));
#685=DIRECTION('ref_axis',(0.,-2.22044604925031E-16,1.));
#686=DIRECTION('',(-2.7755575615629E-16,-1.,-2.22044604925031E-16));
#687=DIRECTION('center_axis',(-2.22044604925031E-16,-1.,-2.22044604925031E-16));
#688=DIRECTION('ref_axis',(0.,-2.22044604925031E-16,1.));
#689=DIRECTION('center_axis',(-0.707106781186547,3.9252311467095E-17,0.707106781186548));
#690=DIRECTION('ref_axis',(-0.707106781186548,-2.46519032881566E-32,-0.707106781186547));
#691=DIRECTION('',(0.707106781186548,-1.57009245868377E-16,0.707106781186547));
#692=DIRECTION('',(2.7755575615629E-16,1.,2.22044604925031E-16));
#693=DIRECTION('',(-0.707106781186548,3.14018491736755E-16,-0.707106781186547));
#694=DIRECTION('center_axis',(-1.,2.7755575615629E-16,6.16297582203918E-32));
#695=DIRECTION('ref_axis',(0.,2.22044604925031E-16,-1.));
#696=DIRECTION('',(0.,-2.22044604925031E-16,1.));
#697=DIRECTION('',(0.,2.22044604925031E-16,-1.));
#698=DIRECTION('center_axis',(-2.7755575615629E-16,-1.,-2.22044604925031E-16));
#699=DIRECTION('ref_axis',(-1.65389215948552E-15,-2.22044604925031E-16,
1.));
#700=DIRECTION('center_axis',(-2.7755575615629E-16,-1.,-2.22044604925031E-16));
#701=DIRECTION('ref_axis',(0.,2.22044604925031E-16,-1.));
#702=DIRECTION('',(-2.7755575615629E-16,-1.,-2.22044604925031E-16));
#703=DIRECTION('center_axis',(2.22044604925031E-16,-1.,-2.22044604925031E-16));
#704=DIRECTION('ref_axis',(0.,2.22044604925031E-16,-1.));
#705=DIRECTION('center_axis',(0.707106781186547,-3.9252311467095E-17,-0.707106781186548));
#706=DIRECTION('ref_axis',(0.707106781186548,-3.14018491736755E-16,0.707106781186547));
#707=DIRECTION('',(-0.707106781186548,1.57009245868377E-16,-0.707106781186547));
#708=DIRECTION('',(2.7755575615629E-16,1.,2.22044604925031E-16));
#709=DIRECTION('',(0.707106781186548,-3.14018491736755E-16,0.707106781186547));
#710=DIRECTION('center_axis',(1.,-2.7755575615629E-16,-6.16297582203918E-32));
#711=DIRECTION('ref_axis',(0.,-2.22044604925031E-16,1.));
#712=DIRECTION('',(0.,2.22044604925031E-16,-1.));
#713=DIRECTION('',(0.,-2.22044604925031E-16,1.));
#714=DIRECTION('center_axis',(-1.,2.7755575615629E-16,6.16297582203918E-32));
#715=DIRECTION('ref_axis',(0.,2.22044604925031E-16,-1.));
#716=DIRECTION('',(0.,2.22044604925031E-16,-1.));
#717=DIRECTION('',(0.,2.22044604925031E-16,-1.));
#718=DIRECTION('center_axis',(2.22044604925031E-16,1.,2.22044604925031E-16));
#719=DIRECTION('ref_axis',(0.,2.22044604925031E-16,-1.));
#720=DIRECTION('center_axis',(2.22044604925031E-16,1.,2.22044604925031E-16));
#721=DIRECTION('ref_axis',(1.,0.,0.));
#722=DIRECTION('center_axis',(0.,-1.,-2.22044604925031E-16));
#723=DIRECTION('ref_axis',(-1.,0.,0.));
#724=DIRECTION('center_axis',(0.,1.,2.22044604925031E-16));
#725=DIRECTION('ref_axis',(1.,0.,0.));
#726=DIRECTION('center_axis',(0.,-1.,-2.22044604925031E-16));
#727=DIRECTION('ref_axis',(-1.,0.,0.));
#728=DIRECTION('center_axis',(0.,1.,2.22044604925031E-16));
#729=DIRECTION('ref_axis',(1.,0.,0.));
#730=DIRECTION('center_axis',(0.,1.,2.22044604925031E-16));
#731=DIRECTION('ref_axis',(1.,0.,0.));
#732=DIRECTION('center_axis',(0.,-1.,-2.22044604925031E-16));
#733=DIRECTION('ref_axis',(-1.,0.,0.));
#734=DIRECTION('center_axis',(0.,1.,2.22044604925031E-16));
#735=DIRECTION('ref_axis',(1.,0.,0.));
#736=DIRECTION('center_axis',(-4.65056241942535E-15,1.,2.22044604925031E-16));
#737=DIRECTION('ref_axis',(1.,4.64522677659254E-15,1.03144754439567E-30));
#738=DIRECTION('',(0.,1.,2.22044604925031E-16));
#739=DIRECTION('center_axis',(4.65056241942535E-15,-1.,-2.22044604925031E-16));
#740=DIRECTION('ref_axis',(1.,5.3290704387914E-15,1.1832913401991E-30));
#741=DIRECTION('',(-5.04178979628197E-15,1.,-4.31069145146616E-15));
#742=DIRECTION('center_axis',(0.,1.,2.22044604925031E-16));
#743=DIRECTION('ref_axis',(1.,0.,0.));
#744=DIRECTION('center_axis',(-0.996194698091746,-4.64690274874065E-15,
0.0871557427476582));
#745=DIRECTION('ref_axis',(-0.0871557427476582,-4.73370890353252E-15,-0.996194698091746));
#746=DIRECTION('',(-0.0871557427476582,-1.8412356369317E-16,-0.996194698091746));
#747=DIRECTION('center_axis',(-0.996194698091746,-4.64690274874065E-15,
0.0871557427476582));
#748=DIRECTION('ref_axis',(4.64522677659254E-15,-1.,-2.22044604925031E-16));
#749=DIRECTION('center_axis',(0.,2.22044604925031E-16,-1.));
#750=DIRECTION('ref_axis',(1.,0.,0.));
#751=DIRECTION('',(-1.,-4.65056241942535E-15,-1.0326322951005E-30));
#752=DIRECTION('center_axis',(0.,-2.22044604925031E-16,1.));
#753=DIRECTION('ref_axis',(0.,1.,2.22044604925031E-16));
#754=DIRECTION('center_axis',(-4.65056241942535E-15,1.,2.22044604925031E-16));
#755=DIRECTION('ref_axis',(-1.,-4.60971339976292E-15,-1.02356199066798E-30));
#756=DIRECTION('',(0.,-1.,-2.22044604925031E-16));
#757=DIRECTION('center_axis',(4.65056241942535E-15,-1.,-2.22044604925031E-16));
#758=DIRECTION('ref_axis',(-1.,-5.32907043879142E-15,-1.1832913401991E-30));
#759=DIRECTION('',(-4.91405711167806E-15,1.,-3.25661994028157E-15));
#760=DIRECTION('center_axis',(0.,1.,2.22044604925031E-16));
#761=DIRECTION('ref_axis',(1.,0.,0.));
#762=DIRECTION('center_axis',(0.,2.22044604925031E-16,-1.));
#763=DIRECTION('ref_axis',(1.,0.,0.));
#764=DIRECTION('center_axis',(0.,2.22044604925031E-16,-1.));
#765=DIRECTION('ref_axis',(0.,-1.,-2.22044604925031E-16));
#766=DIRECTION('',(1.,4.65056241942535E-15,1.0326322951005E-30));
#767=DIRECTION('center_axis',(-0.996194698091746,-4.61152451103165E-15,
0.0871557427476582));
#768=DIRECTION('ref_axis',(-0.0871557427476582,-3.67251581568107E-15,-0.996194698091746));
#769=DIRECTION('center_axis',(0.996194698091746,4.61152451103165E-15,-0.0871557427476582));
#770=DIRECTION('ref_axis',(-4.60971339976292E-15,1.,2.22044604925031E-16));
#771=DIRECTION('',(0.0871557427476582,1.8412356369317E-16,0.996194698091746));
#772=DIRECTION('center_axis',(-4.65056241942535E-15,1.,2.22044604925031E-16));
#773=DIRECTION('ref_axis',(1.,4.65056241942535E-15,1.0326322951005E-30));
#774=DIRECTION('center_axis',(0.,1.,2.22044604925031E-16));
#775=DIRECTION('ref_axis',(1.,0.,0.));
#776=DIRECTION('center_axis',(-4.65056241942535E-15,1.,2.22044604925031E-16));
#777=DIRECTION('ref_axis',(1.,4.65056241942535E-15,1.0326322951005E-30));
#778=DIRECTION('center_axis',(-4.65056241942535E-15,1.,2.22044604925031E-16));
#779=DIRECTION('ref_axis',(1.,4.65056241942535E-15,1.0326322951005E-30));
#780=DIRECTION('center_axis',(-4.65056241942535E-15,1.,2.22044604925031E-16));
#781=DIRECTION('ref_axis',(1.,4.65056241942535E-15,1.0326322951005E-30));
#782=DIRECTION('center_axis',(0.,1.,2.22044604925031E-16));
#783=DIRECTION('ref_axis',(1.,0.,0.));
#784=DIRECTION('center_axis',(6.12323399573677E-17,1.,2.22044604925031E-16));
#785=DIRECTION('ref_axis',(1.,0.,0.));
#786=DIRECTION('center_axis',(0.,-1.,-2.22044604925031E-16));
#787=DIRECTION('ref_axis',(0.,-2.22044604925031E-16,1.));
#788=DIRECTION('center_axis',(-1.22464679914735E-16,2.22044604925031E-16,
-1.));
#789=DIRECTION('ref_axis',(-1.,0.,1.22464679914735E-16));
#790=DIRECTION('center_axis',(-3.67394039744206E-16,2.22044604925031E-16,
-1.));
#791=DIRECTION('ref_axis',(0.,1.,2.22044604925031E-16));
#792=DIRECTION('center_axis',(3.67394039744206E-16,-2.22044604925031E-16,
1.));
#793=DIRECTION('ref_axis',(0.,1.,2.22044604925031E-16));
#794=DIRECTION('center_axis',(0.,1.,2.22044604925031E-16));
#795=DIRECTION('ref_axis',(1.,0.,0.));
#796=DIRECTION('center_axis',(0.,1.,2.22044604925031E-16));
#797=DIRECTION('ref_axis',(1.,0.,0.));
#798=DIRECTION('center_axis',(0.,1.,2.22044604925031E-16));
#799=DIRECTION('ref_axis',(1.,0.,0.));
#800=DIRECTION('',(0.,1.,2.22044604925031E-16));
#801=DIRECTION('center_axis',(0.,1.,2.22044604925031E-16));
#802=DIRECTION('ref_axis',(1.,0.,0.));
#803=DIRECTION('',(0.,1.,2.22044604925031E-16));
#804=DIRECTION('center_axis',(0.,-1.,-2.22044604925031E-16));
#805=DIRECTION('ref_axis',(1.,0.,0.));
#806=DIRECTION('',(-0.707106781186547,-0.707106781186548,-7.04136402448282E-17));
#807=CARTESIAN_POINT('',(0.,0.,0.));
#808=CARTESIAN_POINT('Origin',(0.,9.00000000000001,-6.66133814775094E-16));
#809=CARTESIAN_POINT('',(-3.50000005215406,9.00000000000001,-6.66133814775094E-16));
#810=CARTESIAN_POINT('Origin',(0.,9.00000000000001,2.2204460492503E-16));
#811=CARTESIAN_POINT('',(-1.50000002235174,9.00000000000001,-6.66133814775094E-16));
#812=CARTESIAN_POINT('Origin',(0.,9.00000000000001,-6.66133814775094E-16));
#813=CARTESIAN_POINT('Origin',(-1.12864940781338,14.,-6.19807635595452));
#814=CARTESIAN_POINT('',(-1.12864940781338,13.285786541935,-6.19807635595452));
#815=CARTESIAN_POINT('',(-1.12864940781338,14.,-5.47057234723251));
#816=CARTESIAN_POINT('Ctrl Pts',(-1.12864940781338,13.285786541935,-6.19807635595452));
#817=CARTESIAN_POINT('Ctrl Pts',(-1.12864940781338,13.6651577665067,-5.81246659938783));
#818=CARTESIAN_POINT('Ctrl Pts',(-1.12864940781338,14.,-5.47057234723251));
#819=CARTESIAN_POINT('',(-1.12864940781338,12.9999999999999,-6.19807635595452));
#820=CARTESIAN_POINT('',(-1.12864940781338,13.9999999999999,-6.19807635595452));
#821=CARTESIAN_POINT('',(-1.12864940781338,12.9999999999999,-4.89738964093535));
#822=CARTESIAN_POINT('',(-1.12864940781338,13.,-4.69869482046768));
#823=CARTESIAN_POINT('',(-1.12864940781338,13.9999999999999,-4.89738964093535));
#824=CARTESIAN_POINT('',(-1.12864940781338,13.9999999999999,-4.89738964093535));
#825=CARTESIAN_POINT('',(-1.12864940781338,14.,-3.09903817797727));
#826=CARTESIAN_POINT('Origin',(1.17961196366423E-15,14.,0.));
#827=CARTESIAN_POINT('',(1.01134957637849,13.285786541935,-6.21829333775427));
#828=CARTESIAN_POINT('',(4.61224102551222,13.285786541935,-4.29153034739365));
#829=CARTESIAN_POINT('Origin',(9.71445146547012E-16,13.285786541935,0.));
#830=CARTESIAN_POINT('',(1.01134957637849,12.9999999999999,-6.21829333775427));
#831=CARTESIAN_POINT('',(1.01134957637849,13.9999999999999,-6.21829333775427));
#832=CARTESIAN_POINT('',(4.61224102551222,13.,-4.29153034739365));
#833=CARTESIAN_POINT('Origin',(9.0205620750794E-16,13.,0.));
#834=CARTESIAN_POINT('',(4.61224102551121,14.,-4.29153034739256));
#835=CARTESIAN_POINT('Origin',(4.61337397814001,14.,-4.29266330002136));
#836=CARTESIAN_POINT('',(4.10684641484816,14.,-3.78613573672967));
#837=CARTESIAN_POINT('Ctrl Pts',(4.61224102551175,13.2857865419343,-4.2915303473931));
#838=CARTESIAN_POINT('Ctrl Pts',(4.34435921256212,13.6643831161347,-4.02364853444347));
#839=CARTESIAN_POINT('Ctrl Pts',(4.10684641484729,13.9999999999987,-3.78613573672864));
#840=CARTESIAN_POINT('',(3.29999999999999,13.,-2.97928932188134));
#841=CARTESIAN_POINT('',(3.51186465859967,13.,-3.19115398048101));
#842=CARTESIAN_POINT('',(3.29999999999999,14.,-2.97928932188134));
#843=CARTESIAN_POINT('',(3.29999999999999,14.,-2.97928932188134));
#844=CARTESIAN_POINT('',(2.38686465859967,14.,-2.06615398048102));
#845=CARTESIAN_POINT('Origin',(-4.61337397813998,14.,4.29266330002136));
#846=CARTESIAN_POINT('',(-4.61224102551218,13.285786541935,4.29153034739365));
#847=CARTESIAN_POINT('',(-4.10684641484814,14.,3.78613573672968));
#848=CARTESIAN_POINT('Ctrl Pts',(-4.61224102551171,13.2857865419343,4.2915303473931));
#849=CARTESIAN_POINT('Ctrl Pts',(-4.34435921256208,13.6643831161347,4.02364853444347));
#850=CARTESIAN_POINT('Ctrl Pts',(-4.10684641484726,13.9999999999987,3.78613573672865));
#851=CARTESIAN_POINT('',(-4.61224102551218,13.,4.29153034739365));
#852=CARTESIAN_POINT('',(-4.61224102551118,14.,4.29153034739256));
#853=CARTESIAN_POINT('',(-3.29999999999996,13.,2.97928932188135));
#854=CARTESIAN_POINT('',(-1.26186465859964,13.,0.941153980481033));
#855=CARTESIAN_POINT('',(-3.29999999999996,14.,2.97928932188135));
#856=CARTESIAN_POINT('',(-3.29999999999996,14.,2.97928932188135));
#857=CARTESIAN_POINT('',(-2.38686465859964,14.,2.06615398048102));
#858=CARTESIAN_POINT('Origin',(-1.12864940781338,14.,-4.89738964093535));
#859=CARTESIAN_POINT('',(1.01134957637849,13.9999999999999,-4.89738964093535));
#860=CARTESIAN_POINT('',(-0.564324703906689,14.,-4.89738964093535));
#861=CARTESIAN_POINT('',(1.01134957637849,12.9999999999999,-4.89738964093535));
#862=CARTESIAN_POINT('',(0.505674788189217,13.,-4.89738964093535));
#863=CARTESIAN_POINT('',(1.01134957637849,13.9999999999999,-4.89738964093535));
#864=CARTESIAN_POINT('Origin',(1.17961196366423E-15,14.,0.));
#865=CARTESIAN_POINT('',(-4.6122410255122,13.285786541935,-4.29153034739366));
#866=CARTESIAN_POINT('Origin',(9.71445146547012E-16,13.285786541935,0.));
#867=CARTESIAN_POINT('',(-4.6122410255122,13.,-4.29153034739366));
#868=CARTESIAN_POINT('',(-4.61224102551119,14.,-4.29153034739258));
#869=CARTESIAN_POINT('Origin',(9.0205620750794E-16,13.,0.));
#870=CARTESIAN_POINT('Origin',(-3.28535533905928,14.,-2.96464466094067));
#871=CARTESIAN_POINT('',(-4.10684641484814,14.,-3.78613573672968));
#872=CARTESIAN_POINT('Ctrl Pts',(-4.10684641484559,14.000000000001,-3.78613573672697));
#873=CARTESIAN_POINT('Ctrl Pts',(-4.34435921256101,13.6643831161362,-4.0236485344424));
#874=CARTESIAN_POINT('Ctrl Pts',(-4.61224102551141,13.2857865419348,-4.29153034739279));
#875=CARTESIAN_POINT('',(-3.29999999999996,14.,-2.97928932188134));
#876=CARTESIAN_POINT('',(-1.7228553390593,14.,-1.40214466094069));
#877=CARTESIAN_POINT('',(-3.29999999999996,13.,-2.97928932188134));
#878=CARTESIAN_POINT('',(-3.29999999999996,14.,-2.97928932188134));
#879=CARTESIAN_POINT('',(-2.8478553390593,13.,-2.52714466094067));
#880=CARTESIAN_POINT('Origin',(-3.29999999999996,14.,3.00000000000001));
#881=CARTESIAN_POINT('',(-3.29999999999996,14.,1.5));
#882=CARTESIAN_POINT('',(-3.29999999999996,13.,-0.749999999999993));
#883=CARTESIAN_POINT('Origin',(3.43475248243408E-14,14.,0.));
#884=CARTESIAN_POINT('',(4.61224102551224,13.285786541935,4.29153034739366));
#885=CARTESIAN_POINT('Origin',(3.41567052419833E-14,13.285786541935,0.));
#886=CARTESIAN_POINT('',(4.61224102551224,13.,4.29153034739366));
#887=CARTESIAN_POINT('',(4.61224102551123,14.,4.29153034739258));
#888=CARTESIAN_POINT('Origin',(3.40699690681845E-14,13.,0.));
#889=CARTESIAN_POINT('Origin',(3.28535533905932,14.,2.96464466094067));
#890=CARTESIAN_POINT('',(4.10684641484816,14.,3.78613573672967));
#891=CARTESIAN_POINT('Ctrl Pts',(4.10684641484557,14.0000000000011,3.78613573672693));
#892=CARTESIAN_POINT('Ctrl Pts',(4.34435921256103,13.6643831161362,4.02364853444238));
#893=CARTESIAN_POINT('Ctrl Pts',(4.61224102551146,13.2857865419347,4.29153034739281));
#894=CARTESIAN_POINT('',(3.29999999999999,14.,2.97928932188135));
#895=CARTESIAN_POINT('',(1.72285533905932,14.,1.40214466094067));
#896=CARTESIAN_POINT('',(3.29999999999999,13.,2.97928932188135));
#897=CARTESIAN_POINT('',(3.29999999999999,14.,2.97928932188135));
#898=CARTESIAN_POINT('',(0.597855339059322,13.,0.277144660940678));
#899=CARTESIAN_POINT('Origin',(3.29999999999999,14.,-3.00000000000001));
#900=CARTESIAN_POINT('',(3.29999999999999,14.,-1.5));
#901=CARTESIAN_POINT('',(3.29999999999999,13.,-3.75));
#902=CARTESIAN_POINT('Origin',(1.01134957637849,14.,-4.89738964093535));
#903=CARTESIAN_POINT('',(1.01134957637849,14.,-5.49346733187898));
#904=CARTESIAN_POINT('Ctrl Pts',(1.01134957637849,14.,-5.493467331879));
#905=CARTESIAN_POINT('Ctrl Pts',(1.01134957637849,13.6649941532748,-5.83410304281662));
#906=CARTESIAN_POINT('Ctrl Pts',(1.01134957637849,13.285786541935,-6.21829333775427));
#907=CARTESIAN_POINT('',(1.01134957637849,14.,-2.44869482046768));
#908=CARTESIAN_POINT('',(1.01134957637849,13.,-5.35914666887713));
#909=CARTESIAN_POINT('Origin',(-2.77555756156289E-16,13.,-4.49999999999999));
#910=CARTESIAN_POINT('',(-1.50000002235174,13.,1.29392004723456E-15));
#911=CARTESIAN_POINT('Origin',(0.,13.,0.));
#912=CARTESIAN_POINT('Origin',(0.,14.,0.));
#913=CARTESIAN_POINT('Origin',(0.,14.,0.));
#914=CARTESIAN_POINT('Origin',(0.,14.,0.));
#915=CARTESIAN_POINT('',(-5.58578654193396,14.0000000000011,1.17413771418614E-15));
#916=CARTESIAN_POINT('Origin',(0.,14.,0.));
#917=CARTESIAN_POINT('Origin',(0.,14.,0.));
#918=CARTESIAN_POINT('Origin',(0.,14.,0.));
#919=CARTESIAN_POINT('Origin',(0.,14.,0.));
#920=CARTESIAN_POINT('Origin',(-1.96544169828172E-14,8.22695464361749,0.));
#921=CARTESIAN_POINT('',(10.0000001490116,6.86812289431167,0.));
#922=CARTESIAN_POINT('',(10.0000001490116,9.58578639292343,0.));
#923=CARTESIAN_POINT('',(10.0000001490116,4.00000000000001,0.));
#924=CARTESIAN_POINT('',(-0.871557440463815,6.86812289431162,-9.96194712936205));
#925=CARTESIAN_POINT('Origin',(-1.33400235302616E-14,6.86812289431155,0.));
#926=CARTESIAN_POINT('',(-0.871557440463828,9.58578639292337,-9.96194712936205));
#927=CARTESIAN_POINT('',(-0.8715574404638,3.99999999999995,-9.96194712936203));
#928=CARTESIAN_POINT('Origin',(0.,9.58578639292343,0.));
#929=CARTESIAN_POINT('Origin',(-0.947320426606792,8.22695464361751,-10.8279220235896));
#930=CARTESIAN_POINT('',(-1.02308341274977,9.58578639292336,-11.6938969178171));
#931=CARTESIAN_POINT('',(-0.435679595267977,9.58578639292338,-4.97984056115857));
#932=CARTESIAN_POINT('Origin',(-5.12784259498744E-14,15.1803397542189,0.));
#933=CARTESIAN_POINT('Origin',(10.8692829266517,8.22695464361756,0.));
#934=CARTESIAN_POINT('',(11.7385657042918,9.58578639292343,0.));
#935=CARTESIAN_POINT('',(10.4346415378317,9.58578639292343,0.));
#936=CARTESIAN_POINT('Origin',(-3.88578058618805E-15,15.1803397542189,0.));
#937=CARTESIAN_POINT('Origin',(-1.96544169828172E-14,8.22695464361759,0.));
#938=CARTESIAN_POINT('',(-10.0000001490116,9.58578639292343,0.));
#939=CARTESIAN_POINT('',(-10.0000001490116,6.86812289431165,0.));
#940=CARTESIAN_POINT('',(-10.0000001490116,9.58578639292343,0.));
#941=CARTESIAN_POINT('',(0.871557440463785,6.86812289431171,9.96194712936202));
#942=CARTESIAN_POINT('Origin',(-1.33400235302616E-14,6.86812289431163,0.));
#943=CARTESIAN_POINT('',(0.871557440463772,9.58578639292348,9.96194712936202));
#944=CARTESIAN_POINT('',(0.871557440463772,9.58578639292348,9.96194712936202));
#945=CARTESIAN_POINT('Origin',(0.,9.58578639292343,0.));
#946=CARTESIAN_POINT('Origin',(-10.8692829266517,8.22695464361754,0.));
#947=CARTESIAN_POINT('',(-11.7385657042918,9.58578639292341,0.));
#948=CARTESIAN_POINT('Origin',(-3.88578058618805E-15,15.1803397542189,0.));
#949=CARTESIAN_POINT('',(-0.434641388820055,9.58578639292338,0.));
#950=CARTESIAN_POINT('Origin',(0.947320426606749,8.22695464361759,10.8279220235896));
#951=CARTESIAN_POINT('',(1.02308341274971,9.58578639292347,11.6938969178171));
#952=CARTESIAN_POINT('Origin',(-5.14518982974721E-14,15.1803397542189,0.));
#953=CARTESIAN_POINT('',(0.511640831338793,9.58578639292339,5.848081462431));
#954=CARTESIAN_POINT('Origin',(10.0000001490116,9.58578639292343,0.));
#955=CARTESIAN_POINT('Origin',(0.,9.58578639292343,0.));
#956=CARTESIAN_POINT('Origin',(-2.59688104353728E-14,9.58578639292338,0.));
#957=CARTESIAN_POINT('Origin',(10.0000001490116,9.58578639292343,0.));
#958=CARTESIAN_POINT('Origin',(-2.59688104353728E-14,9.58578639292338,0.));
#959=CARTESIAN_POINT('Origin',(0.,9.58578639292343,0.));
#960=CARTESIAN_POINT('Origin',(-3.88578058618805E-15,15.1803397542189,0.));
#961=CARTESIAN_POINT('',(-6.64025263725643,4.00000000000001,0.));
#962=CARTESIAN_POINT('Origin',(-3.88578058618805E-15,4.00000000000001,0.));
#963=CARTESIAN_POINT('Origin',(-3.88578058618805E-15,15.1803397542189,0.));
#964=CARTESIAN_POINT('',(7.19999162969789,5.57549344426026,-4.99999999999172));
#965=CARTESIAN_POINT('',(8.16089576875602,6.37734410743205,-4.99999999997698));
#966=CARTESIAN_POINT('Ctrl Pts',(7.19999162979325,5.57549344431263,-5.00000000003468));
#967=CARTESIAN_POINT('Ctrl Pts',(6.80379411733024,5.67399115455458,-5.75973482847544));
#968=CARTESIAN_POINT('Ctrl Pts',(6.38652600686492,5.77428744055208,-6.33001828071032));
#969=CARTESIAN_POINT('Ctrl Pts',(5.97009069602908,5.92439670003868,-6.91662179689255));
#970=CARTESIAN_POINT('Ctrl Pts',(5.86489827853213,5.97528870798058,-7.06940191057758));
#971=CARTESIAN_POINT('Ctrl Pts',(5.816522647522,6.03461062987142,-7.18450718075353));
#972=CARTESIAN_POINT('Ctrl Pts',(5.80949202686126,6.04607069279856,-7.20474672498895));
#973=CARTESIAN_POINT('Ctrl Pts',(5.80553947189943,6.06609923780981,-7.23321840313487));
#974=CARTESIAN_POINT('Ctrl Pts',(5.80550947877457,6.07432487439022,-7.24359511870929));
#975=CARTESIAN_POINT('Ctrl Pts',(5.81019328290673,6.08945784595411,-7.25882602796677));
#976=CARTESIAN_POINT('Ctrl Pts',(5.81346225038413,6.09584546875887,-7.26420369983995));
#977=CARTESIAN_POINT('Ctrl Pts',(5.82296831819792,6.10858171986017,-7.27250135445479));
#978=CARTESIAN_POINT('Ctrl Pts',(5.82878874211705,6.11450085031463,-7.27521934899251));
#979=CARTESIAN_POINT('Ctrl Pts',(5.8444914057067,6.12772058511658,-7.27908677279357));
#980=CARTESIAN_POINT('Ctrl Pts',(5.854874477395,6.13454968973841,-7.27923242086376));
#981=CARTESIAN_POINT('Ctrl Pts',(5.88580009178798,6.15226584998258,-7.27631447971376));
#982=CARTESIAN_POINT('Ctrl Pts',(5.90897915406324,6.16214397226747,-7.26977451826295));
#983=CARTESIAN_POINT('Ctrl Pts',(5.9899332895112,6.19253326119592,-7.24137582790602));
#984=CARTESIAN_POINT('Ctrl Pts',(6.0603654183506,6.2095309653027,-7.20375527098017));
#985=CARTESIAN_POINT('Ctrl Pts',(6.30349432653555,6.26101189475421,-7.06063172004722));
#986=CARTESIAN_POINT('Ctrl Pts',(6.56212528744683,6.29224226685169,-6.86947885698256));
#987=CARTESIAN_POINT('Ctrl Pts',(7.26144031496801,6.34981949588811,-6.22091380048609));
#988=CARTESIAN_POINT('Ctrl Pts',(7.73009574605398,6.36911248158303,-5.68865022324117));
#989=CARTESIAN_POINT('Ctrl Pts',(8.16089576871549,6.3773441073373,-4.99999999995049));
#990=CARTESIAN_POINT('Origin',(-5.72458747072346E-15,15.1803397542189,-5.));
#991=CARTESIAN_POINT('Origin',(8.625,5.99999999999998,-5.));
#992=CARTESIAN_POINT('',(8.16582053443452,6.46636271260324,-4.9999999999873));
#993=CARTESIAN_POINT('Ctrl Pts',(7.199991629804,5.57549344430763,-5.));
#994=CARTESIAN_POINT('Ctrl Pts',(7.05848050474408,5.56587547843419,-5.));
#995=CARTESIAN_POINT('Ctrl Pts',(6.91486595539548,5.57864630624673,-5.));
#996=CARTESIAN_POINT('Ctrl Pts',(6.59147684607992,5.65518011971825,-5.));
#997=CARTESIAN_POINT('Ctrl Pts',(6.41321556863826,5.73488096833989,-5.));
#998=CARTESIAN_POINT('Ctrl Pts',(6.13211390103171,5.93937276562848,-5.));
#999=CARTESIAN_POINT('Ctrl Pts',(6.02634816163066,6.05073666579667,-4.99999999975738));
#1000=CARTESIAN_POINT('Ctrl Pts',(5.89188011971486,6.26972082428093,-4.99999999975738));
#1001=CARTESIAN_POINT('Ctrl Pts',(5.84980441979077,6.37499694999189,-4.99999999986203));
#1002=CARTESIAN_POINT('Ctrl Pts',(5.81703063507532,6.58103273683592,-4.99999999986203));
#1003=CARTESIAN_POINT('Ctrl Pts',(5.82019758867184,6.6767424966792,-4.9999999999995));
#1004=CARTESIAN_POINT('Ctrl Pts',(5.8652219375497,6.86216422072381,-4.9999999999995));
#1005=CARTESIAN_POINT('Ctrl Pts',(5.90530789146459,6.94793037382963,-4.99999999999009));
#1006=CARTESIAN_POINT('Ctrl Pts',(6.0235300230649,7.11652635687427,-4.99999999999009));
#1007=CARTESIAN_POINT('Ctrl Pts',(6.10516926590548,7.19406399903701,-4.99999999983114));
#1008=CARTESIAN_POINT('Ctrl Pts',(6.31583351325232,7.33943499721647,-4.99999999983114));
#1009=CARTESIAN_POINT('Ctrl Pts',(6.45160224242995,7.39798049348854,-5.00000000000002));
#1010=CARTESIAN_POINT('Ctrl Pts',(6.76642157995371,7.47814009881708,-5.00000000000002));
#1011=CARTESIAN_POINT('Ctrl Pts',(6.95037068954313,7.48867037829605,-5.));
#1012=CARTESIAN_POINT('Ctrl Pts',(7.30795628919857,7.44291147957698,-5.));
#1013=CARTESIAN_POINT('Ctrl Pts',(7.48286578498678,7.38683013019019,-5.0000000000022));
#1014=CARTESIAN_POINT('Ctrl Pts',(7.76833982342372,7.22235495243656,-5.0000000000022));
#1015=CARTESIAN_POINT('Ctrl Pts',(7.88414919391526,7.12499275354382,-5.00000000002569));
#1016=CARTESIAN_POINT('Ctrl Pts',(8.04979563138656,6.9087507950615,-5.00000000002569));
#1017=CARTESIAN_POINT('Ctrl Pts',(8.10634001860623,6.7983320606141,-5.00000000000792));
#1018=CARTESIAN_POINT('Ctrl Pts',(8.15623405480698,6.60970463395108,-5.00000000000792));
#1019=CARTESIAN_POINT('Ctrl Pts',(8.16582053439847,6.53835313135842,-5.00000000000001));
#1020=CARTESIAN_POINT('Ctrl Pts',(8.16582053439824,6.46636271260325,-5.00000000000001));
#1021=CARTESIAN_POINT('Ctrl Pts',(8.16640481797279,6.46637515465741,-5.00035724882514));
#1022=CARTESIAN_POINT('Ctrl Pts',(8.16640501942791,6.45906974028816,-5.00035745227779));
#1023=CARTESIAN_POINT('Ctrl Pts',(8.16630104779855,6.45175763171035,-5.00035440425625));
#1024=CARTESIAN_POINT('Ctrl Pts',(8.16609250779004,6.44444030465804,-5.00034882815391));
#1025=CARTESIAN_POINT('Ctrl Pts',(8.1654546095281,6.42205750031128,-5.00033177154197));
#1026=CARTESIAN_POINT('Ctrl Pts',(8.16384282249928,6.39975705598724,-5.00029052417344));
#1027=CARTESIAN_POINT('Ctrl Pts',(8.16128328706967,6.37757905683359,-5.00023624655602));
#1028=CARTESIAN_POINT('Ctrl Pts',(3.96673404596718,12.3041289597993,-8.71543236308525));
#1029=CARTESIAN_POINT('Ctrl Pts',(5.39386731005971,12.1651347493404,-8.06588831876488));
#1030=CARTESIAN_POINT('Ctrl Pts',(7.92142169294266,11.8871463284225,-6.05319531097919));
#1031=CARTESIAN_POINT('Ctrl Pts',(9.84079704929903,11.4701636970457,-1.59932992863252));
#1032=CARTESIAN_POINT('Ctrl Pts',(9.43121038899623,11.0531810656689,3.23024254907367));
#1033=CARTESIAN_POINT('Ctrl Pts',(6.79097236223708,10.6361984342921,7.2994921397905));
#1034=CARTESIAN_POINT('Ctrl Pts',(2.54750182521976,10.2192158029153,9.63575547436589));
#1035=CARTESIAN_POINT('Ctrl Pts',(-2.84430775995876,9.75590176805218,9.71349054793213));
#1036=CARTESIAN_POINT('Ctrl Pts',(-7.04519299973958,9.33891913667534,7.07877132152849));
#1037=CARTESIAN_POINT('Ctrl Pts',(-9.13475018894062,8.96826790878485,3.38942255721749));
#1038=CARTESIAN_POINT('Ctrl Pts',(-9.95743309091697,8.59761668089436,-0.769980786610732));
#1039=CARTESIAN_POINT('Ctrl Pts',(-8.49196367210564,8.18063404951755,-5.50721715811188));
#1040=CARTESIAN_POINT('Ctrl Pts',(-4.35428501699787,7.71732001465444,-8.96531989170519));
#1041=CARTESIAN_POINT('Ctrl Pts',(0.38573701378797,7.30033738327763,-9.96248615619581));
#1042=CARTESIAN_POINT('Ctrl Pts',(5.04224826191487,6.88335475190083,-8.60059653634967));
#1043=CARTESIAN_POINT('Ctrl Pts',(7.34762969069831,6.60536633098295,-6.33756208418751));
#1044=CARTESIAN_POINT('Ctrl Pts',(8.16642269164319,6.46637212052401,-5.00032805807422));
#1045=CARTESIAN_POINT('Ctrl Pts',(3.96794131604192,12.5875980013946,-8.7148710286234));
#1046=CARTESIAN_POINT('Ctrl Pts',(5.39497631493326,12.4486037909357,-8.06513220482942));
#1047=CARTESIAN_POINT('Ctrl Pts',(7.92225568578742,12.1706153700178,-6.05208549691157));
#1048=CARTESIAN_POINT('Ctrl Pts',(9.84100443967172,11.753632738641,-1.59795732021251));
#1049=CARTESIAN_POINT('Ctrl Pts',(9.43075051933761,11.3366501072642,3.23154800637881));
#1050=CARTESIAN_POINT('Ctrl Pts',(6.78994748485706,10.9196674758874,7.30042611905646));
#1051=CARTESIAN_POINT('Ctrl Pts',(2.5461575815648,10.5026848445106,9.6360978575481));
#1052=CARTESIAN_POINT('Ctrl Pts',(-2.84565379679723,10.0393708096475,9.71308127261578));
#1053=CARTESIAN_POINT('Ctrl Pts',(-7.04616842505953,9.62238817827064,7.07778261700084));
#1054=CARTESIAN_POINT('Ctrl Pts',(-9.13520880308296,9.25173695038015,3.38814787950086));
#1055=CARTESIAN_POINT('Ctrl Pts',(-9.95731353894936,8.88108572248966,-0.771364061409994));
#1056=CARTESIAN_POINT('Ctrl Pts',(-8.49118525977425,8.46410309111285,-5.50839006380805));
#1057=CARTESIAN_POINT('Ctrl Pts',(-4.35303486637076,8.00078905624974,-8.96591368896163));
#1058=CARTESIAN_POINT('Ctrl Pts',(0.38712259413679,7.58380642487292,-9.96241753370982));
#1059=CARTESIAN_POINT('Ctrl Pts',(5.04343512822832,7.16682379349612,-8.59988670075835));
#1060=CARTESIAN_POINT('Ctrl Pts',(7.34850617645795,6.88883537257824,-6.33652740663905));
#1061=CARTESIAN_POINT('Ctrl Pts',(8.16710870229067,6.7498411621193,-4.99918701171101));
#1062=CARTESIAN_POINT('Ctrl Pts',(3.85731434876015,13.1538334986453,-8.46538602190537));
#1063=CARTESIAN_POINT('Ctrl Pts',(5.24351434145141,13.0148392881863,-7.83375368748219));
#1064=CARTESIAN_POINT('Ctrl Pts',(7.69817994445926,12.7368508672685,-5.87737787287222));
#1065=CARTESIAN_POINT('Ctrl Pts',(9.56100505886072,12.3198682358917,-1.54965035616581));
#1066=CARTESIAN_POINT('Ctrl Pts',(9.16107131627118,11.9028856045148,3.14211539437727));
#1067=CARTESIAN_POINT('Ctrl Pts',(6.59438843374222,11.485902973138,7.09428911266306));
#1068=CARTESIAN_POINT('Ctrl Pts',(2.47088300668761,11.0689203417612,9.36219721135378));
#1069=CARTESIAN_POINT('Ctrl Pts',(-2.76729606689908,10.6056063068981,9.43547227671574));
#1070=CARTESIAN_POINT('Ctrl Pts',(-6.84735545001138,10.1886236755213,6.87408905093788));
#1071=CARTESIAN_POINT('Ctrl Pts',(-8.87582419316973,9.81797244763081,3.28901599194353));
#1072=CARTESIAN_POINT('Ctrl Pts',(-9.67332434753378,9.44732121974032,-0.752187930236876));
#1073=CARTESIAN_POINT('Ctrl Pts',(-8.2476496198238,9.0303385883635,-5.35380298605254));
#1074=CARTESIAN_POINT('Ctrl Pts',(-4.22644653902698,8.56702455350039,-8.7116233541466));
#1075=CARTESIAN_POINT('Ctrl Pts',(0.37889534685699,8.15004192212359,-9.67839811906328));
#1076=CARTESIAN_POINT('Ctrl Pts',(4.90213394884422,7.73305929074677,-8.35337289443618));
#1077=CARTESIAN_POINT('Ctrl Pts',(7.14085579981535,7.4550708698289,-6.15388719285558));
#1078=CARTESIAN_POINT('Ctrl Pts',(7.93576169308477,7.31607665936997,-4.85441251188958));
#1079=CARTESIAN_POINT('Ctrl Pts',(3.47770865900026,13.3649369068851,-7.62737720973776));
#1080=CARTESIAN_POINT('Ctrl Pts',(4.72672361732814,13.2259426964262,-7.05788872905175));
#1081=CARTESIAN_POINT('Ctrl Pts',(6.93816614121271,12.9479542755083,-5.29447222404308));
#1082=CARTESIAN_POINT('Ctrl Pts',(8.61585455539773,12.5309716441315,-1.39432340691498));
#1083=CARTESIAN_POINT('Ctrl Pts',(8.25442211820322,12.1139890127547,2.83340278524924));
#1084=CARTESIAN_POINT('Ctrl Pts',(5.9407127100925,11.6970063813779,6.39417214397641));
#1085=CARTESIAN_POINT('Ctrl Pts',(2.22449054510903,11.2800237500011,8.43689180092491));
#1086=CARTESIAN_POINT('Ctrl Pts',(-2.49570463672267,10.816709715138,8.50178513935001));
#1087=CARTESIAN_POINT('Ctrl Pts',(-6.17171301923957,10.3997270837612,6.19280012423433));
#1088=CARTESIAN_POINT('Ctrl Pts',(-7.99880506209409,10.0290758558707,2.96181788196594));
#1089=CARTESIAN_POINT('Ctrl Pts',(-8.71654710855685,9.65842462798019,-0.679922264999772));
#1090=CARTESIAN_POINT('Ctrl Pts',(-7.43086454257919,9.24144199660338,-4.8261667359769));
#1091=CARTESIAN_POINT('Ctrl Pts',(-3.80656708100964,8.77812796174027,-7.85104309868471));
#1092=CARTESIAN_POINT('Ctrl Pts',(0.343539311217263,8.36114533036345,-8.7212154939045));
#1093=CARTESIAN_POINT('Ctrl Pts',(4.41919813502606,7.94416269898666,-7.52620765316402));
#1094=CARTESIAN_POINT('Ctrl Pts',(6.43600336643132,7.66617427806877,-5.54378421527642));
#1095=CARTESIAN_POINT('Ctrl Pts',(7.1520368829789,7.52718006760984,-4.37260895130378));
#1096=CARTESIAN_POINT('Ctrl Pts',(3.16996127801918,12.7757081874748,-6.95794610509531));
#1097=CARTESIAN_POINT('Ctrl Pts',(4.30922328696436,12.6367139770158,-6.43891049884295));
#1098=CARTESIAN_POINT('Ctrl Pts',(6.32693921311948,12.358725556098,-4.83099688318971));
#1099=CARTESIAN_POINT('Ctrl Pts',(7.85813328652896,11.9417429247212,-1.2740762770855));
#1100=CARTESIAN_POINT('Ctrl Pts',(7.52969971759686,11.5247602933443,2.58206873186689));
#1101=CARTESIAN_POINT('Ctrl Pts',(5.42027430941974,11.1077776619675,5.83051370417445));
#1102=CARTESIAN_POINT('Ctrl Pts',(2.03124946322696,10.6907950305907,7.69473269003236));
#1103=CARTESIAN_POINT('Ctrl Pts',(-2.27400283587264,10.2274809957276,7.75517321213588));
#1104=CARTESIAN_POINT('Ctrl Pts',(-5.62756111191783,9.81049836435081,5.65016818567924));
#1105=CARTESIAN_POINT('Ctrl Pts',(-7.29491974776044,9.43984713646031,2.70366936051122));
#1106=CARTESIAN_POINT('Ctrl Pts',(-7.95059575774055,9.06919590856982,-0.617773472764115));
#1107=CARTESIAN_POINT('Ctrl Pts',(-6.77900910502379,8.652213277193,-4.39992383420715));
#1108=CARTESIAN_POINT('Ctrl Pts',(-3.47417418697147,8.18889924232989,-7.15993055606902));
#1109=CARTESIAN_POINT('Ctrl Pts',(0.310979061465847,7.77191661095308,-7.95471114117297));
#1110=CARTESIAN_POINT('Ctrl Pts',(4.02866310522439,7.35493397957627,-6.86594369074094));
#1111=CARTESIAN_POINT('Ctrl Pts',(5.86889252877533,7.0769455586584,-5.05817116346712));
#1112=CARTESIAN_POINT('Ctrl Pts',(6.52223715212189,6.93795134819946,-3.99024949558706));
#1113=CARTESIAN_POINT('Ctrl Pts',(3.16403186283081,11.8317490781245,-6.95869014827978));
#1114=CARTESIAN_POINT('Ctrl Pts',(4.30362451778098,11.6927548676656,-6.4405309234903));
#1115=CARTESIAN_POINT('Ctrl Pts',(6.32181752275024,11.4147664467477,-4.83464543564638));
#1116=CARTESIAN_POINT('Ctrl Pts',(7.85547907449273,10.9977838153709,-1.27972797659006));
#1117=CARTESIAN_POINT('Ctrl Pts',(7.52987643693298,10.5808011839941,2.57592060777279));
#1118=CARTESIAN_POINT('Ctrl Pts',(5.42343875535455,10.1638185526173,5.82517593449018));
#1119=CARTESIAN_POINT('Ctrl Pts',(2.03657202445157,9.7468359212405,7.69145550865518));
#1120=CARTESIAN_POINT('Ctrl Pts',(-2.26772835898993,9.28352188637737,7.75515755392161));
#1121=CARTESIAN_POINT('Ctrl Pts',(-5.62206168511117,8.86653925500057,5.65309003204056));
#1122=CARTESIAN_POINT('Ctrl Pts',(-7.29127978650206,8.49588802711007,2.70850904700407));
#1123=CARTESIAN_POINT('Ctrl Pts',(-7.94924639635359,8.12523679921958,-0.61170699498553));
#1124=CARTESIAN_POINT('Ctrl Pts',(-6.78081609053346,7.70825416784277,-4.3938920437744));
#1125=CARTESIAN_POINT('Ctrl Pts',(-3.47866598505626,7.24494013297965,-7.15571984392526));
#1126=CARTESIAN_POINT('Ctrl Pts',(0.304942193361158,6.82795750160285,-7.95321341398993));
#1127=CARTESIAN_POINT('Ctrl Pts',(4.02270830057687,6.41097487022604,-6.86732068005645));
#1128=CARTESIAN_POINT('Ctrl Pts',(5.86363157755201,6.13298644930817,-5.06156649434794));
#1129=CARTESIAN_POINT('Ctrl Pts',(6.51774084420448,5.99399223884924,-3.9941858365083));
#1130=CARTESIAN_POINT('Ctrl Pts',(3.46776807358465,11.2450776393342,-7.63271796764239));
#1131=CARTESIAN_POINT('Ctrl Pts',(4.71755592717933,11.1060834288753,-7.06490317997217));
#1132=CARTESIAN_POINT('Ctrl Pts',(6.93168418533544,10.8280950079574,-5.30423051586149));
#1133=CARTESIAN_POINT('Ctrl Pts',(8.61467580578574,10.4111123765806,-1.4059773612777));
#1134=CARTESIAN_POINT('Ctrl Pts',(8.25895020133295,9.99412974520376,2.82252887070214));
#1135=CARTESIAN_POINT('Ctrl Pts',(5.94978546411579,9.57714711382698,6.38672187129728));
#1136=CARTESIAN_POINT('Ctrl Pts',(2.23599199774206,9.16016448245015,8.43462898075853));
#1137=CARTESIAN_POINT('Ctrl Pts',(-2.48448341186064,8.69685044758704,8.50583752417674));
#1138=CARTESIAN_POINT('Ctrl Pts',(-6.16392280024854,8.27986781621022,6.20161450382915));
#1139=CARTESIAN_POINT('Ctrl Pts',(-7.9954910931206,7.90921658831973,2.97280913480268));
#1140=CARTESIAN_POINT('Ctrl Pts',(-8.71820482193205,7.53856536042924,-0.668268806340718));
#1141=CARTESIAN_POINT('Ctrl Pts',(-7.43794894897586,7.12158272905243,-4.81658382937402));
#1142=CARTESIAN_POINT('Ctrl Pts',(-3.81746692035051,6.65826869418931,-7.84659471534785));
#1143=CARTESIAN_POINT('Ctrl Pts',(0.331868984993184,6.24128606281251,-8.72238212475631));
#1144=CARTESIAN_POINT('Ctrl Pts',(4.40942444492907,5.8243034314357,-7.53281834125375));
#1145=CARTESIAN_POINT('Ctrl Pts',(6.42917974582295,5.54631501051782,-5.55282104187785));
#1146=CARTESIAN_POINT('Ctrl Pts',(7.14679074841616,5.40732080005889,-4.3825997973916));
#1147=CARTESIAN_POINT('Ctrl Pts',(3.85007072831169,11.4530192490735,-8.4687540286765));
#1148=CARTESIAN_POINT('Ctrl Pts',(5.23686031221015,11.3140250386146,-7.83829037109496));
#1149=CARTESIAN_POINT('Ctrl Pts',(7.69317598739069,11.0360366176967,-5.88403675727796));
#1150=CARTESIAN_POINT('Ctrl Pts',(9.55976071662464,10.6190539863199,-1.55788600668582));
#1151=CARTESIAN_POINT('Ctrl Pts',(9.1638305342229,10.2020713549431,3.13428265054644));
#1152=CARTESIAN_POINT('Ctrl Pts',(6.60053769802231,9.78508872356628,7.08868523706729));
#1153=CARTESIAN_POINT('Ctrl Pts',(2.47894846861737,9.36810609218947,9.36014291226051));
#1154=CARTESIAN_POINT('Ctrl Pts',(-2.75921984586826,8.90479205732635,9.4379279286138));
#1155=CARTESIAN_POINT('Ctrl Pts',(-6.84150289809168,8.48780942594955,6.8800212781038));
#1156=CARTESIAN_POINT('Ctrl Pts',(-8.87307250831565,8.11715819805905,3.29666405824332));
#1157=CARTESIAN_POINT('Ctrl Pts',(-9.67404165933946,7.74650697016856,-0.743888281441307));
#1158=CARTESIAN_POINT('Ctrl Pts',(-8.25232009381206,7.32952433879174,-5.34676555187553));
#1159=CARTESIAN_POINT('Ctrl Pts',(-4.23394744278968,6.86621030392863,-8.70806057060795));
#1160=CARTESIAN_POINT('Ctrl Pts',(0.370581864764089,6.44922767255182,-9.67880985397926));
#1161=CARTESIAN_POINT('Ctrl Pts',(4.89501275096352,6.03224504117502,-8.35763190798406));
#1162=CARTESIAN_POINT('Ctrl Pts',(7.13559688525748,5.75425662025714,-6.16009525814632));
#1163=CARTESIAN_POINT('Ctrl Pts',(7.9316456291999,5.61526240979821,-4.86125879006881));
#1164=CARTESIAN_POINT('Ctrl Pts',(3.96552677589244,12.020659918204,-8.71599369754711));
#1165=CARTESIAN_POINT('Ctrl Pts',(5.39275830518617,11.8816657077451,-8.06664443270034));
#1166=CARTESIAN_POINT('Ctrl Pts',(7.92058770009791,11.6036772868272,-6.05430512504681));
#1167=CARTESIAN_POINT('Ctrl Pts',(9.84058965892636,11.1866946554504,-1.60070253705252));
#1168=CARTESIAN_POINT('Ctrl Pts',(9.43167025865485,10.7697120240736,3.22893709176854));
#1169=CARTESIAN_POINT('Ctrl Pts',(6.79199723961709,10.3527293926968,7.29855816052453));
#1170=CARTESIAN_POINT('Ctrl Pts',(2.54884606887472,9.93574676131998,9.63541309118368));
#1171=CARTESIAN_POINT('Ctrl Pts',(-2.84296172312029,9.47243272645687,9.71389982324846));
#1172=CARTESIAN_POINT('Ctrl Pts',(-7.04421757441963,9.05545009508006,7.07976002605615));
#1173=CARTESIAN_POINT('Ctrl Pts',(-9.13429157479827,8.68479886718955,3.39069723493412));
#1174=CARTESIAN_POINT('Ctrl Pts',(-9.95755264288458,8.31414763929908,-0.768597511811469));
#1175=CARTESIAN_POINT('Ctrl Pts',(-8.49274208443702,7.89716500792225,-5.50604425241572));
#1176=CARTESIAN_POINT('Ctrl Pts',(-4.35553516762498,7.43385097305915,-8.96472609444874));
#1177=CARTESIAN_POINT('Ctrl Pts',(0.384351433439152,7.01686834168233,-9.96255477868181));
#1178=CARTESIAN_POINT('Ctrl Pts',(5.04106139560142,6.59988571030553,-8.60130637194098));
#1179=CARTESIAN_POINT('Ctrl Pts',(7.34675320493866,6.32189728938765,-6.33859676173597));
#1180=CARTESIAN_POINT('Ctrl Pts',(8.16573668099571,6.18290307892872,-5.00146910443742));
#1181=CARTESIAN_POINT('Ctrl Pts',(3.96673404596718,12.3041289597993,-8.71543236308525));
#1182=CARTESIAN_POINT('Ctrl Pts',(5.39386731005971,12.1651347493404,-8.06588831876488));
#1183=CARTESIAN_POINT('Ctrl Pts',(7.92142169294266,11.8871463284225,-6.05319531097919));
#1184=CARTESIAN_POINT('Ctrl Pts',(9.84079704929903,11.4701636970457,-1.59932992863252));
#1185=CARTESIAN_POINT('Ctrl Pts',(9.43121038899623,11.0531810656689,3.23024254907367));
#1186=CARTESIAN_POINT('Ctrl Pts',(6.79097236223708,10.6361984342921,7.2994921397905));
#1187=CARTESIAN_POINT('Ctrl Pts',(2.54750182521976,10.2192158029153,9.63575547436589));
#1188=CARTESIAN_POINT('Ctrl Pts',(-2.84430775995876,9.75590176805218,9.71349054793213));
#1189=CARTESIAN_POINT('Ctrl Pts',(-7.04519299973958,9.33891913667534,7.07877132152849));
#1190=CARTESIAN_POINT('Ctrl Pts',(-9.13475018894062,8.96826790878485,3.38942255721749));
#1191=CARTESIAN_POINT('Ctrl Pts',(-9.95743309091697,8.59761668089436,-0.769980786610732));
#1192=CARTESIAN_POINT('Ctrl Pts',(-8.49196367210564,8.18063404951755,-5.50721715811188));
#1193=CARTESIAN_POINT('Ctrl Pts',(-4.35428501699787,7.71732001465444,-8.96531989170519));
#1194=CARTESIAN_POINT('Ctrl Pts',(0.38573701378797,7.30033738327763,-9.96248615619581));
#1195=CARTESIAN_POINT('Ctrl Pts',(5.04224826191487,6.88335475190083,-8.60059653634967));
#1196=CARTESIAN_POINT('Ctrl Pts',(7.34762969069831,6.60536633098295,-6.33756208418751));
#1197=CARTESIAN_POINT('Ctrl Pts',(8.16642269164319,6.46637212052401,-5.00032805807422));
#1198=CARTESIAN_POINT('',(0.121672651642583,10.0104766769607,9.5742784992764));
#1199=CARTESIAN_POINT('Ctrl Pts',(0.121651408038178,10.0108588330281,9.57520320046358));
#1200=CARTESIAN_POINT('Ctrl Pts',(-0.663295066109024,9.94131694586489,9.58591019576231));
#1201=CARTESIAN_POINT('Ctrl Pts',(-3.54400414500518,9.68644944475645,9.27465363306722));
#1202=CARTESIAN_POINT('Ctrl Pts',(-7.04519299973958,9.33891913667534,7.07877132152849));
#1203=CARTESIAN_POINT('Ctrl Pts',(-9.13475018894062,8.96826790878485,3.38942255721749));
#1204=CARTESIAN_POINT('Ctrl Pts',(-9.95743309091697,8.59761668089436,-0.769980786610732));
#1205=CARTESIAN_POINT('Ctrl Pts',(-8.49196367210564,8.18063404951755,-5.50721715811188));
#1206=CARTESIAN_POINT('Ctrl Pts',(-4.35428501699787,7.71732001465444,-8.96531989170519));
#1207=CARTESIAN_POINT('Ctrl Pts',(0.38573701378797,7.30033738327763,-9.96248615619581));
#1208=CARTESIAN_POINT('Ctrl Pts',(5.04223718558499,6.88335574376726,-8.60059977584334));
#1209=CARTESIAN_POINT('Ctrl Pts',(7.34761323942418,6.6053683147158,-6.33757823324504));
#1210=CARTESIAN_POINT('Ctrl Pts',(8.16640516280547,6.4663750961233,-5.00035668565685));
#1211=CARTESIAN_POINT('Ctrl Pts',(0.121672651642583,10.0104766769607,9.5742784992764));
#1212=CARTESIAN_POINT('Ctrl Pts',(-0.505068040760736,10.0103860187021,9.58225032329045));
#1213=CARTESIAN_POINT('Ctrl Pts',(-1.10929006649114,10.0154069274072,9.52347702940724));
#1214=CARTESIAN_POINT('Ctrl Pts',(-2.6693214919291,10.0484755886912,9.21187439444784));
#1215=CARTESIAN_POINT('Ctrl Pts',(-3.40532237371073,10.0906251277978,8.87412885772367));
#1216=CARTESIAN_POINT('Ctrl Pts',(-3.84071388614459,10.1691296311628,8.59814239248776));
#1217=CARTESIAN_POINT('Ctrl Pts',(-3.96298664389257,10.193029283201,8.51619668142936));
#1218=CARTESIAN_POINT('Ctrl Pts',(-4.03314044371689,10.2374559357785,8.4335815483297));
#1219=CARTESIAN_POINT('Ctrl Pts',(-4.04364465449662,10.2459230366096,8.41915234047908));
#1220=CARTESIAN_POINT('Ctrl Pts',(-4.05351929163532,10.2617134568248,8.39686648906385));
#1221=CARTESIAN_POINT('Ctrl Pts',(-4.05584684328172,10.2682445608759,8.38848651646005));
#1222=CARTESIAN_POINT('Ctrl Pts',(-4.05555426749097,10.2810820739758,8.37436632613748));
#1223=CARTESIAN_POINT('Ctrl Pts',(-4.05395905427912,10.2868208151654,8.36876215748536));
#1224=CARTESIAN_POINT('Ctrl Pts',(-4.04748124916597,10.298797352067,8.35859224102512));
#1225=CARTESIAN_POINT('Ctrl Pts',(-4.04271430828945,10.3046582516544,8.35438907365207));
#1226=CARTESIAN_POINT('Ctrl Pts',(-4.02840085655863,10.3186044216012,8.34581818315819));
#1227=CARTESIAN_POINT('Ctrl Pts',(-4.0176344419197,10.326355253392,8.34240738473417));
#1228=CARTESIAN_POINT('Ctrl Pts',(-3.98402594647159,10.3472313389879,8.33539293996237));
#1229=CARTESIAN_POINT('Ctrl Pts',(-3.9557118178883,10.360355825605,8.33436455890974));
#1230=CARTESIAN_POINT('Ctrl Pts',(-3.84351690797027,10.405403644315,8.33742095966404));
#1231=CARTESIAN_POINT('Ctrl Pts',(-3.72979237142201,10.4367039868148,8.35498932502773));
#1232=CARTESIAN_POINT('Ctrl Pts',(-3.10414649751601,10.5861801021308,8.46268950491174));
#1233=CARTESIAN_POINT('Ctrl Pts',(-2.1844704097273,10.715804126274,8.67774699265226));
#1234=CARTESIAN_POINT('Ctrl Pts',(0.353555111911439,10.9946330936101,8.68784531824668));
#1235=CARTESIAN_POINT('Ctrl Pts',(1.5393617878877,11.0966249475347,8.41699829621987));
#1236=CARTESIAN_POINT('Ctrl Pts',(3.58785355428708,11.2760814364428,7.58041741853043));
#1237=CARTESIAN_POINT('Ctrl Pts',(4.55154357222129,11.3579776284979,6.94941017080753));
#1238=CARTESIAN_POINT('Ctrl Pts',(6.13651309564771,11.5057547520055,5.36783480640262));
#1239=CARTESIAN_POINT('Ctrl Pts',(6.75551559988937,11.5705688945779,4.45168812509761));
#1240=CARTESIAN_POINT('Ctrl Pts',(7.57956563199368,11.6857704779428,2.4622584686292));
#1241=CARTESIAN_POINT('Ctrl Pts',(7.79380366239776,11.7355785177246,1.41785771501622));
#1242=CARTESIAN_POINT('Ctrl Pts',(7.80446161928162,11.8198326517612,-0.669451960147782));
#1243=CARTESIAN_POINT('Ctrl Pts',(7.61551672661514,11.8541145945658,-1.68991085657899));
#1244=CARTESIAN_POINT('Ctrl Pts',(6.87036957582014,11.9015451448787,-3.58369072615423));
#1245=CARTESIAN_POINT('Ctrl Pts',(6.33807579218871,11.9160094537805,-4.4363619582986));
#1246=CARTESIAN_POINT('Ctrl Pts',(4.92524112848323,11.9019707103158,-5.99804044616531));
#1247=CARTESIAN_POINT('Ctrl Pts',(4.18574700799304,11.8689779950128,-6.5065465703054));
#1248=CARTESIAN_POINT('Ctrl Pts',(3.57844951497932,11.7814395458306,-6.93809883006494));
#1249=CARTESIAN_POINT('Ctrl Pts',(3.42941229002264,11.7515529900099,-7.04456190243066));
#1250=CARTESIAN_POINT('Ctrl Pts',(3.33018602380486,11.7025312937209,-7.14536354851855));
#1251=CARTESIAN_POINT('Ctrl Pts',(3.31296971307111,11.6915979602121,-7.16538740889156));
#1252=CARTESIAN_POINT('Ctrl Pts',(3.29534700611975,11.6719590753052,-7.19509954628148));
#1253=CARTESIAN_POINT('Ctrl Pts',(3.29033069794823,11.6637735261317,-7.20638952805062));
#1254=CARTESIAN_POINT('Ctrl Pts',(3.2876189071301,11.648040517486,-7.22491461183383));
#1255=CARTESIAN_POINT('Ctrl Pts',(3.28818442486802,11.64125053367,-7.23211557449746));
#1256=CARTESIAN_POINT('Ctrl Pts',(3.29336813234331,11.6273154461952,-7.24506650237734));
#1257=CARTESIAN_POINT('Ctrl Pts',(3.29760948262201,11.620661941377,-7.25044769104901));
#1258=CARTESIAN_POINT('Ctrl Pts',(3.31064608190042,11.6055259124223,-7.26114318233399));
#1259=CARTESIAN_POINT('Ctrl Pts',(3.32029627383821,11.5974166240518,-7.26565553591854));
#1260=CARTESIAN_POINT('Ctrl Pts',(3.35032914742987,11.5760578274409,-7.27538876320173));
#1261=CARTESIAN_POINT('Ctrl Pts',(3.37458065000978,11.5633662834317,-7.27817599980874));
#1262=CARTESIAN_POINT('Ctrl Pts',(3.4653011281588,11.5214478362881,-7.28209258196088));
#1263=CARTESIAN_POINT('Ctrl Pts',(3.54966618829268,11.4952889468858,-7.2704172173303));
#1264=CARTESIAN_POINT('Ctrl Pts',(3.80666459156029,11.4203658628969,-7.22645184134043));
#1265=CARTESIAN_POINT('Ctrl Pts',(4.09587875672712,11.3595701340324,-7.14347676721498));
#1266=CARTESIAN_POINT('Ctrl Pts',(5.07998590806561,11.1851010252904,-6.72591208115323));
#1267=CARTESIAN_POINT('Ctrl Pts',(5.87536675998703,11.0761311549637,-6.24910843196972));
#1268=CARTESIAN_POINT('Ctrl Pts',(7.24070289975686,10.8859510240262,-4.89503152152014));
#1269=CARTESIAN_POINT('Ctrl Pts',(7.74564580066894,10.8138298995094,-4.20444663883254));
#1270=CARTESIAN_POINT('Ctrl Pts',(8.56306358611246,10.6756869581806,-2.62823974490212));
#1271=CARTESIAN_POINT('Ctrl Pts',(8.85056213131844,10.6120295509978,-1.74480597762246));
#1272=CARTESIAN_POINT('Ctrl Pts',(8.99395287838433,10.553339558709,-0.833012680690234));
#1273=CARTESIAN_POINT('Ctrl Pts',(9.17326665129972,10.4799462319776,0.307208006748904));
#1274=CARTESIAN_POINT('Ctrl Pts',(9.12537846669079,10.4151990321591,1.47925369551913));
#1275=CARTESIAN_POINT('Ctrl Pts',(8.57646719169356,10.2974619170518,3.75296430860095));
#1276=CARTESIAN_POINT('Ctrl Pts',(8.0794070795708,10.2456246283533,4.83346245540471));
#1277=CARTESIAN_POINT('Ctrl Pts',(6.6956298748965,10.1544096129701,6.74535555267461));
#1278=CARTESIAN_POINT('Ctrl Pts',(5.82385441809068,10.1157024805533,7.56157055187286));
#1279=CARTESIAN_POINT('Ctrl Pts',(3.83108241500342,10.0538394612703,8.80486474224906));
#1280=CARTESIAN_POINT('Ctrl Pts',(2.73237393211594,10.0305753657453,9.23087526433303));
#1281=CARTESIAN_POINT('Ctrl Pts',(1.08417211177871,10.0135474792964,9.52389642318297));
#1282=CARTESIAN_POINT('Ctrl Pts',(0.596460832021681,10.0105453552357,9.56823943421518));
#1283=CARTESIAN_POINT('Ctrl Pts',(0.121672651642588,10.0104766769607,9.5742784992764));
#1284=CARTESIAN_POINT('Origin',(0.,4.00000000000001,0.));
#1285=CARTESIAN_POINT('',(-3.50000005215406,4.00000000000001,0.));
#1286=CARTESIAN_POINT('Origin',(0.,4.00000000000001,0.));
#1287=CARTESIAN_POINT('Origin',(0.,8.00000000000001,0.));
#1288=CARTESIAN_POINT('',(-1.50000002235174,8.00000000000001,1.83697022609402E-16));
#1289=CARTESIAN_POINT('Origin',(0.,8.00000000000001,0.));
#1290=CARTESIAN_POINT('',(-3.50000005215406,8.00000000000001,4.28626386088604E-16));
#1291=CARTESIAN_POINT('Origin',(0.,11.7928932188134,0.));
#1292=CARTESIAN_POINT('',(-7.79289332312158,11.7928932188134,9.54354186425763E-16));
#1293=UNCERTAINTY_MEASURE_WITH_UNIT(LENGTH_MEASURE(0.01),#1297,
'DISTANCE_ACCURACY_VALUE',
'Maximum model space distance between geometric entities at asserted c
onnectivities');
#1294=UNCERTAINTY_MEASURE_WITH_UNIT(LENGTH_MEASURE(0.01),#1297,
'DISTANCE_ACCURACY_VALUE',
'Maximum model space distance between geometric entities at asserted c
onnectivities');
#1295=(
GEOMETRIC_REPRESENTATION_CONTEXT(3)
GLOBAL_UNCERTAINTY_ASSIGNED_CONTEXT((#1293))
GLOBAL_UNIT_ASSIGNED_CONTEXT((#1297,#1299,#1300))
REPRESENTATION_CONTEXT('','3D')
);
#1296=(
GEOMETRIC_REPRESENTATION_CONTEXT(3)
GLOBAL_UNCERTAINTY_ASSIGNED_CONTEXT((#1294))
GLOBAL_UNIT_ASSIGNED_CONTEXT((#1297,#1299,#1300))
REPRESENTATION_CONTEXT('','3D')
);
#1297=(
LENGTH_UNIT()
NAMED_UNIT(*)
SI_UNIT(.MILLI.,.METRE.)
);
#1298=(
LENGTH_UNIT()
NAMED_UNIT(*)
SI_UNIT($,.METRE.)
);
#1299=(
NAMED_UNIT(*)
PLANE_ANGLE_UNIT()
SI_UNIT($,.RADIAN.)
);
#1300=(
NAMED_UNIT(*)
SI_UNIT($,.STERADIAN.)
SOLID_ANGLE_UNIT()
);
#1301=SHAPE_DEFINITION_REPRESENTATION(#1302,#1303);
#1302=PRODUCT_DEFINITION_SHAPE('',$,#1305);
#1303=SHAPE_REPRESENTATION('',(#583),#1295);
#1304=PRODUCT_DEFINITION_CONTEXT('part definition',#1309,'design');
#1305=PRODUCT_DEFINITION('LArge feet','LArge feet v4',#1306,#1304);
#1306=PRODUCT_DEFINITION_FORMATION('',$,#1311);
#1307=PRODUCT_RELATED_PRODUCT_CATEGORY('LArge feet v4','LArge feet v4',
(#1311));
#1308=APPLICATION_PROTOCOL_DEFINITION('international standard',
'automotive_design',2009,#1309);
#1309=APPLICATION_CONTEXT(
'Core Data for Automotive Mechanical Design Process');
#1310=PRODUCT_CONTEXT('part definition',#1309,'mechanical');
#1311=PRODUCT('LArge feet','LArge feet v4',$,(#1310));
#1312=PRESENTATION_STYLE_ASSIGNMENT((#1315));
#1313=PRESENTATION_STYLE_ASSIGNMENT((#1316));
#1314=PRESENTATION_STYLE_ASSIGNMENT((#1317));
#1315=SURFACE_STYLE_USAGE(.BOTH.,#1318);
#1316=SURFACE_STYLE_USAGE(.BOTH.,#1319);
#1317=SURFACE_STYLE_USAGE(.BOTH.,#1320);
#1318=SURFACE_SIDE_STYLE('',(#1321));
#1319=SURFACE_SIDE_STYLE('',(#1322));
#1320=SURFACE_SIDE_STYLE('',(#1323));
#1321=SURFACE_STYLE_FILL_AREA(#1324);
#1322=SURFACE_STYLE_FILL_AREA(#1325);
#1323=SURFACE_STYLE_FILL_AREA(#1326);
#1324=FILL_AREA_STYLE('Steel - Satin',(#1327));
#1325=FILL_AREA_STYLE('EPX 86FR (with Carbon M2 M3 L1 3D Printers)',(#1328));
#1326=FILL_AREA_STYLE('ABS (White)',(#1329));
#1327=FILL_AREA_STYLE_COLOUR('Steel - Satin',#1330);
#1328=FILL_AREA_STYLE_COLOUR(
'EPX 86FR (with Carbon M2 M3 L1 3D Printers)',#1331);
#1329=FILL_AREA_STYLE_COLOUR('ABS (White)',#1332);
#1330=COLOUR_RGB('Steel - Satin',0.627450980392157,0.627450980392157,0.627450980392157);
#1331=COLOUR_RGB('EPX 86FR (with Carbon M2 M3 L1 3D Printers)',0.247058823529412,
0.247058823529412,0.247058823529412);
#1332=COLOUR_RGB('ABS (White)',0.505882352941176,0.443137254901961,0.67843137254902);
ENDSEC;
END-ISO-10303-21;
