ISO-10303-21;
HEADER;
/* Generated by software containing ST-Developer
 * from STEP Tools, Inc. (www.steptools.com) 
 */

FILE_DESCRIPTION(
/* description */ (''),
/* implementation_level */ '2;1');

FILE_NAME(
/* name */ '351049de-ec79-492e-a28a-9069ffe2b64c.stp',
/* time_stamp */ '2026-04-24T18:32:07Z',
/* author */ (''),
/* organization */ (''),
/* preprocessor_version */ 'ST-DEVELOPER v20.1',
/* originating_system */ 'Autodesk Translation Framework v15.8.0.0',
/* authorisation */ '');

FILE_SCHEMA (('AUTOMOTIVE_DESIGN { 1 0 10303 214 3 1 1 }'));
ENDSEC;

DATA;
#10=MECHANICAL_DESIGN_GEOMETRIC_PRESENTATION_REPRESENTATION('',(#17),#871);
#11=ITEM_DEFINED_TRANSFORMATION($,$,#534,#576);
#12=(
REPRESENTATION_RELATIONSHIP($,$,#882,#881)
REPRESENTATION_RELATIONSHIP_WITH_TRANSFORMATION(#11)
SHAPE_REPRESENTATION_RELATIONSHIP()
);
#13=CONTEXT_DEPENDENT_SHAPE_REPRESENTATION(#12,#880);
#14=NEXT_ASSEMBLY_USAGE_OCCURRENCE('Servo:1','Servo:1','Servo:1',#884,#885,
'Servo:1');
#15=SHAPE_REPRESENTATION_RELATIONSHIP('SRR','None',#882,#16);
#16=ADVANCED_BREP_SHAPE_REPRESENTATION('',(#18),#870);
#17=STYLED_ITEM('',(#896),#18);
#18=MANIFOLD_SOLID_BREP('Body1',#520);
#19=FACE_BOUND('',#81,.T.);
#20=FACE_BOUND('',#91,.T.);
#21=FACE_BOUND('',#93,.T.);
#22=FACE_BOUND('',#95,.T.);
#23=FACE_BOUND('',#98,.T.);
#24=FACE_BOUND('',#100,.T.);
#25=CIRCLE('',#541,2.5);
#26=CIRCLE('',#542,2.5);
#27=CIRCLE('',#545,6.3);
#28=CIRCLE('',#546,6.3);
#29=CIRCLE('',#547,6.3);
#30=CIRCLE('',#548,6.3);
#31=CIRCLE('',#549,6.3);
#32=CIRCLE('',#551,2.25);
#33=CIRCLE('',#552,2.25);
#34=CIRCLE('',#560,1.);
#35=CIRCLE('',#561,1.);
#36=CIRCLE('',#563,1.);
#37=CIRCLE('',#564,1.);
#38=CYLINDRICAL_SURFACE('',#540,2.5);
#39=CYLINDRICAL_SURFACE('',#544,6.3);
#40=CYLINDRICAL_SURFACE('',#550,2.25);
#41=CYLINDRICAL_SURFACE('',#559,1.);
#42=CYLINDRICAL_SURFACE('',#562,1.);
#43=FACE_OUTER_BOUND('',#71,.T.);
#44=FACE_OUTER_BOUND('',#72,.T.);
#45=FACE_OUTER_BOUND('',#73,.T.);
#46=FACE_OUTER_BOUND('',#74,.T.);
#47=FACE_OUTER_BOUND('',#75,.T.);
#48=FACE_OUTER_BOUND('',#76,.T.);
#49=FACE_OUTER_BOUND('',#77,.T.);
#50=FACE_OUTER_BOUND('',#78,.T.);
#51=FACE_OUTER_BOUND('',#79,.T.);
#52=FACE_OUTER_BOUND('',#80,.T.);
#53=FACE_OUTER_BOUND('',#82,.T.);
#54=FACE_OUTER_BOUND('',#83,.T.);
#55=FACE_OUTER_BOUND('',#84,.T.);
#56=FACE_OUTER_BOUND('',#85,.T.);
#57=FACE_OUTER_BOUND('',#86,.T.);
#58=FACE_OUTER_BOUND('',#87,.T.);
#59=FACE_OUTER_BOUND('',#88,.T.);
#60=FACE_OUTER_BOUND('',#89,.T.);
#61=FACE_OUTER_BOUND('',#90,.T.);
#62=FACE_OUTER_BOUND('',#92,.T.);
#63=FACE_OUTER_BOUND('',#94,.T.);
#64=FACE_OUTER_BOUND('',#96,.T.);
#65=FACE_OUTER_BOUND('',#97,.T.);
#66=FACE_OUTER_BOUND('',#99,.T.);
#67=FACE_OUTER_BOUND('',#101,.T.);
#68=FACE_OUTER_BOUND('',#102,.T.);
#69=FACE_OUTER_BOUND('',#103,.T.);
#70=FACE_OUTER_BOUND('',#104,.T.);
#71=EDGE_LOOP('',(#331,#332,#333,#334));
#72=EDGE_LOOP('',(#335,#336,#337,#338));
#73=EDGE_LOOP('',(#339,#340,#341,#342));
#74=EDGE_LOOP('',(#343,#344,#345,#346));
#75=EDGE_LOOP('',(#347,#348,#349,#350));
#76=EDGE_LOOP('',(#351,#352,#353,#354));
#77=EDGE_LOOP('',(#355));
#78=EDGE_LOOP('',(#356,#357,#358,#359,#360,#361,#362));
#79=EDGE_LOOP('',(#363,#364,#365,#366));
#80=EDGE_LOOP('',(#367,#368));
#81=EDGE_LOOP('',(#369));
#82=EDGE_LOOP('',(#370,#371,#372));
#83=EDGE_LOOP('',(#373,#374,#375));
#84=EDGE_LOOP('',(#376,#377,#378,#379,#380,#381));
#85=EDGE_LOOP('',(#382,#383,#384,#385,#386,#387,#388,#389,#390,#391,#392,
#393,#394));
#86=EDGE_LOOP('',(#395,#396,#397,#398,#399));
#87=EDGE_LOOP('',(#400,#401,#402,#403));
#88=EDGE_LOOP('',(#404,#405,#406,#407));
#89=EDGE_LOOP('',(#408,#409,#410,#411));
#90=EDGE_LOOP('',(#412,#413,#414,#415));
#91=EDGE_LOOP('',(#416));
#92=EDGE_LOOP('',(#417,#418,#419,#420));
#93=EDGE_LOOP('',(#421));
#94=EDGE_LOOP('',(#422,#423,#424,#425));
#95=EDGE_LOOP('',(#426,#427,#428,#429));
#96=EDGE_LOOP('',(#430,#431,#432,#433));
#97=EDGE_LOOP('',(#434,#435,#436,#437));
#98=EDGE_LOOP('',(#438));
#99=EDGE_LOOP('',(#439,#440,#441,#442));
#100=EDGE_LOOP('',(#443));
#101=EDGE_LOOP('',(#444,#445,#446,#447));
#102=EDGE_LOOP('',(#448,#449,#450,#451));
#103=EDGE_LOOP('',(#452,#453,#454,#455,#456,#457,#458,#459,#460,#461,#462,
#463,#464));
#104=EDGE_LOOP('',(#465,#466,#467,#468));
#105=LINE('',#726,#161);
#106=LINE('',#728,#162);
#107=LINE('',#730,#163);
#108=LINE('',#731,#164);
#109=LINE('',#734,#165);
#110=LINE('',#736,#166);
#111=LINE('',#737,#167);
#112=LINE('',#740,#168);
#113=LINE('',#742,#169);
#114=LINE('',#743,#170);
#115=LINE('',#745,#171);
#116=LINE('',#746,#172);
#117=LINE('',#752,#173);
#118=LINE('',#766,#174);
#119=LINE('',#769,#175);
#120=LINE('',#776,#176);
#121=LINE('',#777,#177);
#122=LINE('',#780,#178);
#123=LINE('',#781,#179);
#124=LINE('',#784,#180);
#125=LINE('',#786,#181);
#126=LINE('',#787,#182);
#127=LINE('',#790,#183);
#128=LINE('',#792,#184);
#129=LINE('',#794,#185);
#130=LINE('',#796,#186);
#131=LINE('',#798,#187);
#132=LINE('',#800,#188);
#133=LINE('',#802,#189);
#134=LINE('',#804,#190);
#135=LINE('',#806,#191);
#136=LINE('',#808,#192);
#137=LINE('',#809,#193);
#138=LINE('',#812,#194);
#139=LINE('',#813,#195);
#140=LINE('',#818,#196);
#141=LINE('',#824,#197);
#142=LINE('',#828,#198);
#143=LINE('',#830,#199);
#144=LINE('',#831,#200);
#145=LINE('',#833,#201);
#146=LINE('',#836,#202);
#147=LINE('',#837,#203);
#148=LINE('',#840,#204);
#149=LINE('',#841,#205);
#150=LINE('',#844,#206);
#151=LINE('',#846,#207);
#152=LINE('',#847,#208);
#153=LINE('',#850,#209);
#154=LINE('',#851,#210);
#155=LINE('',#854,#211);
#156=LINE('',#855,#212);
#157=LINE('',#858,#213);
#158=LINE('',#859,#214);
#159=LINE('',#861,#215);
#160=LINE('',#863,#216);
#161=VECTOR('',#583,10.);
#162=VECTOR('',#584,10.);
#163=VECTOR('',#585,10.);
#164=VECTOR('',#586,10.);
#165=VECTOR('',#589,10.);
#166=VECTOR('',#590,10.);
#167=VECTOR('',#591,10.);
#168=VECTOR('',#594,10.);
#169=VECTOR('',#595,10.);
#170=VECTOR('',#596,10.);
#171=VECTOR('',#599,10.);
#172=VECTOR('',#600,10.);
#173=VECTOR('',#607,2.5);
#174=VECTOR('',#622,10.);
#175=VECTOR('',#625,10.);
#176=VECTOR('',#636,10.);
#177=VECTOR('',#637,10.);
#178=VECTOR('',#640,10.);
#179=VECTOR('',#641,10.);
#180=VECTOR('',#644,10.);
#181=VECTOR('',#645,10.);
#182=VECTOR('',#646,10.);
#183=VECTOR('',#649,10.);
#184=VECTOR('',#650,10.);
#185=VECTOR('',#651,10.);
#186=VECTOR('',#652,10.);
#187=VECTOR('',#653,10.);
#188=VECTOR('',#654,10.);
#189=VECTOR('',#655,10.);
#190=VECTOR('',#656,10.);
#191=VECTOR('',#657,10.);
#192=VECTOR('',#658,10.);
#193=VECTOR('',#659,10.);
#194=VECTOR('',#662,10.);
#195=VECTOR('',#663,10.);
#196=VECTOR('',#668,1.);
#197=VECTOR('',#675,1.);
#198=VECTOR('',#680,10.);
#199=VECTOR('',#681,10.);
#200=VECTOR('',#682,10.);
#201=VECTOR('',#685,10.);
#202=VECTOR('',#688,10.);
#203=VECTOR('',#689,10.);
#204=VECTOR('',#692,10.);
#205=VECTOR('',#693,10.);
#206=VECTOR('',#696,10.);
#207=VECTOR('',#697,10.);
#208=VECTOR('',#698,10.);
#209=VECTOR('',#701,10.);
#210=VECTOR('',#702,10.);
#211=VECTOR('',#705,10.);
#212=VECTOR('',#706,10.);
#213=VECTOR('',#709,10.);
#214=VECTOR('',#710,10.);
#215=VECTOR('',#713,10.);
#216=VECTOR('',#716,10.);
#217=VERTEX_POINT('',#724);
#218=VERTEX_POINT('',#725);
#219=VERTEX_POINT('',#727);
#220=VERTEX_POINT('',#729);
#221=VERTEX_POINT('',#733);
#222=VERTEX_POINT('',#735);
#223=VERTEX_POINT('',#739);
#224=VERTEX_POINT('',#741);
#225=VERTEX_POINT('',#749);
#226=VERTEX_POINT('',#751);
#227=VERTEX_POINT('',#756);
#228=VERTEX_POINT('',#757);
#229=VERTEX_POINT('',#759);
#230=VERTEX_POINT('',#761);
#231=VERTEX_POINT('',#763);
#232=VERTEX_POINT('',#765);
#233=VERTEX_POINT('',#767);
#234=VERTEX_POINT('',#775);
#235=VERTEX_POINT('',#779);
#236=VERTEX_POINT('',#783);
#237=VERTEX_POINT('',#785);
#238=VERTEX_POINT('',#789);
#239=VERTEX_POINT('',#791);
#240=VERTEX_POINT('',#793);
#241=VERTEX_POINT('',#795);
#242=VERTEX_POINT('',#797);
#243=VERTEX_POINT('',#799);
#244=VERTEX_POINT('',#801);
#245=VERTEX_POINT('',#803);
#246=VERTEX_POINT('',#805);
#247=VERTEX_POINT('',#807);
#248=VERTEX_POINT('',#811);
#249=VERTEX_POINT('',#815);
#250=VERTEX_POINT('',#817);
#251=VERTEX_POINT('',#821);
#252=VERTEX_POINT('',#823);
#253=VERTEX_POINT('',#827);
#254=VERTEX_POINT('',#829);
#255=VERTEX_POINT('',#835);
#256=VERTEX_POINT('',#839);
#257=VERTEX_POINT('',#843);
#258=VERTEX_POINT('',#845);
#259=VERTEX_POINT('',#849);
#260=VERTEX_POINT('',#853);
#261=VERTEX_POINT('',#857);
#262=EDGE_CURVE('',#217,#218,#105,.T.);
#263=EDGE_CURVE('',#217,#219,#106,.T.);
#264=EDGE_CURVE('',#220,#219,#107,.T.);
#265=EDGE_CURVE('',#218,#220,#108,.T.);
#266=EDGE_CURVE('',#218,#221,#109,.T.);
#267=EDGE_CURVE('',#222,#220,#110,.T.);
#268=EDGE_CURVE('',#221,#222,#111,.T.);
#269=EDGE_CURVE('',#221,#223,#112,.T.);
#270=EDGE_CURVE('',#224,#222,#113,.T.);
#271=EDGE_CURVE('',#223,#224,#114,.T.);
#272=EDGE_CURVE('',#223,#217,#115,.T.);
#273=EDGE_CURVE('',#219,#224,#116,.T.);
#274=EDGE_CURVE('',#225,#225,#25,.T.);
#275=EDGE_CURVE('',#225,#226,#117,.T.);
#276=EDGE_CURVE('',#226,#226,#26,.T.);
#277=EDGE_CURVE('',#227,#228,#27,.T.);
#278=EDGE_CURVE('',#229,#227,#28,.T.);
#279=EDGE_CURVE('',#230,#229,#29,.T.);
#280=EDGE_CURVE('',#231,#230,#30,.T.);
#281=EDGE_CURVE('',#231,#232,#118,.T.);
#282=EDGE_CURVE('',#233,#232,#31,.T.);
#283=EDGE_CURVE('',#228,#233,#119,.T.);
#284=EDGE_CURVE('',#228,#231,#32,.T.);
#285=EDGE_CURVE('',#232,#233,#33,.T.);
#286=EDGE_CURVE('',#234,#229,#120,.T.);
#287=EDGE_CURVE('',#230,#234,#121,.T.);
#288=EDGE_CURVE('',#235,#227,#122,.T.);
#289=EDGE_CURVE('',#229,#235,#123,.T.);
#290=EDGE_CURVE('',#236,#230,#124,.T.);
#291=EDGE_CURVE('',#237,#236,#125,.T.);
#292=EDGE_CURVE('',#227,#237,#126,.T.);
#293=EDGE_CURVE('',#238,#234,#127,.T.);
#294=EDGE_CURVE('',#239,#238,#128,.T.);
#295=EDGE_CURVE('',#240,#239,#129,.T.);
#296=EDGE_CURVE('',#241,#240,#130,.T.);
#297=EDGE_CURVE('',#242,#241,#131,.T.);
#298=EDGE_CURVE('',#243,#242,#132,.T.);
#299=EDGE_CURVE('',#243,#244,#133,.T.);
#300=EDGE_CURVE('',#245,#244,#134,.T.);
#301=EDGE_CURVE('',#245,#246,#135,.T.);
#302=EDGE_CURVE('',#247,#246,#136,.T.);
#303=EDGE_CURVE('',#247,#236,#137,.T.);
#304=EDGE_CURVE('',#248,#235,#138,.T.);
#305=EDGE_CURVE('',#248,#238,#139,.T.);
#306=EDGE_CURVE('',#249,#249,#34,.T.);
#307=EDGE_CURVE('',#249,#250,#140,.T.);
#308=EDGE_CURVE('',#250,#250,#35,.T.);
#309=EDGE_CURVE('',#251,#251,#36,.T.);
#310=EDGE_CURVE('',#251,#252,#141,.T.);
#311=EDGE_CURVE('',#252,#252,#37,.T.);
#312=EDGE_CURVE('',#240,#253,#142,.T.);
#313=EDGE_CURVE('',#254,#239,#143,.T.);
#314=EDGE_CURVE('',#253,#254,#144,.T.);
#315=EDGE_CURVE('',#248,#254,#145,.T.);
#316=EDGE_CURVE('',#253,#255,#146,.T.);
#317=EDGE_CURVE('',#241,#255,#147,.T.);
#318=EDGE_CURVE('',#256,#255,#148,.T.);
#319=EDGE_CURVE('',#242,#256,#149,.T.);
#320=EDGE_CURVE('',#257,#245,#150,.T.);
#321=EDGE_CURVE('',#257,#258,#151,.T.);
#322=EDGE_CURVE('',#246,#258,#152,.T.);
#323=EDGE_CURVE('',#258,#259,#153,.T.);
#324=EDGE_CURVE('',#247,#259,#154,.T.);
#325=EDGE_CURVE('',#260,#257,#155,.T.);
#326=EDGE_CURVE('',#260,#244,#156,.T.);
#327=EDGE_CURVE('',#261,#243,#157,.T.);
#328=EDGE_CURVE('',#261,#260,#158,.T.);
#329=EDGE_CURVE('',#259,#237,#159,.T.);
#330=EDGE_CURVE('',#256,#261,#160,.T.);
#331=ORIENTED_EDGE('',*,*,#262,.F.);
#332=ORIENTED_EDGE('',*,*,#263,.T.);
#333=ORIENTED_EDGE('',*,*,#264,.F.);
#334=ORIENTED_EDGE('',*,*,#265,.F.);
#335=ORIENTED_EDGE('',*,*,#266,.F.);
#336=ORIENTED_EDGE('',*,*,#265,.T.);
#337=ORIENTED_EDGE('',*,*,#267,.F.);
#338=ORIENTED_EDGE('',*,*,#268,.F.);
#339=ORIENTED_EDGE('',*,*,#269,.F.);
#340=ORIENTED_EDGE('',*,*,#268,.T.);
#341=ORIENTED_EDGE('',*,*,#270,.F.);
#342=ORIENTED_EDGE('',*,*,#271,.F.);
#343=ORIENTED_EDGE('',*,*,#272,.F.);
#344=ORIENTED_EDGE('',*,*,#271,.T.);
#345=ORIENTED_EDGE('',*,*,#273,.F.);
#346=ORIENTED_EDGE('',*,*,#263,.F.);
#347=ORIENTED_EDGE('',*,*,#273,.T.);
#348=ORIENTED_EDGE('',*,*,#270,.T.);
#349=ORIENTED_EDGE('',*,*,#267,.T.);
#350=ORIENTED_EDGE('',*,*,#264,.T.);
#351=ORIENTED_EDGE('',*,*,#274,.F.);
#352=ORIENTED_EDGE('',*,*,#275,.T.);
#353=ORIENTED_EDGE('',*,*,#276,.F.);
#354=ORIENTED_EDGE('',*,*,#275,.F.);
#355=ORIENTED_EDGE('',*,*,#274,.T.);
#356=ORIENTED_EDGE('',*,*,#277,.F.);
#357=ORIENTED_EDGE('',*,*,#278,.F.);
#358=ORIENTED_EDGE('',*,*,#279,.F.);
#359=ORIENTED_EDGE('',*,*,#280,.F.);
#360=ORIENTED_EDGE('',*,*,#281,.T.);
#361=ORIENTED_EDGE('',*,*,#282,.F.);
#362=ORIENTED_EDGE('',*,*,#283,.F.);
#363=ORIENTED_EDGE('',*,*,#284,.F.);
#364=ORIENTED_EDGE('',*,*,#283,.T.);
#365=ORIENTED_EDGE('',*,*,#285,.F.);
#366=ORIENTED_EDGE('',*,*,#281,.F.);
#367=ORIENTED_EDGE('',*,*,#285,.T.);
#368=ORIENTED_EDGE('',*,*,#282,.T.);
#369=ORIENTED_EDGE('',*,*,#276,.T.);
#370=ORIENTED_EDGE('',*,*,#279,.T.);
#371=ORIENTED_EDGE('',*,*,#286,.F.);
#372=ORIENTED_EDGE('',*,*,#287,.F.);
#373=ORIENTED_EDGE('',*,*,#278,.T.);
#374=ORIENTED_EDGE('',*,*,#288,.F.);
#375=ORIENTED_EDGE('',*,*,#289,.F.);
#376=ORIENTED_EDGE('',*,*,#277,.T.);
#377=ORIENTED_EDGE('',*,*,#284,.T.);
#378=ORIENTED_EDGE('',*,*,#280,.T.);
#379=ORIENTED_EDGE('',*,*,#290,.F.);
#380=ORIENTED_EDGE('',*,*,#291,.F.);
#381=ORIENTED_EDGE('',*,*,#292,.F.);
#382=ORIENTED_EDGE('',*,*,#290,.T.);
#383=ORIENTED_EDGE('',*,*,#287,.T.);
#384=ORIENTED_EDGE('',*,*,#293,.F.);
#385=ORIENTED_EDGE('',*,*,#294,.F.);
#386=ORIENTED_EDGE('',*,*,#295,.F.);
#387=ORIENTED_EDGE('',*,*,#296,.F.);
#388=ORIENTED_EDGE('',*,*,#297,.F.);
#389=ORIENTED_EDGE('',*,*,#298,.F.);
#390=ORIENTED_EDGE('',*,*,#299,.T.);
#391=ORIENTED_EDGE('',*,*,#300,.F.);
#392=ORIENTED_EDGE('',*,*,#301,.T.);
#393=ORIENTED_EDGE('',*,*,#302,.F.);
#394=ORIENTED_EDGE('',*,*,#303,.T.);
#395=ORIENTED_EDGE('',*,*,#286,.T.);
#396=ORIENTED_EDGE('',*,*,#289,.T.);
#397=ORIENTED_EDGE('',*,*,#304,.F.);
#398=ORIENTED_EDGE('',*,*,#305,.T.);
#399=ORIENTED_EDGE('',*,*,#293,.T.);
#400=ORIENTED_EDGE('',*,*,#306,.F.);
#401=ORIENTED_EDGE('',*,*,#307,.T.);
#402=ORIENTED_EDGE('',*,*,#308,.F.);
#403=ORIENTED_EDGE('',*,*,#307,.F.);
#404=ORIENTED_EDGE('',*,*,#309,.F.);
#405=ORIENTED_EDGE('',*,*,#310,.T.);
#406=ORIENTED_EDGE('',*,*,#311,.F.);
#407=ORIENTED_EDGE('',*,*,#310,.F.);
#408=ORIENTED_EDGE('',*,*,#312,.F.);
#409=ORIENTED_EDGE('',*,*,#295,.T.);
#410=ORIENTED_EDGE('',*,*,#313,.F.);
#411=ORIENTED_EDGE('',*,*,#314,.F.);
#412=ORIENTED_EDGE('',*,*,#294,.T.);
#413=ORIENTED_EDGE('',*,*,#305,.F.);
#414=ORIENTED_EDGE('',*,*,#315,.T.);
#415=ORIENTED_EDGE('',*,*,#313,.T.);
#416=ORIENTED_EDGE('',*,*,#306,.T.);
#417=ORIENTED_EDGE('',*,*,#296,.T.);
#418=ORIENTED_EDGE('',*,*,#312,.T.);
#419=ORIENTED_EDGE('',*,*,#316,.T.);
#420=ORIENTED_EDGE('',*,*,#317,.F.);
#421=ORIENTED_EDGE('',*,*,#308,.T.);
#422=ORIENTED_EDGE('',*,*,#317,.T.);
#423=ORIENTED_EDGE('',*,*,#318,.F.);
#424=ORIENTED_EDGE('',*,*,#319,.F.);
#425=ORIENTED_EDGE('',*,*,#297,.T.);
#426=ORIENTED_EDGE('',*,*,#262,.T.);
#427=ORIENTED_EDGE('',*,*,#266,.T.);
#428=ORIENTED_EDGE('',*,*,#269,.T.);
#429=ORIENTED_EDGE('',*,*,#272,.T.);
#430=ORIENTED_EDGE('',*,*,#320,.F.);
#431=ORIENTED_EDGE('',*,*,#321,.T.);
#432=ORIENTED_EDGE('',*,*,#322,.F.);
#433=ORIENTED_EDGE('',*,*,#301,.F.);
#434=ORIENTED_EDGE('',*,*,#323,.T.);
#435=ORIENTED_EDGE('',*,*,#324,.F.);
#436=ORIENTED_EDGE('',*,*,#302,.T.);
#437=ORIENTED_EDGE('',*,*,#322,.T.);
#438=ORIENTED_EDGE('',*,*,#309,.T.);
#439=ORIENTED_EDGE('',*,*,#325,.T.);
#440=ORIENTED_EDGE('',*,*,#320,.T.);
#441=ORIENTED_EDGE('',*,*,#300,.T.);
#442=ORIENTED_EDGE('',*,*,#326,.F.);
#443=ORIENTED_EDGE('',*,*,#311,.T.);
#444=ORIENTED_EDGE('',*,*,#326,.T.);
#445=ORIENTED_EDGE('',*,*,#299,.F.);
#446=ORIENTED_EDGE('',*,*,#327,.F.);
#447=ORIENTED_EDGE('',*,*,#328,.T.);
#448=ORIENTED_EDGE('',*,*,#291,.T.);
#449=ORIENTED_EDGE('',*,*,#303,.F.);
#450=ORIENTED_EDGE('',*,*,#324,.T.);
#451=ORIENTED_EDGE('',*,*,#329,.T.);
#452=ORIENTED_EDGE('',*,*,#288,.T.);
#453=ORIENTED_EDGE('',*,*,#292,.T.);
#454=ORIENTED_EDGE('',*,*,#329,.F.);
#455=ORIENTED_EDGE('',*,*,#323,.F.);
#456=ORIENTED_EDGE('',*,*,#321,.F.);
#457=ORIENTED_EDGE('',*,*,#325,.F.);
#458=ORIENTED_EDGE('',*,*,#328,.F.);
#459=ORIENTED_EDGE('',*,*,#330,.F.);
#460=ORIENTED_EDGE('',*,*,#318,.T.);
#461=ORIENTED_EDGE('',*,*,#316,.F.);
#462=ORIENTED_EDGE('',*,*,#314,.T.);
#463=ORIENTED_EDGE('',*,*,#315,.F.);
#464=ORIENTED_EDGE('',*,*,#304,.T.);
#465=ORIENTED_EDGE('',*,*,#319,.T.);
#466=ORIENTED_EDGE('',*,*,#330,.T.);
#467=ORIENTED_EDGE('',*,*,#327,.T.);
#468=ORIENTED_EDGE('',*,*,#298,.T.);
#469=PLANE('',#535);
#470=PLANE('',#536);
#471=PLANE('',#537);
#472=PLANE('',#538);
#473=PLANE('',#539);
#474=PLANE('',#543);
#475=PLANE('',#553);
#476=PLANE('',#554);
#477=PLANE('',#555);
#478=PLANE('',#556);
#479=PLANE('',#557);
#480=PLANE('',#558);
#481=PLANE('',#565);
#482=PLANE('',#566);
#483=PLANE('',#567);
#484=PLANE('',#568);
#485=PLANE('',#569);
#486=PLANE('',#570);
#487=PLANE('',#571);
#488=PLANE('',#572);
#489=PLANE('',#573);
#490=PLANE('',#574);
#491=PLANE('',#575);
#492=ADVANCED_FACE('',(#43),#469,.T.);
#493=ADVANCED_FACE('',(#44),#470,.T.);
#494=ADVANCED_FACE('',(#45),#471,.T.);
#495=ADVANCED_FACE('',(#46),#472,.T.);
#496=ADVANCED_FACE('',(#47),#473,.T.);
#497=ADVANCED_FACE('',(#48),#38,.T.);
#498=ADVANCED_FACE('',(#49),#474,.T.);
#499=ADVANCED_FACE('',(#50),#39,.T.);
#500=ADVANCED_FACE('',(#51),#40,.T.);
#501=ADVANCED_FACE('',(#52,#19),#475,.T.);
#502=ADVANCED_FACE('',(#53),#476,.F.);
#503=ADVANCED_FACE('',(#54),#477,.F.);
#504=ADVANCED_FACE('',(#55),#478,.F.);
#505=ADVANCED_FACE('',(#56),#479,.T.);
#506=ADVANCED_FACE('',(#57),#480,.T.);
#507=ADVANCED_FACE('',(#58),#41,.F.);
#508=ADVANCED_FACE('',(#59),#42,.F.);
#509=ADVANCED_FACE('',(#60),#481,.T.);
#510=ADVANCED_FACE('',(#61,#20),#482,.T.);
#511=ADVANCED_FACE('',(#62,#21),#483,.F.);
#512=ADVANCED_FACE('',(#63,#22),#484,.T.);
#513=ADVANCED_FACE('',(#64),#485,.T.);
#514=ADVANCED_FACE('',(#65,#23),#486,.T.);
#515=ADVANCED_FACE('',(#66,#24),#487,.F.);
#516=ADVANCED_FACE('',(#67),#488,.T.);
#517=ADVANCED_FACE('',(#68),#489,.T.);
#518=ADVANCED_FACE('',(#69),#490,.T.);
#519=ADVANCED_FACE('',(#70),#491,.F.);
#520=CLOSED_SHELL('',(#492,#493,#494,#495,#496,#497,#498,#499,#500,#501,
#502,#503,#504,#505,#506,#507,#508,#509,#510,#511,#512,#513,#514,#515,#516,
#517,#518,#519));
#521=DERIVED_UNIT_ELEMENT(#523,1.);
#522=DERIVED_UNIT_ELEMENT(#873,-3.);
#523=(
MASS_UNIT()
NAMED_UNIT(*)
SI_UNIT(.KILO.,.GRAM.)
);
#524=DERIVED_UNIT((#521,#522));
#525=MEASURE_REPRESENTATION_ITEM('density measure',
POSITIVE_RATIO_MEASURE(1377.19298245614),#524);
#526=PROPERTY_DEFINITION_REPRESENTATION(#531,#528);
#527=PROPERTY_DEFINITION_REPRESENTATION(#532,#529);
#528=REPRESENTATION('material name',(#530),#870);
#529=REPRESENTATION('density',(#525),#870);
#530=DESCRIPTIVE_REPRESENTATION_ITEM('Steel','Steel');
#531=PROPERTY_DEFINITION('material property','material name',#885);
#532=PROPERTY_DEFINITION('material property','density of part',#885);
#533=AXIS2_PLACEMENT_3D('',#721,#577,#578);
#534=AXIS2_PLACEMENT_3D('',#722,#579,#580);
#535=AXIS2_PLACEMENT_3D('',#723,#581,#582);
#536=AXIS2_PLACEMENT_3D('',#732,#587,#588);
#537=AXIS2_PLACEMENT_3D('',#738,#592,#593);
#538=AXIS2_PLACEMENT_3D('',#744,#597,#598);
#539=AXIS2_PLACEMENT_3D('',#747,#601,#602);
#540=AXIS2_PLACEMENT_3D('',#748,#603,#604);
#541=AXIS2_PLACEMENT_3D('',#750,#605,#606);
#542=AXIS2_PLACEMENT_3D('',#753,#608,#609);
#543=AXIS2_PLACEMENT_3D('',#754,#610,#611);
#544=AXIS2_PLACEMENT_3D('',#755,#612,#613);
#545=AXIS2_PLACEMENT_3D('',#758,#614,#615);
#546=AXIS2_PLACEMENT_3D('',#760,#616,#617);
#547=AXIS2_PLACEMENT_3D('',#762,#618,#619);
#548=AXIS2_PLACEMENT_3D('',#764,#620,#621);
#549=AXIS2_PLACEMENT_3D('',#768,#623,#624);
#550=AXIS2_PLACEMENT_3D('',#770,#626,#627);
#551=AXIS2_PLACEMENT_3D('',#771,#628,#629);
#552=AXIS2_PLACEMENT_3D('',#772,#630,#631);
#553=AXIS2_PLACEMENT_3D('',#773,#632,#633);
#554=AXIS2_PLACEMENT_3D('',#774,#634,#635);
#555=AXIS2_PLACEMENT_3D('',#778,#638,#639);
#556=AXIS2_PLACEMENT_3D('',#782,#642,#643);
#557=AXIS2_PLACEMENT_3D('',#788,#647,#648);
#558=AXIS2_PLACEMENT_3D('',#810,#660,#661);
#559=AXIS2_PLACEMENT_3D('',#814,#664,#665);
#560=AXIS2_PLACEMENT_3D('',#816,#666,#667);
#561=AXIS2_PLACEMENT_3D('',#819,#669,#670);
#562=AXIS2_PLACEMENT_3D('',#820,#671,#672);
#563=AXIS2_PLACEMENT_3D('',#822,#673,#674);
#564=AXIS2_PLACEMENT_3D('',#825,#676,#677);
#565=AXIS2_PLACEMENT_3D('',#826,#678,#679);
#566=AXIS2_PLACEMENT_3D('',#832,#683,#684);
#567=AXIS2_PLACEMENT_3D('',#834,#686,#687);
#568=AXIS2_PLACEMENT_3D('',#838,#690,#691);
#569=AXIS2_PLACEMENT_3D('',#842,#694,#695);
#570=AXIS2_PLACEMENT_3D('',#848,#699,#700);
#571=AXIS2_PLACEMENT_3D('',#852,#703,#704);
#572=AXIS2_PLACEMENT_3D('',#856,#707,#708);
#573=AXIS2_PLACEMENT_3D('',#860,#711,#712);
#574=AXIS2_PLACEMENT_3D('',#862,#714,#715);
#575=AXIS2_PLACEMENT_3D('',#864,#717,#718);
#576=AXIS2_PLACEMENT_3D('',#865,#719,#720);
#577=DIRECTION('axis',(0.,0.,1.));
#578=DIRECTION('refdir',(1.,0.,0.));
#579=DIRECTION('axis',(0.,0.,1.));
#580=DIRECTION('refdir',(1.,0.,0.));
#581=DIRECTION('center_axis',(0.,0.,-1.));
#582=DIRECTION('ref_axis',(-1.,0.,0.));
#583=DIRECTION('',(1.,0.,0.));
#584=DIRECTION('',(0.,1.,0.));
#585=DIRECTION('',(-1.,0.,0.));
#586=DIRECTION('',(0.,1.,0.));
#587=DIRECTION('center_axis',(1.,0.,0.));
#588=DIRECTION('ref_axis',(0.,0.,-1.));
#589=DIRECTION('',(0.,0.,1.));
#590=DIRECTION('',(0.,0.,-1.));
#591=DIRECTION('',(0.,1.,0.));
#592=DIRECTION('center_axis',(0.,0.,1.));
#593=DIRECTION('ref_axis',(1.,0.,0.));
#594=DIRECTION('',(-1.,0.,0.));
#595=DIRECTION('',(1.,0.,0.));
#596=DIRECTION('',(0.,1.,0.));
#597=DIRECTION('center_axis',(-1.,0.,0.));
#598=DIRECTION('ref_axis',(0.,0.,1.));
#599=DIRECTION('',(0.,0.,-1.));
#600=DIRECTION('',(0.,0.,1.));
#601=DIRECTION('center_axis',(0.,1.,0.));
#602=DIRECTION('ref_axis',(0.,0.,1.));
#603=DIRECTION('center_axis',(0.,0.,1.));
#604=DIRECTION('ref_axis',(-1.,0.,0.));
#605=DIRECTION('center_axis',(0.,0.,1.));
#606=DIRECTION('ref_axis',(-1.,0.,0.));
#607=DIRECTION('',(0.,0.,-1.));
#608=DIRECTION('center_axis',(0.,0.,-1.));
#609=DIRECTION('ref_axis',(-1.,0.,0.));
#610=DIRECTION('center_axis',(0.,0.,1.));
#611=DIRECTION('ref_axis',(-1.,0.,0.));
#612=DIRECTION('center_axis',(0.,0.,1.));
#613=DIRECTION('ref_axis',(1.83697019872103E-16,1.,0.));
#614=DIRECTION('center_axis',(0.,0.,-1.));
#615=DIRECTION('ref_axis',(-1.,0.,0.));
#616=DIRECTION('center_axis',(0.,0.,-1.));
#617=DIRECTION('ref_axis',(-1.,0.,0.));
#618=DIRECTION('center_axis',(0.,0.,-1.));
#619=DIRECTION('ref_axis',(-1.,0.,0.));
#620=DIRECTION('center_axis',(0.,0.,-1.));
#621=DIRECTION('ref_axis',(-1.,0.,0.));
#622=DIRECTION('',(0.,0.,1.));
#623=DIRECTION('center_axis',(0.,0.,1.));
#624=DIRECTION('ref_axis',(-1.,0.,0.));
#625=DIRECTION('',(0.,0.,1.));
#626=DIRECTION('center_axis',(0.,0.,1.));
#627=DIRECTION('ref_axis',(-2.83276944882399E-16,-1.,0.));
#628=DIRECTION('center_axis',(0.,0.,-1.));
#629=DIRECTION('ref_axis',(-1.,0.,0.));
#630=DIRECTION('center_axis',(0.,0.,1.));
#631=DIRECTION('ref_axis',(-1.,0.,0.));
#632=DIRECTION('center_axis',(0.,0.,1.));
#633=DIRECTION('ref_axis',(-1.,0.,0.));
#634=DIRECTION('center_axis',(0.,0.,-1.));
#635=DIRECTION('ref_axis',(-1.,0.,0.));
#636=DIRECTION('',(1.,0.,0.));
#637=DIRECTION('',(0.,1.,0.));
#638=DIRECTION('center_axis',(0.,0.,-1.));
#639=DIRECTION('ref_axis',(-1.,0.,0.));
#640=DIRECTION('',(0.,-1.,0.));
#641=DIRECTION('',(1.,0.,0.));
#642=DIRECTION('center_axis',(0.,0.,-1.));
#643=DIRECTION('ref_axis',(-1.,0.,0.));
#644=DIRECTION('',(0.,1.,0.));
#645=DIRECTION('',(-1.,0.,0.));
#646=DIRECTION('',(0.,-1.,0.));
#647=DIRECTION('center_axis',(-1.,0.,0.));
#648=DIRECTION('ref_axis',(0.,-1.,0.));
#649=DIRECTION('',(0.,0.,1.));
#650=DIRECTION('',(0.,-1.,0.));
#651=DIRECTION('',(0.,0.,1.));
#652=DIRECTION('',(0.,1.,0.));
#653=DIRECTION('',(0.,0.,1.));
#654=DIRECTION('',(0.,1.,0.));
#655=DIRECTION('',(0.,0.,1.));
#656=DIRECTION('',(0.,1.,0.));
#657=DIRECTION('',(0.,0.,1.));
#658=DIRECTION('',(0.,-1.,0.));
#659=DIRECTION('',(0.,0.,1.));
#660=DIRECTION('center_axis',(0.,1.,0.));
#661=DIRECTION('ref_axis',(-1.,0.,0.));
#662=DIRECTION('',(0.,0.,1.));
#663=DIRECTION('',(-1.,0.,0.));
#664=DIRECTION('center_axis',(0.,0.,-1.));
#665=DIRECTION('ref_axis',(-1.,0.,0.));
#666=DIRECTION('center_axis',(0.,0.,-1.));
#667=DIRECTION('ref_axis',(-1.,0.,0.));
#668=DIRECTION('',(0.,0.,-1.));
#669=DIRECTION('center_axis',(0.,0.,1.));
#670=DIRECTION('ref_axis',(-1.,0.,0.));
#671=DIRECTION('center_axis',(0.,0.,-1.));
#672=DIRECTION('ref_axis',(-1.,0.,0.));
#673=DIRECTION('center_axis',(0.,0.,-1.));
#674=DIRECTION('ref_axis',(-1.,0.,0.));
#675=DIRECTION('',(0.,0.,-1.));
#676=DIRECTION('center_axis',(0.,0.,1.));
#677=DIRECTION('ref_axis',(-1.,0.,0.));
#678=DIRECTION('center_axis',(0.,1.,0.));
#679=DIRECTION('ref_axis',(-1.,0.,0.));
#680=DIRECTION('',(1.,0.,0.));
#681=DIRECTION('',(-1.,0.,0.));
#682=DIRECTION('',(0.,0.,1.));
#683=DIRECTION('center_axis',(0.,0.,1.));
#684=DIRECTION('ref_axis',(1.,0.,0.));
#685=DIRECTION('',(0.,1.,0.));
#686=DIRECTION('center_axis',(0.,0.,1.));
#687=DIRECTION('ref_axis',(1.,0.,0.));
#688=DIRECTION('',(0.,-1.,0.));
#689=DIRECTION('',(1.,0.,0.));
#690=DIRECTION('center_axis',(0.,1.,0.));
#691=DIRECTION('ref_axis',(-1.,0.,0.));
#692=DIRECTION('',(0.,0.,1.));
#693=DIRECTION('',(1.,0.,0.));
#694=DIRECTION('center_axis',(0.,-1.,0.));
#695=DIRECTION('ref_axis',(1.,0.,0.));
#696=DIRECTION('',(-1.,0.,0.));
#697=DIRECTION('',(0.,0.,1.));
#698=DIRECTION('',(1.,0.,0.));
#699=DIRECTION('center_axis',(0.,0.,1.));
#700=DIRECTION('ref_axis',(1.,0.,0.));
#701=DIRECTION('',(0.,1.,0.));
#702=DIRECTION('',(1.,0.,0.));
#703=DIRECTION('center_axis',(0.,0.,1.));
#704=DIRECTION('ref_axis',(1.,0.,0.));
#705=DIRECTION('',(0.,-1.,0.));
#706=DIRECTION('',(-1.,0.,0.));
#707=DIRECTION('center_axis',(0.,-1.,0.));
#708=DIRECTION('ref_axis',(1.,0.,0.));
#709=DIRECTION('',(-1.,0.,0.));
#710=DIRECTION('',(0.,0.,1.));
#711=DIRECTION('center_axis',(0.,-1.,0.));
#712=DIRECTION('ref_axis',(1.,0.,0.));
#713=DIRECTION('',(0.,0.,1.));
#714=DIRECTION('center_axis',(1.,0.,0.));
#715=DIRECTION('ref_axis',(0.,1.,0.));
#716=DIRECTION('',(0.,-1.,0.));
#717=DIRECTION('center_axis',(0.,0.,1.));
#718=DIRECTION('ref_axis',(1.,0.,0.));
#719=DIRECTION('',(0.,0.,1.));
#720=DIRECTION('',(1.,0.,0.));
#721=CARTESIAN_POINT('',(0.,0.,0.));
#722=CARTESIAN_POINT('',(0.,0.,0.));
#723=CARTESIAN_POINT('Origin',(3.5,11.4,4.93491661391914));
#724=CARTESIAN_POINT('',(-3.5,11.4,4.93491661391914));
#725=CARTESIAN_POINT('',(3.5,11.4,4.93491661391914));
#726=CARTESIAN_POINT('',(4.9,11.4,4.93491661391914));
#727=CARTESIAN_POINT('',(-3.5,15.4,4.93491661391914));
#728=CARTESIAN_POINT('',(-3.5,11.4,4.93491661391914));
#729=CARTESIAN_POINT('',(3.5,15.4,4.93491661391914));
#730=CARTESIAN_POINT('',(3.5,15.4,4.93491661391914));
#731=CARTESIAN_POINT('',(3.5,11.4,4.93491661391914));
#732=CARTESIAN_POINT('Origin',(3.5,11.4,6.43491661391914));
#733=CARTESIAN_POINT('',(3.5,11.4,6.43491661391914));
#734=CARTESIAN_POINT('',(3.5,11.4,3.21745830695957));
#735=CARTESIAN_POINT('',(3.5,15.4,6.43491661391914));
#736=CARTESIAN_POINT('',(3.5,15.4,6.43491661391914));
#737=CARTESIAN_POINT('',(3.5,11.4,6.43491661391914));
#738=CARTESIAN_POINT('Origin',(-3.5,11.4,6.43491661391914));
#739=CARTESIAN_POINT('',(-3.5,11.4,6.43491661391914));
#740=CARTESIAN_POINT('',(1.4,11.4,6.43491661391914));
#741=CARTESIAN_POINT('',(-3.5,15.4,6.43491661391914));
#742=CARTESIAN_POINT('',(-3.5,15.4,6.43491661391914));
#743=CARTESIAN_POINT('',(-3.5,11.4,6.43491661391914));
#744=CARTESIAN_POINT('Origin',(-3.5,11.4,4.93491661391914));
#745=CARTESIAN_POINT('',(-3.5,11.4,2.46745830695957));
#746=CARTESIAN_POINT('',(-3.5,15.4,4.93491661391914));
#747=CARTESIAN_POINT('Origin',(0.,15.4,5.68491661391914));
#748=CARTESIAN_POINT('Origin',(0.,5.1,22.5));
#749=CARTESIAN_POINT('',(2.5,5.1,29.5));
#750=CARTESIAN_POINT('Origin',(0.,5.1,29.5));
#751=CARTESIAN_POINT('',(2.5,5.1,26.5));
#752=CARTESIAN_POINT('',(2.5,5.1,22.5));
#753=CARTESIAN_POINT('Origin',(0.,5.1,26.5));
#754=CARTESIAN_POINT('Origin',(0.,5.1,29.5));
#755=CARTESIAN_POINT('Origin',(0.,5.1,22.5));
#756=CARTESIAN_POINT('',(6.3,5.1,22.5));
#757=CARTESIAN_POINT('',(2.21383563974291,-0.798214285714283,22.5));
#758=CARTESIAN_POINT('Origin',(0.,5.1,22.5));
#759=CARTESIAN_POINT('',(0.,11.4,22.5));
#760=CARTESIAN_POINT('Origin',(0.,5.1,22.5));
#761=CARTESIAN_POINT('',(-6.3,5.1,22.5));
#762=CARTESIAN_POINT('Origin',(0.,5.1,22.5));
#763=CARTESIAN_POINT('',(-2.21383563974291,-0.798214285714283,22.5));
#764=CARTESIAN_POINT('Origin',(0.,5.1,22.5));
#765=CARTESIAN_POINT('',(-2.21383563974291,-0.798214285714283,26.5));
#766=CARTESIAN_POINT('',(-2.21383563974291,-0.798214285714283,22.5));
#767=CARTESIAN_POINT('',(2.21383563974291,-0.798214285714283,26.5));
#768=CARTESIAN_POINT('Origin',(0.,5.1,26.5));
#769=CARTESIAN_POINT('',(2.21383563974291,-0.798214285714283,22.5));
#770=CARTESIAN_POINT('Origin',(0.,-1.2,22.5));
#771=CARTESIAN_POINT('Origin',(0.,-1.2,22.5));
#772=CARTESIAN_POINT('Origin',(0.,-1.2,26.5));
#773=CARTESIAN_POINT('Origin',(0.,3.975,26.5));
#774=CARTESIAN_POINT('Origin',(0.,0.,22.5));
#775=CARTESIAN_POINT('',(-6.3,11.4,22.5));
#776=CARTESIAN_POINT('',(3.15,11.4,22.5));
#777=CARTESIAN_POINT('',(-6.3,5.7,22.5));
#778=CARTESIAN_POINT('Origin',(0.,0.,22.5));
#779=CARTESIAN_POINT('',(6.3,11.4,22.5));
#780=CARTESIAN_POINT('',(6.3,-5.7,22.5));
#781=CARTESIAN_POINT('',(3.15,11.4,22.5));
#782=CARTESIAN_POINT('Origin',(0.,0.,22.5));
#783=CARTESIAN_POINT('',(-6.3,-11.4,22.5));
#784=CARTESIAN_POINT('',(-6.3,5.7,22.5));
#785=CARTESIAN_POINT('',(6.3,-11.4,22.5));
#786=CARTESIAN_POINT('',(-3.15,-11.4,22.5));
#787=CARTESIAN_POINT('',(6.3,-5.7,22.5));
#788=CARTESIAN_POINT('Origin',(-6.3,11.4,0.));
#789=CARTESIAN_POINT('',(-6.3,11.4,18.));
#790=CARTESIAN_POINT('',(-6.3,11.4,0.));
#791=CARTESIAN_POINT('',(-6.3,16.25,18.));
#792=CARTESIAN_POINT('',(-6.3,-16.25,18.));
#793=CARTESIAN_POINT('',(-6.3,16.25,16.));
#794=CARTESIAN_POINT('',(-6.3,16.25,16.));
#795=CARTESIAN_POINT('',(-6.3,11.4,16.));
#796=CARTESIAN_POINT('',(-6.3,-16.25,16.));
#797=CARTESIAN_POINT('',(-6.3,11.4,0.));
#798=CARTESIAN_POINT('',(-6.3,11.4,0.));
#799=CARTESIAN_POINT('',(-6.3,-11.4,0.));
#800=CARTESIAN_POINT('',(-6.3,-11.4,0.));
#801=CARTESIAN_POINT('',(-6.3,-11.4,16.));
#802=CARTESIAN_POINT('',(-6.3,-11.4,0.));
#803=CARTESIAN_POINT('',(-6.3,-16.25,16.));
#804=CARTESIAN_POINT('',(-6.3,-16.25,16.));
#805=CARTESIAN_POINT('',(-6.3,-16.25,18.));
#806=CARTESIAN_POINT('',(-6.3,-16.25,16.));
#807=CARTESIAN_POINT('',(-6.3,-11.4,18.));
#808=CARTESIAN_POINT('',(-6.3,-16.25,18.));
#809=CARTESIAN_POINT('',(-6.3,-11.4,0.));
#810=CARTESIAN_POINT('Origin',(6.3,11.4,0.));
#811=CARTESIAN_POINT('',(6.3,11.4,18.));
#812=CARTESIAN_POINT('',(6.3,11.4,0.));
#813=CARTESIAN_POINT('',(3.15,11.4,18.));
#814=CARTESIAN_POINT('Origin',(0.,14.0000002086163,18.));
#815=CARTESIAN_POINT('',(1.,14.0000002086163,18.));
#816=CARTESIAN_POINT('Origin',(0.,14.0000002086163,18.));
#817=CARTESIAN_POINT('',(1.,14.0000002086163,16.));
#818=CARTESIAN_POINT('',(1.,14.0000002086163,18.));
#819=CARTESIAN_POINT('Origin',(0.,14.0000002086163,16.));
#820=CARTESIAN_POINT('Origin',(0.,-14.0000002086163,18.));
#821=CARTESIAN_POINT('',(1.,-14.0000002086163,18.));
#822=CARTESIAN_POINT('Origin',(0.,-14.0000002086163,18.));
#823=CARTESIAN_POINT('',(1.,-14.0000002086163,16.));
#824=CARTESIAN_POINT('',(1.,-14.0000002086163,18.));
#825=CARTESIAN_POINT('Origin',(0.,-14.0000002086163,16.));
#826=CARTESIAN_POINT('Origin',(6.3,16.25,16.));
#827=CARTESIAN_POINT('',(6.3,16.25,16.));
#828=CARTESIAN_POINT('',(-6.3,16.25,16.));
#829=CARTESIAN_POINT('',(6.3,16.25,18.));
#830=CARTESIAN_POINT('',(-6.3,16.25,18.));
#831=CARTESIAN_POINT('',(6.3,16.25,16.));
#832=CARTESIAN_POINT('Origin',(0.,13.825,18.));
#833=CARTESIAN_POINT('',(6.3,16.25,18.));
#834=CARTESIAN_POINT('Origin',(0.,13.825,16.));
#835=CARTESIAN_POINT('',(6.3,11.4,16.));
#836=CARTESIAN_POINT('',(6.3,16.25,16.));
#837=CARTESIAN_POINT('',(3.15,11.4,16.));
#838=CARTESIAN_POINT('Origin',(6.3,11.4,0.));
#839=CARTESIAN_POINT('',(6.3,11.4,0.));
#840=CARTESIAN_POINT('',(6.3,11.4,0.));
#841=CARTESIAN_POINT('',(-6.3,11.4,0.));
#842=CARTESIAN_POINT('Origin',(-6.3,-16.25,16.));
#843=CARTESIAN_POINT('',(6.3,-16.25,16.));
#844=CARTESIAN_POINT('',(6.3,-16.25,16.));
#845=CARTESIAN_POINT('',(6.3,-16.25,18.));
#846=CARTESIAN_POINT('',(6.3,-16.25,16.));
#847=CARTESIAN_POINT('',(6.3,-16.25,18.));
#848=CARTESIAN_POINT('Origin',(0.,-13.825,18.));
#849=CARTESIAN_POINT('',(6.3,-11.4,18.));
#850=CARTESIAN_POINT('',(6.3,16.25,18.));
#851=CARTESIAN_POINT('',(-3.15,-11.4,18.));
#852=CARTESIAN_POINT('Origin',(0.,-13.825,16.));
#853=CARTESIAN_POINT('',(6.3,-11.4,16.));
#854=CARTESIAN_POINT('',(6.3,16.25,16.));
#855=CARTESIAN_POINT('',(-3.15,-11.4,16.));
#856=CARTESIAN_POINT('Origin',(-6.3,-11.4,0.));
#857=CARTESIAN_POINT('',(6.3,-11.4,0.));
#858=CARTESIAN_POINT('',(6.3,-11.4,0.));
#859=CARTESIAN_POINT('',(6.3,-11.4,0.));
#860=CARTESIAN_POINT('Origin',(-6.3,-11.4,0.));
#861=CARTESIAN_POINT('',(6.3,-11.4,0.));
#862=CARTESIAN_POINT('Origin',(6.3,-11.4,0.));
#863=CARTESIAN_POINT('',(6.3,11.4,0.));
#864=CARTESIAN_POINT('Origin',(0.,0.,0.));
#865=CARTESIAN_POINT('',(0.,0.,0.));
#866=UNCERTAINTY_MEASURE_WITH_UNIT(LENGTH_MEASURE(0.01),#872,
'DISTANCE_ACCURACY_VALUE',
'Maximum model space distance between geometric entities at asserted c
onnectivities');
#867=UNCERTAINTY_MEASURE_WITH_UNIT(LENGTH_MEASURE(0.01),#872,
'DISTANCE_ACCURACY_VALUE',
'Maximum model space distance between geometric entities at asserted c
onnectivities');
#868=UNCERTAINTY_MEASURE_WITH_UNIT(LENGTH_MEASURE(0.01),#872,
'DISTANCE_ACCURACY_VALUE',
'Maximum model space distance between geometric entities at asserted c
onnectivities');
#869=(
GEOMETRIC_REPRESENTATION_CONTEXT(3)
GLOBAL_UNCERTAINTY_ASSIGNED_CONTEXT((#866))
GLOBAL_UNIT_ASSIGNED_CONTEXT((#872,#874,#875))
REPRESENTATION_CONTEXT('','3D')
);
#870=(
GEOMETRIC_REPRESENTATION_CONTEXT(3)
GLOBAL_UNCERTAINTY_ASSIGNED_CONTEXT((#867))
GLOBAL_UNIT_ASSIGNED_CONTEXT((#872,#874,#875))
REPRESENTATION_CONTEXT('','3D')
);
#871=(
GEOMETRIC_REPRESENTATION_CONTEXT(3)
GLOBAL_UNCERTAINTY_ASSIGNED_CONTEXT((#868))
GLOBAL_UNIT_ASSIGNED_CONTEXT((#872,#874,#875))
REPRESENTATION_CONTEXT('','3D')
);
#872=(
LENGTH_UNIT()
NAMED_UNIT(*)
SI_UNIT(.MILLI.,.METRE.)
);
#873=(
LENGTH_UNIT()
NAMED_UNIT(*)
SI_UNIT($,.METRE.)
);
#874=(
NAMED_UNIT(*)
PLANE_ANGLE_UNIT()
SI_UNIT($,.RADIAN.)
);
#875=(
NAMED_UNIT(*)
SI_UNIT($,.STERADIAN.)
SOLID_ANGLE_UNIT()
);
#876=SHAPE_DEFINITION_REPRESENTATION(#878,#881);
#877=SHAPE_DEFINITION_REPRESENTATION(#879,#882);
#878=PRODUCT_DEFINITION_SHAPE('',$,#884);
#879=PRODUCT_DEFINITION_SHAPE('',$,#885);
#880=PRODUCT_DEFINITION_SHAPE($,$,#14);
#881=SHAPE_REPRESENTATION('',(#533,#576),#869);
#882=SHAPE_REPRESENTATION('',(#534),#870);
#883=PRODUCT_DEFINITION_CONTEXT('part definition',#891,'design');
#884=PRODUCT_DEFINITION('Servo','Servo v4',#886,#883);
#885=PRODUCT_DEFINITION('Servo_1','Servo',#887,#883);
#886=PRODUCT_DEFINITION_FORMATION('',$,#893);
#887=PRODUCT_DEFINITION_FORMATION('',$,#894);
#888=PRODUCT_RELATED_PRODUCT_CATEGORY('Servo v4','Servo v4',(#893));
#889=PRODUCT_RELATED_PRODUCT_CATEGORY('Servo','Servo',(#894));
#890=APPLICATION_PROTOCOL_DEFINITION('international standard',
'automotive_design',2009,#891);
#891=APPLICATION_CONTEXT(
'Core Data for Automotive Mechanical Design Process');
#892=PRODUCT_CONTEXT('part definition',#891,'mechanical');
#893=PRODUCT('Servo','Servo v4',$,(#892));
#894=PRODUCT('Servo_1','Servo',$,(#892));
#895=PRESENTATION_STYLE_ASSIGNMENT((#897));
#896=PRESENTATION_STYLE_ASSIGNMENT((#898));
#897=SURFACE_STYLE_USAGE(.BOTH.,#899);
#898=SURFACE_STYLE_USAGE(.BOTH.,#900);
#899=SURFACE_SIDE_STYLE('',(#901));
#900=SURFACE_SIDE_STYLE('',(#902));
#901=SURFACE_STYLE_FILL_AREA(#903);
#902=SURFACE_STYLE_FILL_AREA(#904);
#903=FILL_AREA_STYLE('Steel - Satin',(#905));
#904=FILL_AREA_STYLE('Glass (Blue)',(#906));
#905=FILL_AREA_STYLE_COLOUR('Steel - Satin',#907);
#906=FILL_AREA_STYLE_COLOUR('Glass (Blue)',#908);
#907=COLOUR_RGB('Steel - Satin',0.627450980392157,0.627450980392157,0.627450980392157);
#908=COLOUR_RGB('Glass (Blue)',0.188235294117647,0.231372549019608,0.588235294117647);
ENDSEC;
END-ISO-10303-21;
